<svg width="132" height="72" viewBox="0 0 132 72" fill="none" xmlns="http://www.w3.org/2000/svg">
<path fill-rule="evenodd" clip-rule="evenodd" d="M116.839 27.2417C115.576 36.3661 114.151 41.1857 105.832 50.7411C97.5136 60.2964 59.4459 66.5824 45.3723 66.5824C31.2987 66.5824 13.9547 56.0644 15.0493 43.8775C16.144 31.6907 21.8548 21.73 35.524 20.5038C49.4933 19.2507 61.764 25.0536 75.4785 21.9414C87.3353 19.2507 90.9632 8.99484 99.1067 5.75916C115.576 -0.784775 117.698 21.0345 116.839 27.2417Z" fill="#4C90F6"/>
<path d="M108.366 31.6981C107.901 32.4625 102.01 36.3304 98.4372 36.9028C97.7458 37.0136 96.9908 37.0516 96.3902 36.7017C96.0354 36.495 95.771 36.1727 95.5199 35.8537C94.9457 35.1245 94.3979 34.3758 93.8779 33.6094C93.6046 33.2066 93.3336 32.7861 93.2408 32.3126C92.9949 31.0585 94.0379 29.9321 95.0687 29.1376C97.4381 27.311 100.212 25.9804 103.148 25.2626C103.668 25.1355 104.219 25.0279 104.733 25.1722C105.569 25.4065 106.068 26.2259 106.387 27.0103C106.706 27.7946 106.955 28.6525 107.592 29.2263C107.737 29.3573 108.831 30.9337 108.366 31.6981Z" fill="white"/>
<path fill-rule="evenodd" clip-rule="evenodd" d="M76.7153 65.0211C70.9985 65.9686 73.7232 61.9416 74.5116 56.9013C75.807 48.6191 77.4044 36.033 77.4044 36.033C77.4044 36.033 78.4462 55.2112 78.4462 59.881C78.4462 64.5508 77.4043 64.9069 76.7153 65.0211Z" fill="white"/>
<path d="M70.607 60.4581C70.7529 61.7918 70.9067 63.1537 71.4915 64.3692C71.1724 61.6167 70.8534 58.8643 70.5343 56.1118C70.4949 55.7719 70.5066 55.3393 70.8292 55.2007C71.1022 58.3087 71.5092 61.4057 72.0488 64.4808C72.1129 64.8459 71.5471 65.0545 71.2293 64.8488C70.9116 64.6432 70.8099 64.2428 70.7377 63.8792C70.2111 61.2293 69.9216 58.5353 69.8734 55.8371C69.2031 55.9651 68.733 56.595 68.5973 57.244C68.4617 57.893 68.5925 58.5633 68.7231 59.2133C69.1435 61.3056 69.5639 63.3978 69.9843 65.4901C70.181 66.4687 70.3776 67.4799 70.1606 68.4544C69.3262 64.7622 68.6554 61.0352 68.1506 57.2872C61.7483 61.0817 53.4987 61.7873 46.5096 59.1382C44.9832 58.5597 43.4673 57.793 42.459 56.5405C41.6648 55.5539 41.241 54.329 41.019 53.0962C40.2305 48.7182 41.8464 44.2524 44.0395 40.3494C44.8717 38.8685 45.8195 37.326 45.7523 35.641C45.7292 35.0608 45.6001 34.4185 45.9497 33.947C45.9992 34.0343 43.6614 17.8265 44.5992 14.2414C46.8569 5.61058 54.1912 4.44171 58.8872 4.54817C62.0379 4.6196 82.0096 8.46642 84.8952 13.6977C88.6876 20.573 87.8824 26.3534 87.2089 30.1649C87.0083 31.2999 77.4071 35.9494 77.4044 35.9729C76.8556 40.9185 73.172 51.6949 70.0827 55.667C70.2575 57.2641 70.4322 58.8611 70.607 60.4581Z" fill="white"/>
<path fill-rule="evenodd" clip-rule="evenodd" d="M24.5072 40.3346C22.7066 39.638 20.5609 39.8446 18.9375 40.8709C18.7804 40.9702 18.5544 40.8595 18.4766 40.6942C18.3988 40.5289 18.4279 40.3366 18.4677 40.1591C18.9862 37.8466 21.0516 36.0772 23.3485 35.2641C25.6454 34.451 28.1578 34.4487 30.5995 34.5877C30.8418 34.6015 31.095 34.6198 31.3016 34.7429C31.5083 34.866 31.6473 35.1292 31.5443 35.3418C30.5839 37.3241 29.8603 39.4137 29.3928 41.5558C29.317 41.9031 28.9456 42.1336 28.5799 42.1625C28.2142 42.1915 27.8558 42.0607 27.5239 41.9093C26.4896 41.4374 25.569 40.7454 24.5072 40.3346Z" fill="white"/>
<path fill-rule="evenodd" clip-rule="evenodd" d="M67.4388 5.40149C72.5291 6.79255 77.6192 8.40465 82.1207 11.0953C82.5114 11.3289 82.9492 11.6747 82.8762 12.1139C77.2613 8.93472 70.9489 7.13574 64.7077 5.36604C68.8822 6.99557 73.3991 8.91865 75.4397 12.8063C76.3032 14.4513 76.6312 16.3057 76.8882 18.1345C77.6524 23.5719 77.886 29.0793 77.5848 34.5591C80.0104 33.4165 82.436 32.2739 84.8616 31.1312C85.4881 30.8361 86.1456 30.5151 86.5238 29.9482C86.8779 29.4175 86.9301 28.7554 86.965 28.1243C87.1693 24.4287 87.1301 20.7205 86.8478 17.0297C87.6624 20.4415 88.0235 23.9548 87.9195 27.4553C87.8913 28.4031 87.8059 29.4137 87.2089 30.1649C86.7751 30.7107 86.1256 31.0473 85.4963 31.3677C83.2487 32.5121 81.0011 33.6565 78.7535 34.8008C76.1488 36.1271 73.0119 36.4379 70.1842 35.6499C72.207 35.5478 74.2298 35.4458 76.2526 35.3438C76.4177 35.3354 76.5945 35.323 76.724 35.2234C76.9135 35.0777 76.9282 34.8091 76.927 34.5747C76.8968 28.7814 76.8649 22.9649 75.9934 17.2334C75.7189 15.4275 75.3387 13.5778 74.2922 12.0601C73.1398 10.3887 71.3031 9.29529 69.4916 8.31616C66.2423 6.55987 62.7166 4.96074 58.997 5.03844C55.9263 5.10258 53.0026 6.31095 50.313 7.74844C48.1776 8.88972 46.0013 10.3399 45.1575 12.5574C44.6914 13.7824 44.6844 15.1207 44.7068 16.4261C44.7869 21.0816 45.1708 25.7321 45.8555 30.3406C45.9301 30.8425 45.8792 31.5326 45.3644 31.6226C44.7059 26.6809 44.0466 21.7304 43.8696 16.7505C43.8182 15.3066 43.8146 13.8209 44.3468 12.4714C45.064 10.6525 46.6658 9.30354 48.3259 8.20689C52.4654 5.4725 57.5123 3.80773 62.4906 4.34827C64.1708 4.5307 65.8116 4.95681 67.4388 5.40149Z" fill="#00160A"/>
<path fill-rule="evenodd" clip-rule="evenodd" d="M106.991 29.8004C106.155 29.4924 105.7 28.6309 105.376 27.8227C105.053 27.0145 104.743 26.1323 104.016 25.6271C103.508 27.5882 102.735 29.4847 101.723 31.2529C101.604 31.461 101.468 31.6799 101.244 31.7788C101.071 31.8556 100.872 31.8472 100.682 31.8368C98.2913 31.7065 95.9058 31.4913 93.5315 31.1921C93.2789 31.1602 93.073 31.4272 93.0783 31.6741C93.0836 31.921 93.2315 32.1409 93.3742 32.3455C93.9388 33.1551 94.5034 33.9648 95.068 34.7745C95.3411 35.1662 95.6305 35.5725 96.0589 35.7985C96.6316 36.1005 97.3332 36.02 97.9697 35.8831C101.327 35.1613 104.22 33.1533 106.928 31.0985C107.098 30.9694 107.323 30.8337 107.514 30.932C107.68 31.0177 107.714 31.2488 107.635 31.4149C107.557 31.581 107.399 31.6968 107.248 31.8056C104.338 33.895 101.28 36.0472 97.7066 36.6196C97.0152 36.7304 96.2602 36.7684 95.6596 36.4185C95.3048 36.2118 95.0404 35.8894 94.7893 35.5705C94.2151 34.8413 93.6673 34.0926 93.1473 33.3261C92.874 32.9234 92.603 32.5029 92.5102 32.0293C92.2643 30.7753 93.3073 29.6489 94.338 28.8543C96.7075 27.0278 99.4818 25.6972 102.417 24.9793C102.937 24.8523 103.488 24.7447 104.003 24.889C104.838 25.1233 105.338 25.9427 105.657 26.727C105.975 27.5114 106.224 28.3693 106.861 28.9431C107.007 29.0741 107.177 29.1969 107.242 29.3788C107.307 29.5607 107.189 29.8152 106.991 29.8004Z" fill="#00160A"/>
<path fill-rule="evenodd" clip-rule="evenodd" d="M101.301 30.1723C102.165 28.6958 102.834 27.112 103.287 25.4719C102.802 25.4203 102.323 25.5788 101.866 25.7424C100.422 26.2591 99.0064 26.8508 97.6278 27.5142C96.1714 28.215 94.7137 29.0306 93.7325 30.2873C95.7038 30.5005 97.6752 30.7137 99.6466 30.9269C100.018 30.967 100.419 31.0015 100.741 30.8185C100.995 30.6748 101.156 30.4198 101.301 30.1723Z" fill="#00160A"/>
<path fill-rule="evenodd" clip-rule="evenodd" d="M70.607 60.4582C70.7529 61.7918 70.9067 63.1537 71.4915 64.3692C71.1724 61.6168 70.8534 58.8643 70.5343 56.1119C70.4949 55.772 70.5066 55.3394 70.8292 55.2007C71.1022 58.3087 71.5092 61.4057 72.0488 64.4808C72.1129 64.8459 71.5471 65.0545 71.2293 64.8489C70.9116 64.6433 70.8099 64.2429 70.7377 63.8792C70.2111 61.2294 69.9216 58.5353 69.8734 55.8371C69.2031 55.9651 68.733 56.595 68.5973 57.244C68.4617 57.8931 68.5925 58.5634 68.7231 59.2134C69.1435 61.3056 69.5639 63.3979 69.9843 65.4901C70.181 66.4688 70.3776 67.4799 70.1606 68.4545C69.3262 64.7622 68.6554 61.0352 68.1506 57.2872C61.7483 61.0817 53.4987 61.7873 46.5096 59.1383C44.9832 58.5597 43.4673 57.793 42.459 56.5406C41.6648 55.5539 41.241 54.329 41.019 53.0963C40.2305 48.7182 41.8464 44.2524 44.0395 40.3495C44.8717 38.8685 45.8195 37.3261 45.7523 35.641C45.7292 35.0609 45.6001 34.4185 45.9497 33.947C46.3347 34.6259 46.4813 35.4292 46.36 36.195C52.9882 35.9184 59.6261 35.8628 66.2582 36.028C66.3355 36.3235 65.8938 36.4608 65.5792 36.4563C59.3901 36.3668 53.1979 36.469 47.0155 36.7627C46.8197 36.772 46.6142 36.7843 46.4482 36.8853C46.2736 36.9916 46.1718 37.1781 46.078 37.3561C44.3233 40.6836 42.5629 44.0595 41.7148 47.7049C41.2786 49.5795 41.1116 51.6312 42.0055 53.3466C42.3446 53.9973 42.8243 54.572 43.3598 55.0839C46.2347 57.8323 50.5397 58.6749 54.5773 58.6092C57.1542 58.5672 59.7254 58.2082 62.2097 57.5434C64.8435 56.8387 67.4702 55.7279 69.2679 53.7337C70.3236 52.5626 71.0411 51.1444 71.6695 49.7135C72.8693 46.9814 73.7896 44.134 74.4125 41.2266C74.8026 41.3062 74.808 41.8407 74.718 42.2171C73.6044 46.8732 72.3101 51.8362 68.6423 55.031C65.3297 57.9165 60.6617 58.8114 56.2148 59.0528C53.646 59.1922 51.0368 59.1486 48.5488 58.5139C46.0607 57.8793 43.6851 56.6097 42.1056 54.6414C42.5662 56.3438 44.1267 57.5588 45.7514 58.3451C50.017 60.4096 55.0543 60.3004 59.7644 59.5828C62.9019 59.1048 66.1224 58.3203 68.5642 56.3517C70.6513 54.669 71.9815 52.2658 72.9827 49.82C74.0909 47.1127 74.8597 44.2751 75.2667 41.3894C75.5202 41.2341 75.708 41.6683 75.6759 41.9572C75.127 46.9029 73.172 51.695 70.0827 55.6671C70.2575 57.2641 70.4322 58.8611 70.607 60.4582Z" fill="#00160A"/>
<path fill-rule="evenodd" clip-rule="evenodd" d="M67.1295 67.4551C67.1931 67.9691 67.3683 68.4699 67.6404 68.9153C67.732 68.007 68.0173 67.1175 68.4732 66.3189C68.5727 67.2081 68.6722 68.0972 68.7716 68.9863C71.7633 68.0876 74.9702 69.0362 78.0995 69.1643C78.7314 69.1902 79.4003 69.173 79.9411 68.8552C80.482 68.5375 80.8217 67.8218 80.5107 67.288C80.1885 67.7949 79.7728 68.2458 79.2892 68.6129C79.7341 67.6813 80.1881 66.7111 80.1806 65.6846C79.736 66.5368 79.2914 67.389 78.8468 68.2412C78.6175 67.8683 78.3881 67.4954 78.1588 67.1226C77.8512 67.6549 77.9453 68.377 78.3799 68.8184C78.0009 68.5723 77.6219 68.3263 77.2429 68.0802C77.1855 68.2293 77.1281 68.3784 77.0707 68.5275C76.7008 68.4136 76.4006 68.1076 76.3019 67.7439C76.6886 67.5919 77.1565 67.6544 77.4863 67.9021C77.729 67.3351 77.9716 66.7681 78.2142 66.2011C78.3835 66.6758 78.5527 67.1504 78.722 67.6251C80.0152 65.9098 80.7868 63.8298 80.9165 61.7091C80.9256 61.5597 80.9344 61.4015 81.0209 61.2775C81.1074 61.1536 81.3027 61.0879 81.4197 61.1855C80.9582 63.2557 80.4967 65.3259 80.0352 67.3961C80.492 67.067 81.0692 66.8984 81.6376 66.9279C81.134 67.2915 80.7509 67.8094 80.5571 68.3883C80.8913 68.1387 81.4604 68.3122 81.587 68.7023C81.7818 68.5628 82.104 68.6573 82.1864 68.878C82.2688 69.0987 82.0835 69.3711 81.8418 69.3847C86.1325 69.4213 90.4233 69.4578 94.714 69.4944C92.0408 69.9854 89.2913 69.6083 86.5709 69.5597C84.8033 69.5281 83.033 69.6364 81.2835 69.8832C81.4382 69.5885 81.5496 69.2724 81.6133 68.9475C78.2423 69.8646 74.668 68.7789 71.1668 68.8C70.2208 68.8058 69.0883 69.0194 68.7401 69.8719C68.587 68.9428 68.4338 68.0137 68.2807 67.0846C68.1414 67.8338 68.002 68.583 67.8626 69.3322C67.8284 69.5158 67.7845 69.7159 67.6338 69.832C67.44 69.9813 67.1393 69.9212 66.9543 69.7618C66.7693 69.6023 66.6728 69.3699 66.5859 69.1452C66.0735 67.8192 65.6798 66.45 65.4109 65.0581C65.3937 66.769 66.1174 68.3952 66.8279 69.9616C66.5184 69.8784 66.2089 69.7953 65.8994 69.7122C66.1499 70.0166 66.4003 70.321 66.6508 70.6254C65.8758 70.3438 65.1248 70.0001 64.408 69.5991C64.7036 69.999 64.9992 70.3989 65.2948 70.7988C64.57 70.4672 63.9342 69.9545 63.466 69.3239C64.1213 69.1517 64.8545 69.2847 65.4012 69.675C65.1476 69.3248 65.0322 68.883 65.0833 68.4581C65.4331 68.7556 65.783 69.0531 66.1328 69.3507C65.542 68.0399 65.132 66.6527 64.917 65.2376C64.8742 64.9562 64.9064 64.5744 65.1935 64.5153C65.4887 64.4545 65.675 64.8086 65.7516 65.0916C66.0805 66.3075 66.4095 67.5235 66.7384 68.7394C66.8688 68.3113 66.9992 67.8832 67.1295 67.4551Z" fill="#00160A"/>
<path fill-rule="evenodd" clip-rule="evenodd" d="M80.628 68.7915C80.5809 68.8454 80.5806 68.9324 80.6273 68.9865C80.7768 68.9649 80.9208 68.9081 81.0435 68.8224C80.9946 68.6707 80.7288 68.6587 80.6656 68.8053L80.628 68.7915Z" fill="#00160A"/>
<path fill-rule="evenodd" clip-rule="evenodd" d="M79.8519 5.42587C79.9413 4.09934 79.8382 2.76074 79.5464 1.46181C79.4951 1.23352 79.4378 0.997831 79.4853 0.768775C79.5863 0.282646 80.1433 -0.00996235 80.6549 0.000243231C81.1664 0.0104488 81.6402 0.247108 82.0929 0.478223C84.2637 1.58658 86.4736 2.7229 88.1828 4.42906C88.2381 5.85361 87.8791 7.25884 87.5378 8.64549C86.1537 14.2696 85.0202 19.9517 84.1417 25.6706C84.0575 26.2188 83.8978 26.8654 83.3614 27.0573C82.9766 27.195 82.5292 27.0191 82.2559 26.7227C81.9825 26.4263 81.8518 26.0327 81.7607 25.6451C81.5358 24.6888 81.5087 23.6892 81.6815 22.7227C81.8821 21.6011 82.3455 20.5376 82.5733 19.4209C82.681 18.8926 82.7353 18.3557 82.788 17.8196C83.0681 14.9691 83.3058 12.1146 83.5008 9.25747C83.5284 8.85372 83.5534 8.43728 83.417 8.05487C83.1743 7.37472 82.4673 6.94483 81.7531 6.74772C81.3435 6.63467 80.9123 6.57783 80.5328 6.39046C80.1533 6.20308 79.8242 5.83775 79.8519 5.42587" fill="#FFD951"/>
<path fill-rule="evenodd" clip-rule="evenodd" d="M81.1783 5.31687C82.1878 5.52333 83.1743 5.83508 84.1154 6.24502C84.3049 6.32756 84.5041 6.42419 84.6065 6.59938C84.6901 6.74247 84.6949 6.91479 84.6974 7.07921C84.727 9.01033 84.7332 10.9466 84.5222 12.867C84.3559 14.381 84.0553 15.8776 83.7973 17.3795C83.4903 19.1663 83.2431 20.9627 83.0564 22.7651C82.921 24.0728 82.8218 25.4244 83.2415 26.6742C83.4569 26.6361 83.5397 26.3848 83.5805 26.1763C84.8734 19.5714 86.1663 12.9665 87.4593 6.36167C87.5532 5.88158 87.6471 5.38522 87.5364 4.9085C87.3425 4.07388 86.5782 3.49355 85.8413 3.02267C84.4226 2.11618 82.9125 1.34415 81.3396 0.72113C81.2088 2.24929 81.1549 3.78363 81.1783 5.31687Z" fill="#FFD951"/>
<path fill-rule="evenodd" clip-rule="evenodd" d="M83.173 18.3302C83.8831 14.7965 84.204 11.1894 84.1283 7.59008C84.1226 7.31823 84.1075 7.02609 83.9359 6.81095C83.8102 6.65329 83.6181 6.56096 83.4305 6.47951C82.7259 6.17363 81.9852 5.94602 81.2275 5.80256C81.0082 5.76104 80.6858 5.80603 80.6954 6.02241C81.6032 6.386 82.511 6.74959 83.4189 7.11317C83.5786 7.17715 83.7488 7.24951 83.8391 7.39238C83.9276 7.5325 83.9189 7.70851 83.9074 7.87244C83.6626 11.3583 83.4178 14.8442 83.173 18.3302Z" fill="#FFD951"/>
<path fill-rule="evenodd" clip-rule="evenodd" d="M80.6386 0.371609C80.4141 0.227348 80.0897 0.376056 79.9646 0.607294C79.8395 0.838532 79.8586 1.11536 79.8869 1.37499C80.0439 2.81278 80.3885 4.2534 80.2128 5.68915C80.4188 5.75766 80.6487 5.61697 80.7486 5.42943C80.8485 5.2419 80.8511 5.02162 80.8515 4.81056C80.8538 3.54197 80.8561 2.27338 80.8584 1.00478C80.8588 0.772186 80.8386 0.500132 80.6386 0.371609Z" fill="#FFD951"/>
<path fill-rule="evenodd" clip-rule="evenodd" d="M82.6553 26.5884C82.5316 25.6479 82.4992 24.6961 82.5586 23.7497C82.6324 22.5744 82.8473 21.4088 82.8754 20.2317C82.3098 21.8634 82.0962 23.6089 82.2524 25.3236C82.293 25.7697 82.3683 26.2374 82.6553 26.5884" fill="#FFD951"/>
<path fill-rule="evenodd" clip-rule="evenodd" d="M82.9665 19.2677C83.0575 19.2282 83.0958 19.1043 83.0421 19.0228C82.9497 19.067 82.9104 19.192 82.9618 19.2786L82.9665 19.2677Z" fill="#FFD951"/>
<path fill-rule="evenodd" clip-rule="evenodd" d="M82.7125 40.3318C84.3767 40.1107 86.1607 39.9125 87.6598 40.6469C88.0324 40.8294 88.0639 41.3759 87.8173 41.7024C87.5707 42.0288 87.149 42.179 86.7444 42.2786C84.9565 42.7188 83.0752 42.5045 81.2442 42.2875C80.7945 42.2342 80.6326 42.8665 80.7519 43.2901C80.9935 44.1479 81.6352 44.8604 82.3907 45.3648C83.1463 45.8692 84.0149 46.1881 84.8814 46.4801C86.9936 47.192 89.1525 47.7735 91.3408 48.22C92.2478 48.4051 93.1867 48.5773 93.9597 49.073C93.9154 49.2747 93.6271 49.2905 93.4171 49.257C90.2391 48.7501 87.1133 47.9357 84.1013 46.83C83.1288 46.4729 82.1486 46.0742 81.3661 45.4102C80.5836 44.7463 80.019 43.7666 80.1133 42.7628C80.1344 42.5371 80.1225 42.221 79.8905 42.1925C76.0226 41.7163 72.31 40.1129 69.3583 37.6439C68.4332 36.8701 67.5089 35.788 67.7864 34.6346C67.8988 34.1675 68.1996 33.7646 68.5259 33.404C69.9496 31.8305 72.0136 30.8164 74.1647 30.6336C72.2667 31.501 70.3171 32.4047 68.903 33.9074C68.7147 34.1075 68.5336 34.3229 68.4406 34.5783C68.1445 35.3907 68.8162 36.2152 69.4745 36.7942C72.5076 39.4619 76.4023 41.1958 80.4666 41.6876C80.5401 41.2331 80.911 40.8656 81.3369 40.6627C81.7629 40.4598 82.2423 40.3942 82.7125 40.3318Z" fill="#00160A"/>
<path fill-rule="evenodd" clip-rule="evenodd" d="M81.135 41.7362C81.7707 41.6866 82.4128 41.7147 83.0413 41.8196C84.3421 42.0366 85.6925 41.9697 86.9637 41.6254C87.0844 41.5927 87.209 41.555 87.3005 41.472C87.3919 41.3889 87.4389 41.247 87.3746 41.1428C87.3257 41.0636 87.2292 41.0266 87.1388 40.9976C85.7706 40.5588 84.2835 40.7426 82.8555 40.9311C82.1984 41.0178 81.4439 41.1675 81.135 41.7362Z" fill="#00160A"/>
<path fill-rule="evenodd" clip-rule="evenodd" d="M62.2429 70.5097C63.2947 70.4812 64.3529 70.7066 65.2955 71.1598C65.0436 71.5108 64.5372 71.56 64.0963 71.5762C60.2557 71.7174 56.415 71.8587 52.5743 72C52.4687 71.9873 52.4488 71.8292 52.5236 71.7559C52.5984 71.6826 52.7153 71.6731 52.8216 71.6681C56.5709 71.4909 60.3201 71.3137 64.0694 71.1364C63.4195 71.0786 62.7855 70.8611 62.2429 70.5097Z" fill="#00160A"/>
<path fill-rule="evenodd" clip-rule="evenodd" d="M41.3692 35.2078C40.5692 35.1503 39.9049 34.3383 40.0691 33.5772C40.2333 32.8161 41.2267 32.3331 41.9374 32.6938C42.6481 33.0545 42.7811 34.1672 42.1512 34.6486C44.1111 34.3642 45.7708 33.1499 47.3614 32.0041C49.6675 30.343 52.1684 28.6893 55.0296 28.4348C55.0477 28.6421 54.7998 28.7633 54.596 28.8286C52.2883 29.568 50.0972 30.6483 48.1216 32.0206C46.3635 33.2419 44.6726 34.7395 42.5456 35.1207C41.9211 35.2327 41.5185 35.7998 41.1044 36.2665C39.7128 37.8348 37.6048 38.5994 35.5597 39.1909C34.1651 39.5943 32.6108 39.9355 31.2997 39.3232C31.1232 39.2407 30.9449 38.9969 31.1121 38.8979C32.4593 39.4841 34.0269 39.1429 35.4401 38.7275C37.7044 38.0618 40.061 37.1187 41.3692 35.2078Z" fill="#00160A"/>
<path fill-rule="evenodd" clip-rule="evenodd" d="M41.0256 33.0469C40.6729 33.2339 40.4744 33.6731 40.603 34.0423C40.7435 34.4456 41.198 34.6687 41.6321 34.7331C41.8177 34.4154 42.0087 34.0787 42.0062 33.7136C42.0037 33.3485 41.7286 32.958 41.3519 32.9584C41.2378 32.9585 41.1258 32.9938 41.0256 33.0469L41.0256 33.0469Z" fill="#00160A"/>
<path fill-rule="evenodd" clip-rule="evenodd" d="M83.4167 25.907C83.2347 25.7106 83.4588 25.3979 83.4018 25.1398C83.3632 24.9651 83.1992 24.8393 83.145 24.6685C83.1508 24.5626 83.297 24.5082 83.3966 24.5522C83.4962 24.5961 83.552 24.6998 83.5867 24.8004C83.7136 25.1674 83.6484 25.5917 83.4167 25.907Z" fill="#00160A"/>
<path fill-rule="evenodd" clip-rule="evenodd" d="M75.2405 16.572C74.5666 16.6964 74.0381 17.2396 73.7715 17.8522C73.5049 18.4648 73.4587 19.1438 73.4346 19.8082C73.3619 21.8174 73.4603 23.8323 73.7282 25.8259C73.7692 26.1306 73.8176 26.4445 73.9828 26.7067C74.148 26.969 74.4612 27.1683 74.7729 27.1125C75.3068 27.017 75.8803 27.1536 76.3076 27.4781C75.6667 27.5176 75.0258 27.557 74.3849 27.5965C74.0051 27.6199 73.5518 27.6103 73.3405 27.3035C73.2367 27.1528 73.2196 26.9632 73.2056 26.7826C73.068 25.0119 72.9304 23.2413 72.7928 21.4707C72.7151 20.4713 72.6387 19.454 72.8697 18.4771C73.1006 17.5003 73.6901 16.5522 74.6238 16.1214C74.8242 16.029 75.0696 15.9642 75.2607 16.0738C75.4518 16.1833 75.4586 16.5318 75.2405 16.572V16.572Z" fill="#00160A"/>
<path fill-rule="evenodd" clip-rule="evenodd" d="M78.6808 65.0023C78.5716 65.079 78.4621 64.9041 78.4462 64.7743C77.7032 58.7208 77.5911 52.6133 77.4799 46.5181C77.4549 45.1484 77.4299 43.7787 77.4049 42.409C77.4028 42.2919 77.4045 42.1637 77.4821 42.074C77.6158 41.9196 77.8968 41.9904 78.0135 42.1572C78.1302 42.324 78.1303 42.54 78.1265 42.7414C78.0121 48.7395 78.0872 54.7491 78.6797 60.7206C78.8213 62.1474 78.991 63.6008 78.6808 65.0023Z" fill="#00160A"/>
<path fill-rule="evenodd" clip-rule="evenodd" d="M71.9618 26.8581C72.1398 26.8071 72.3406 26.758 72.5033 26.8447C72.6661 26.9313 72.6953 27.218 72.5164 27.2661C64.1846 29.5072 55.9473 32.0788 47.8323 34.9721C47.6724 35.0291 47.503 35.0871 47.3356 35.0573C47.1681 35.0274 47.0116 34.8734 47.0484 34.7123C47.0832 34.5601 47.2565 34.4852 47.4081 34.4332C55.5057 31.6542 63.7243 29.2194 71.9618 26.8581Z" fill="#00160A"/>
<path fill-rule="evenodd" clip-rule="evenodd" d="M101.852 62.9652C101.661 63.0468 101.453 63.1228 101.247 63.0884C101.04 63.054 100.847 62.8662 100.888 62.6672C101.268 60.8477 100.792 58.8774 99.6184 57.4102C99.2073 56.8959 98.7178 56.4435 98.3172 55.9215C98.0647 55.5926 97.8402 55.179 97.9682 54.7883C98.1504 54.2324 98.8841 54.0972 99.4845 54.0575C100.88 53.9653 102.276 53.8731 103.672 53.7809C104.315 53.7384 105.056 53.7321 105.485 54.1982C106.68 55.4956 109.01 55.5828 110.305 54.3784C110.505 54.1921 110.757 54.5631 110.749 54.8321C110.724 55.678 110.365 56.5106 109.76 57.1214C109.618 57.2655 109.435 57.4067 109.23 57.386C109.026 57.3654 108.874 57.0802 109.038 56.9586C109.388 56.6977 109.745 56.4302 109.991 56.0742C110.237 55.7181 110.356 55.2514 110.188 54.855C109.287 55.9606 108.376 57.0595 107.458 58.1518C105.864 60.0455 104.161 61.9825 101.852 62.9652Z" fill="#E7EAEE"/>
<path fill-rule="evenodd" clip-rule="evenodd" d="M104.37 57.3926C104.141 57.4541 103.896 57.4069 103.667 57.3442C102.02 56.893 100.502 55.6454 98.8168 55.9374C100.782 57.4712 101.825 60.0431 101.464 62.4633C102.759 62.1946 103.781 61.2578 104.698 60.3321C106.056 58.9619 107.344 57.5279 108.559 56.0369C107.686 56.03 106.816 55.786 106.075 55.3399C105.159 55.5596 105.28 57.1488 104.37 57.3926Z" fill="#E7EAEE"/>
<path fill-rule="evenodd" clip-rule="evenodd" d="M105.567 54.8735C105.021 54.2499 104.04 54.2692 103.2 54.3407C102.103 54.434 101.007 54.5273 99.911 54.6207C99.4659 54.6585 98.9548 54.7343 98.7227 55.1043C100.62 55.4893 102.47 56.0939 104.22 56.9013C104.445 56.216 104.897 55.6023 105.491 55.1723C105.558 55.1239 105.635 55.0618 105.626 54.9814C105.621 54.9402 105.594 54.905 105.567 54.8735V54.8735Z" fill="#E7EAEE"/>
<path fill-rule="evenodd" clip-rule="evenodd" d="M24.2948 40.0032C22.6437 39.3632 20.6761 39.553 19.1875 40.4959C19.0434 40.5871 18.8362 40.4854 18.7648 40.3335C18.6935 40.1817 18.7202 40.005 18.7567 39.842C19.2321 37.7176 21.1261 36.0921 23.2323 35.3451C25.3385 34.5981 27.6424 34.5961 29.8814 34.7238C30.1035 34.7364 30.3357 34.7533 30.5252 34.8664C30.7147 34.9794 30.8422 35.2212 30.7478 35.4165C29.867 37.2376 29.2036 39.1573 28.7748 41.1251C28.7053 41.4441 28.3648 41.6558 28.0294 41.6825C27.6941 41.7091 27.3655 41.5889 27.0611 41.4498C26.1126 41.0163 25.2685 40.3806 24.2948 40.0032Z" fill="#E7EAEE"/>
<path fill-rule="evenodd" clip-rule="evenodd" d="M24.4835 37.8537C24.3364 37.9696 24.1064 37.9084 23.9679 37.7829C23.8295 37.6573 23.7506 37.4836 23.6417 37.3331C23.0579 36.526 21.7182 36.593 20.9241 37.2088C20.13 37.8246 19.7458 38.7977 19.3958 39.7232C21.7256 38.7425 24.595 39.0944 26.5992 40.6068C26.8728 40.8133 27.1443 41.0459 27.4813 41.1254C27.8182 41.2049 28.2427 41.0621 28.3281 40.7363C28.784 38.9959 29.3459 37.2816 30.0098 35.6052C28.7359 37.1398 26.0608 36.6118 24.4835 37.8537Z" fill="#E7EAEE"/>
<path fill-rule="evenodd" clip-rule="evenodd" d="M23.9766 36.9263C24.1075 37.0857 24.345 37.1279 24.5518 37.092C24.7585 37.056 24.9464 36.9562 25.1391 36.875C25.8024 36.5956 26.5371 36.5332 27.2482 36.4054C27.9594 36.2777 28.6929 36.0614 29.1935 35.5555C28.064 35.5522 26.9344 35.5489 25.8049 35.5456C24.6697 35.5423 23.4465 35.5656 22.5346 36.2208C23.0897 36.2404 23.6307 36.5051 23.9766 36.9263Z" fill="#E7EAEE"/>
<path fill-rule="evenodd" clip-rule="evenodd" d="M77.3414 39.8565C77.3387 38.8935 77.3361 37.9306 77.3334 36.9676C77.3326 36.6911 77.3319 36.4146 77.3311 36.138C77.3306 35.9473 77.3636 35.7087 77.5506 35.6494C77.692 35.6045 77.8477 35.7031 77.9138 35.8323C77.98 35.9615 77.9792 36.112 77.9769 36.2563C77.9563 37.6001 77.9357 38.9439 77.915 40.2877C77.9121 40.4809 77.8787 40.7187 77.6919 40.7865C77.3806 40.6156 77.3424 40.2033 77.3414 39.8565H77.3414Z" fill="#00160A"/>
<path fill-rule="evenodd" clip-rule="evenodd" d="M75.3579 38.9653C75.2141 39.0264 75.1399 38.7967 75.1621 38.6461C75.2416 38.1068 75.3214 37.5665 75.4567 37.0378C75.541 36.7087 75.6624 36.3623 75.9429 36.1596C76.2234 35.9569 76.705 35.9924 76.8422 36.3043C76.9087 36.4554 76.881 36.628 76.8505 36.7896C76.6617 37.79 76.4073 38.7787 76.0895 39.7479C76.076 39.789 76.0613 39.8319 76.0292 39.8618C75.951 39.9345 75.8099 39.8856 75.7557 39.7947C75.7015 39.7037 75.7086 39.5916 75.7172 39.487C75.8463 39.4778 75.9066 39.3306 75.9376 39.2087C76.0642 38.7111 76.1909 38.2135 76.3175 37.7158C76.4161 37.3286 76.506 36.8876 76.2767 36.5565C76.0411 36.6971 75.9525 36.9815 75.8824 37.2409C75.7414 37.7628 75.6003 38.2847 75.4592 38.8066C75.4424 38.869 75.4188 38.9393 75.3579 38.9653L75.3579 38.9653Z" fill="#00160A"/>
</svg>
