<svg width="24" height="25" viewBox="0 0 24 25" fill="none" xmlns="http://www.w3.org/2000/svg">
<path d="M17.25 17.75H6.54545L3.93015 3.36584C3.89873 3.19303 3.80766 3.03673 3.67281 2.92419C3.53796 2.81164 3.36789 2.75 3.19225 2.75H1.5" stroke="#95BDFA" stroke-width="1.5" stroke-linecap="round" stroke-linejoin="round"/>
<path d="M7.5 21.5C8.53553 21.5 9.375 20.6605 9.375 19.625C9.375 18.5895 8.53553 17.75 7.5 17.75C6.46447 17.75 5.625 18.5895 5.625 19.625C5.625 20.6605 6.46447 21.5 7.5 21.5Z" stroke="#95BDFA" stroke-width="1.5" stroke-linecap="round" stroke-linejoin="round"/>
<path d="M17.25 21.5C18.2855 21.5 19.125 20.6605 19.125 19.625C19.125 18.5895 18.2855 17.75 17.25 17.75C16.2145 17.75 15.375 18.5895 15.375 19.625C15.375 20.6605 16.2145 21.5 17.25 21.5Z" stroke="#95BDFA" stroke-width="1.5" stroke-linecap="round" stroke-linejoin="round"/>
<path d="M5.86363 14H17.6345C17.9858 14 18.3259 13.8767 18.5956 13.6516C18.8653 13.4265 19.0475 13.1139 19.1103 12.7683L20.25 6.5H4.5" stroke="#95BDFA" stroke-width="1.5" stroke-linecap="round" stroke-linejoin="round"/>
</svg>
