<svg width="132" height="72" viewBox="0 0 132 72" fill="none" xmlns="http://www.w3.org/2000/svg">
<g clip-path="url(#clip0_408_855)">
<path fill-rule="evenodd" clip-rule="evenodd" d="M25.4254 66.7288C33.3502 75.2443 63.9962 70.3529 84.1751 70.3529C92.8804 70.3529 122.094 74.6597 110.031 45.0815C70.476 -51.9004 0.3153 39.7475 25.4254 66.7288Z" fill="#4C90F6"/>
<path fill-rule="evenodd" clip-rule="evenodd" d="M60.489 67.4139C60.5275 67.3847 60.5679 67.3531 60.5847 67.3081C60.6385 67.1638 60.4275 67.068 60.2718 67.0715C60.0459 67.0765 59.7562 67.2267 59.8253 67.4391C59.8653 67.562 60.0186 67.6188 60.1474 67.5962C60.2761 67.5736 60.3853 67.4925 60.489 67.4139H60.489ZM61.7431 64.9114C61.9434 64.9734 62.1411 65.05 62.3155 65.1653C62.6429 65.3817 62.8658 65.7176 63.0795 66.0444C63.2328 66.2786 63.3882 66.5174 63.4647 66.7858C63.5476 67.0766 63.5328 67.3869 63.4773 67.6839C63.3044 68.6091 62.726 69.4533 61.9204 69.956C61.1147 70.4588 60.094 70.6126 59.1731 70.3701C58.9938 70.3229 58.8133 70.2585 58.6754 70.136C58.5596 70.033 58.4815 69.8959 58.41 69.7591C58.0349 69.0413 57.782 68.2439 57.8109 67.4367C57.8398 66.6295 58.176 65.8127 58.8128 65.3053C59.6118 64.6687 60.7633 64.6079 61.7431 64.9114" fill="white"/>
<path fill-rule="evenodd" clip-rule="evenodd" d="M97.1873 27.4747C96.8133 27.4701 96.4624 27.7797 96.4254 28.1471C96.4103 28.2973 96.4748 28.4839 96.6262 28.5046C96.7397 28.5201 96.8393 28.4336 96.9156 28.3492C97.0769 28.1707 97.2155 27.9722 97.327 27.7598C97.3644 27.6886 97.3974 27.5972 97.3482 27.5332C97.3124 27.4867 97.2466 27.4755 97.1873 27.4747ZM97.4305 25.8456C98.054 26.0603 98.6191 26.438 99.0526 26.9297C99.4252 27.3523 99.7089 27.9008 99.6306 28.4557C99.6019 28.6593 99.5258 28.8536 99.4389 29.0405C99.1101 29.7485 98.5444 30.427 97.7676 30.5642C97.3601 30.6361 96.94 30.5499 96.5481 30.4183C96.0948 30.2661 95.6627 30.0526 95.2676 29.7857C95.0581 29.6441 94.8499 29.4761 94.758 29.2424C94.6947 29.0814 94.6928 28.904 94.6952 28.7313C94.7011 28.3041 94.7297 27.8697 94.8807 27.4692C95.0716 26.9625 95.4452 26.5443 95.8413 26.171C96.0006 26.0209 96.1696 25.873 96.3742 25.7926C96.7089 25.6609 97.0902 25.7285 97.4305 25.8456Z" fill="white"/>
<path fill-rule="evenodd" clip-rule="evenodd" d="M97.1876 -0.43186C99.3852 1.80538 101.12 4.48059 102.255 7.38384C102.333 7.58324 102.409 7.80474 102.335 8.00546C101.762 9.55095 100.656 10.8394 99.5722 12.0922C98.8796 12.8928 98.1869 13.6933 97.4943 14.4939C96.833 15.2581 96.1717 16.0225 95.4881 16.7675C92.0078 20.5608 87.8953 23.8778 83.1324 25.9187C82.9526 25.9957 82.7598 26.0725 82.5662 26.0417C82.3727 26.0109 82.1913 25.8261 82.2419 25.6398C82.8308 23.4752 83.4234 21.212 82.9509 19.0199C82.8369 18.4912 82.7099 17.8254 83.1542 17.5073C86.7514 14.9313 89.3413 11.2493 91.8234 7.61732C92.4475 6.70407 93.0699 5.78829 93.6222 4.83135C94.6028 3.13231 95.358 1.30766 95.8626 -0.58185C95.9319 -0.841139 96.2648 -0.957897 96.5285 -0.889947C96.7922 -0.821996 96.9982 -0.624676 97.1876 -0.431861" fill="white"/>
<path fill-rule="evenodd" clip-rule="evenodd" d="M28.6522 8.25951C29.0095 11.448 30.0039 14.5658 31.5617 17.3812C32.5262 19.1244 33.6993 20.7452 34.8694 22.3612C35.6835 23.4856 36.5542 24.6575 37.8246 25.2386C38.1624 25.3931 38.1152 25.8739 38.0246 26.2303C37.6327 27.771 37.4499 29.3633 37.4825 30.9515C37.4856 31.1015 37.4896 31.257 37.4298 31.395C37.2271 31.8635 36.5325 31.7855 36.0543 31.5939C33.0956 30.4082 30.824 28.0239 28.702 25.6685C25.947 22.6103 23.2329 19.4178 21.6053 15.6537C21.4947 15.3978 21.3873 15.1285 21.4058 14.8509C21.4247 14.568 21.5719 14.3109 21.7213 14.0688C23.1967 11.6766 25.2493 9.63396 27.6606 8.15819C27.8304 8.05424 28.0117 7.95007 28.2115 7.94325C28.4112 7.93644 28.6302 8.06344 28.6522 8.25951Z" fill="white"/>
<path fill-rule="evenodd" clip-rule="evenodd" d="M96.7563 64.1951C97.0113 63.7686 97.3273 63.2989 97.8222 63.218C98.0174 63.1861 98.1203 62.9768 98.1867 62.7929C99.0048 60.5276 99.0837 58.0083 98.4088 55.6974C98.2161 55.0378 98.4533 54.3385 98.688 53.6923C99.2936 52.0246 99.8992 50.357 100.505 48.6893C100.158 48.0968 99.243 48.1144 98.7743 47.6101C98.1711 46.9613 98.6261 45.9296 99.0986 45.1827C101.859 40.8189 104.619 36.455 107.38 32.0912C107.718 31.5566 108.46 31.389 109.082 31.5315C109.704 31.6739 110.235 32.0604 110.747 32.4375C112.76 33.9219 114.773 35.4062 116.787 36.8906C117.867 37.6873 119.06 38.7049 118.998 40.0348C118.963 40.7707 118.537 41.4248 118.124 42.0386C116.528 44.4119 114.933 46.7852 113.337 49.1585C112.438 50.4956 112.687 52.2516 112.415 53.8337C111.986 56.3335 110.249 58.3865 108.641 60.3636C107.033 62.3407 105.424 64.5484 105.334 67.0823C105.226 70.1024 103.773 73.052 101.432 75C102.111 73.3743 97.8222 74.0227 92.9163 72.0959C93.7236 69.2767 95.2478 66.7181 96.7563 64.1951Z" fill="white"/>
<path fill-rule="evenodd" clip-rule="evenodd" d="M42.8864 71.2654C42.5805 71.0184 42.483 70.6014 42.4289 70.2138C41.8042 65.7296 44.4873 61.3036 44.0094 56.8016C43.7631 54.4816 42.6832 52.3168 41.3243 50.413C40.3859 49.0982 40.3332 47.3369 40.6833 45.7638C41.0334 44.1906 41.7397 42.7197 42.2161 41.1796C44.3344 34.3307 41.7568 27.0139 39.2084 20.3108C44.2865 17.8867 50.2123 18.3562 55.8381 18.6846C61.4638 19.0131 67.5141 19.0363 72.2029 15.935C72.8456 22.6441 71.4285 29.3607 70.0195 35.9535C77.1691 35.2659 84.3187 34.5784 91.4683 33.8908C91.6734 33.8711 91.8975 33.8558 92.0679 33.9708C92.2952 34.1241 92.3301 34.4368 92.3431 34.7091C92.6773 41.6864 92.8799 48.6699 92.9508 55.6547C92.9526 55.8299 92.9465 56.0252 92.822 56.1495C92.7154 56.2558 92.5527 56.2781 92.4025 56.2946C82.3856 57.3965 72.3688 58.4984 62.352 59.6003C61.4858 59.6956 60.2519 59.4729 60.3026 58.6098C60.5288 54.7611 60.3968 50.8919 59.9087 47.0672C57.2467 46.9678 54.5665 47.3685 52.0523 48.2419C51.4818 48.44 50.796 48.9727 51.1036 49.4888C53.1389 52.903 50.6128 58.035 53.377 60.901C54.3275 61.8864 54.2618 63.4367 54.0735 64.7877C53.6697 67.6836 52.9837 70.5407 52.0283 73.3063C52.4902 70.1231 43.1687 72.9724 42.8864 71.2654Z" fill="white"/>
<path fill-rule="evenodd" clip-rule="evenodd" d="M60.9856 64.8852C61.1562 64.9381 61.3246 65.0033 61.4732 65.1015C61.7522 65.2859 61.942 65.5721 62.1241 65.8505C62.2547 66.05 62.3871 66.2535 62.4523 66.4822C62.5228 66.7299 62.5103 66.9942 62.463 67.2473C62.3157 68.0355 61.8229 68.7547 61.1366 69.183C60.4502 69.6114 59.5806 69.7424 58.796 69.5358C58.6433 69.4956 58.4895 69.4407 58.372 69.3363C58.2733 69.2486 58.2068 69.1318 58.1459 69.0153C57.8263 68.4037 57.6109 67.7243 57.6355 67.0366C57.6601 66.349 57.9466 65.6531 58.489 65.2209C59.1698 64.6785 60.1508 64.6267 60.9856 64.8852M60.0289 68.9796C60.4556 68.9156 60.8312 68.6405 61.0765 68.2899C61.3218 67.9393 61.4476 67.5189 61.508 67.0971C61.5425 66.8562 61.5457 66.5801 61.3734 66.4061C61.2703 66.302 61.1229 66.2555 60.9816 66.2138C60.451 66.0571 59.8453 65.9239 59.3701 66.2045C59.024 66.4089 58.8311 66.7876 58.6562 67.1463C58.4513 67.5664 58.5019 68.0965 58.7826 68.4714C59.0634 68.8463 59.5619 69.0496 60.0289 68.9796Z" fill="#00160A"/>
<path fill-rule="evenodd" clip-rule="evenodd" d="M80.4764 45.9664C80.4838 45.877 80.4947 45.7811 80.5546 45.7137C80.6132 45.6478 80.7054 45.6242 80.7919 45.6043C83.0214 45.0919 85.3242 44.8915 87.61 45.0108C87.9011 45.026 88.2756 45.1233 88.2948 45.4104C88.4053 47.0565 88.5157 48.7026 88.6261 50.3487C88.6317 50.432 88.6345 50.5243 88.5805 50.5886C88.5365 50.641 88.4655 50.6612 88.3988 50.6784C86.0213 51.2902 83.5152 51.4107 81.0886 51.0302C81.0261 51.0204 80.9604 51.0088 80.9119 50.9687C80.8533 50.9203 80.8327 50.8414 80.816 50.7677C80.4582 49.1964 80.3433 47.5715 80.4764 45.9664ZM81.0021 48.6971C81.0459 49.3187 81.178 49.9342 81.3933 50.52C81.6081 50.5505 81.8207 50.5945 82.0346 50.6303C83.8787 50.9384 85.7647 50.6284 87.6085 50.3187C87.7393 50.2968 87.8827 50.2676 87.9635 50.1636C88.046 50.0574 88.035 49.9095 88.0201 49.7766C87.9566 49.2093 87.8931 48.6421 87.8296 48.0749C87.8245 48.0292 87.8179 47.9802 87.7865 47.9461C87.7485 47.9048 87.6862 47.8981 87.6298 47.8944C86.3195 47.8093 85.0049 47.9058 83.6955 48.0022C82.9717 48.0556 82.2479 48.1089 81.5242 48.1622C81.354 48.1747 81.1608 48.1996 81.063 48.3375C80.991 48.4391 80.9934 48.5734 81.0021 48.6971ZM81.0225 46.3247C80.908 46.6872 80.8874 47.0783 80.9633 47.4505C80.9769 47.5174 80.9961 47.588 81.0476 47.6336C81.1238 47.7011 81.2401 47.69 81.3415 47.6753C82.5746 47.4971 83.821 47.4085 85.0673 47.4105C85.2431 47.4108 85.297 47.1772 85.2951 47.0037C85.2923 46.7495 85.2895 46.4952 85.2866 46.241C85.285 46.0939 85.2776 45.9318 85.1756 45.8246C85.0529 45.6957 84.848 45.6997 84.6694 45.7132C84.2565 45.7443 83.8436 45.7754 83.4308 45.8066C83.2333 45.8214 82.7094 45.9538 82.4687 45.9695C82.0495 46.0355 81.6303 46.1015 81.2112 46.1675C81.1665 46.1746 81.1193 46.1827 81.0849 46.2117C81.0513 46.2399 81.0356 46.2832 81.0225 46.3247ZM86.5509 47.4307C86.8785 47.4349 87.2067 47.4025 87.527 47.3344C87.6033 47.3182 87.6834 47.2977 87.7378 47.2425C87.8177 47.1615 87.817 47.0344 87.8111 46.9215C87.7942 46.5937 87.7772 46.2659 87.7603 45.9381C87.7543 45.8211 87.7409 45.6894 87.6483 45.6163C87.5669 45.5519 87.4519 45.5557 87.3478 45.5627C86.9834 45.5872 86.6191 45.6117 86.2547 45.6361C86.197 45.64 86.1364 45.6448 86.0882 45.6763C85.9999 45.7339 85.9867 45.8544 85.9843 45.9588C85.9761 46.3062 85.9905 46.6542 86.0273 46.9999C86.038 47.0999 86.0527 47.2053 86.1154 47.2846C86.2131 47.4082 86.3921 47.4287 86.5509 47.4307Z" fill="#FFD951"/>
<path fill-rule="evenodd" clip-rule="evenodd" d="M86.1822 38.7728C86.6693 38.5648 87.2669 38.6345 87.6914 38.9488C88.1159 39.2631 88.3508 39.8099 88.2847 40.3296C88.5832 40.1704 88.9616 40.0136 89.2401 40.2048C89.5546 40.4208 89.4828 40.8858 89.4355 41.261C89.353 41.9165 89.46 42.5943 89.7408 43.194C89.8568 43.4417 89.9564 43.8175 89.6991 43.9174C89.6557 43.9343 89.6084 43.9382 89.5618 43.9419C86.5453 44.1818 83.5287 44.4218 80.5121 44.6617C80.4294 44.6683 80.3367 44.6719 80.2742 44.6181C80.2103 44.5632 80.2023 44.4698 80.1989 44.3862C80.1699 43.6859 80.141 42.9856 80.1121 42.2852C80.1044 42.0974 80.1006 41.8948 80.2081 41.7396C80.386 41.4827 80.7587 41.4835 81.07 41.4343C81.3813 41.3851 81.7434 41.1259 81.6236 40.8381C81.49 40.5172 81.9453 40.2828 82.2927 40.2306C82.6401 40.1784 83.101 39.974 82.9958 39.643C82.8808 39.2815 83.3849 39.057 83.7654 39.0072C84.034 38.972 84.3148 38.9379 84.5695 39.0289C84.8243 39.1198 85.0396 39.3787 84.9822 39.64C84.9165 39.9391 85.2857 40.2178 85.5767 40.1122C85.8678 40.0065 85.9857 39.6139 85.8384 39.3445C85.7181 39.1245 85.9498 38.8721 86.1822 38.7728ZM87.74 43.3879C87.6272 43.1814 87.6263 42.9356 87.6253 42.701C87.6205 41.5995 87.552 40.4983 87.4201 39.4045C87.4134 39.3493 87.4029 39.2876 87.3571 39.2552C87.3176 39.2274 87.2645 39.2306 87.2162 39.2351C86.9805 39.2568 86.7012 39.3082 86.6081 39.523C86.5684 39.6146 86.5731 39.7182 86.5785 39.8177C86.6382 40.9217 86.698 42.0257 86.7577 43.1297C86.7633 43.2325 86.7771 43.3505 86.8637 43.408C86.9109 43.4393 86.9703 43.4451 87.0271 43.4482C87.266 43.4611 87.5068 43.4407 87.74 43.3879ZM83.6827 41.6905C83.6534 41.8744 83.6123 42.057 83.6014 42.2429C83.5831 42.5535 83.6494 42.8622 83.7153 43.1665C83.7576 43.3615 84.0131 43.4576 84.2003 43.3823C84.3875 43.3071 84.5006 43.11 84.5317 42.9129C84.5628 42.7158 84.5263 42.5152 84.4945 42.3182C84.3695 41.5442 84.3153 40.7591 84.333 39.9756C84.3374 39.7773 84.1415 39.5982 83.9416 39.6178C83.7416 39.6373 83.5852 39.8509 83.629 40.0445C83.751 40.5834 83.7693 41.145 83.6827 41.6905ZM85.6666 40.6332C85.549 40.4812 85.2794 40.5621 85.1877 40.7306C85.0959 40.8991 85.124 41.1034 85.1467 41.2934C85.2061 41.7895 85.2118 42.2919 85.1636 42.7891C85.1494 42.9357 85.1336 43.0958 85.2156 43.2188C85.3418 43.4081 85.6185 43.4064 85.8469 43.3835C85.9185 43.3763 86.0008 43.3626 86.0368 43.3011C86.0618 43.2583 86.0559 43.2052 86.0492 43.1562C85.9439 42.3846 85.8386 41.6131 85.7333 40.8416C85.7234 40.7685 85.7119 40.6918 85.6666 40.6332ZM88.2796 40.9647C88.1909 41.084 88.1723 41.2392 88.1646 41.3869C88.1382 41.8933 88.2062 42.3994 88.274 42.9021C88.3007 43.1001 88.3925 43.3547 88.5944 43.3412C88.7991 43.3275 88.8526 43.0573 88.8478 42.8548C88.8352 42.3187 88.8226 41.7825 88.81 41.2463C88.8067 41.1054 88.7916 40.9421 88.6731 40.8634C88.5488 40.7808 88.3682 40.8455 88.2796 40.9647ZM82.0963 40.8381C82.0963 40.8381 82.1862 41.5378 82.2176 41.8943C82.2569 42.3419 82.3071 42.7886 82.368 43.2338C82.3768 43.2984 82.3886 43.3685 82.4369 43.413C82.5207 43.4901 82.8439 43.4389 82.9035 43.3422C82.963 43.2456 82.9597 43.1249 82.9545 43.0119C82.9381 42.6546 82.9217 42.2972 82.9053 41.9398C82.8877 41.5567 82.7954 40.7306 82.7954 40.7306M80.9239 43.3717C80.9498 43.4519 80.9803 43.5358 81.0459 43.5894C81.1741 43.6941 81.3819 43.6293 81.4829 43.4989C81.5839 43.3685 81.6067 43.1967 81.626 43.0336C81.6497 42.8336 81.6726 42.6256 81.607 42.4349C81.5413 42.2442 81.3596 42.0764 81.1563 42.0941C80.9694 42.1104 80.8246 42.279 80.7809 42.4592C80.7373 42.6394 80.7741 42.8284 80.8195 43.0081C80.8503 43.1304 80.8852 43.2517 80.9239 43.3717Z" fill="#E7EAEE"/>
<path fill-rule="evenodd" clip-rule="evenodd" d="M93.585 15.1746C93.2991 15.5981 92.9892 16.0271 92.5469 16.2886C92.1045 16.5502 91.4938 16.6011 91.0964 16.2769C90.6579 15.9192 90.6308 15.2744 90.6654 14.714C90.6788 14.4982 90.6963 14.2807 90.759 14.0736C90.8676 13.7143 91.1048 13.4077 91.3525 13.1234C91.6529 12.7785 91.9857 12.4458 92.4025 12.2517C92.8193 12.0577 93.3371 12.0236 93.7276 12.2651C94.1951 12.5541 94.368 13.169 94.2795 13.7064C94.191 14.2437 93.8908 14.7215 93.585 15.1746M92.6771 15.6227C93.0376 15.2437 93.3468 14.8172 93.5939 14.3582C93.7565 14.0561 93.8948 13.7277 93.8883 13.3857C93.8818 13.0437 93.699 12.6862 93.3772 12.5593C92.958 12.394 92.4979 12.6584 92.1475 12.9394C91.8981 13.1394 91.6567 13.3588 91.4967 13.6339C91.3955 13.8079 91.3298 13.9993 91.2646 14.1892C91.1415 14.5487 91.0165 14.9232 91.0634 15.2998C91.1103 15.6764 91.3834 16.0544 91.7658 16.0934C92.1197 16.1296 92.4336 15.8787 92.6771 15.6227Z" fill="#FFD951"/>
<path fill-rule="evenodd" clip-rule="evenodd" d="M30.8864 18.9254C31.3342 19.3732 31.7039 19.8968 31.9743 20.4666C32.2461 21.0392 31.9721 21.7751 31.4387 22.1254C30.9054 22.4757 30.1842 22.4711 29.5994 22.2129C29.0146 21.9548 28.555 21.473 28.2165 20.9361C27.9613 20.5314 27.7635 20.0777 27.7423 19.6015C27.7211 19.1252 27.8987 18.624 28.2804 18.332C28.6665 18.0366 29.2094 17.9944 29.6763 18.1361C30.1432 18.2779 30.5432 18.5823 30.8864 18.9254M29.1391 18.6531C28.7516 18.6138 28.4073 18.9648 28.3409 19.3436C28.2744 19.7225 28.4207 20.1069 28.61 20.4429C29.0206 21.1715 29.7532 21.8187 30.5969 21.7784C31.0306 21.7577 31.506 21.4612 31.4983 21.0327C31.495 20.8474 31.4024 20.6764 31.3099 20.5151C31.0641 20.0866 30.7987 19.6626 30.4442 19.3161C30.0897 18.9697 29.6353 18.7036 29.1391 18.6531Z" fill="#FFD951"/>
<path fill-rule="evenodd" clip-rule="evenodd" d="M59.2653 66.818C59.5304 66.6192 59.86 66.4906 60.1921 66.5118C60.5243 66.5329 60.853 66.721 60.992 67.0195C61.1411 67.3399 61.0481 67.7379 60.8155 68.0055C60.5829 68.273 60.2323 68.4208 59.8785 68.4696C59.6371 68.5029 59.3492 68.4729 59.2171 68.2708C59.1533 68.1732 59.1388 68.0531 59.126 67.9377C59.103 67.7305 59.0799 67.5233 59.0569 67.3161C59.0471 67.2283 59.0377 67.1373 59.0663 67.0536C59.1 66.9552 59.1816 66.8808 59.2653 66.818M60.3138 67.4139C60.3523 67.3847 60.3927 67.3531 60.4095 67.3081C60.4633 67.1639 60.2522 67.068 60.0966 67.0715C59.8706 67.0765 59.5809 67.2267 59.6501 67.4391C59.6901 67.562 59.8434 67.6189 59.9722 67.5962C60.1009 67.5736 60.2101 67.4925 60.3138 67.4139H60.3138Z" fill="#00160A"/>
<path fill-rule="evenodd" clip-rule="evenodd" d="M99.2421 0.655949C101.666 3.13243 103.578 6.09373 104.831 9.30744C104.917 9.52817 105 9.77335 104.918 9.99554C104.286 11.7063 103.067 13.1325 101.872 14.5194L99.5803 17.1778L99.5803 17.1779C98.8511 18.0238 98.1218 18.8699 97.3681 19.6946C93.5301 23.8936 88.9951 27.5652 83.7428 29.8243C83.5445 29.9096 83.3319 29.9946 83.1185 29.9605C82.905 29.9265 82.705 29.7219 82.7608 29.5157C83.4102 27.1196 84.0637 24.6144 83.5427 22.1879C83.417 21.6026 83.2769 20.8657 83.7668 20.5135C87.7336 17.662 90.5896 13.5863 93.3267 9.56589C94.015 8.55498 94.7014 7.54127 95.3104 6.48199C96.3917 4.60127 97.2245 2.58149 97.781 0.48992C97.8574 0.202903 98.2245 0.0736591 98.5153 0.148876C98.8061 0.224093 99.0333 0.442514 99.2421 0.655949ZM97.5463 3.73129C97.3 3.63074 97.0729 3.90267 96.9474 4.13476C96.8116 4.38601 96.6759 4.63764 96.5401 4.88949C94.0292 9.54521 91.4797 14.2724 87.6533 17.9394C87.2918 18.2859 86.8877 18.7044 86.9544 19.1975C87.1679 20.7779 86.3132 22.4468 84.8973 23.2141C84.2545 23.5624 84.2621 24.4612 84.3563 25.1791C84.394 25.4665 84.5039 25.8268 84.7965 25.8511C85.6546 25.9225 86.478 26.3394 87.0373 26.9857C87.2138 27.1896 87.5482 27.0622 87.7782 26.9195C93.5669 23.3272 98.0146 18.0211 102.357 12.8078C102.507 12.6279 102.667 12.4013 102.588 12.1816C101.931 10.3337 102.037 8.23367 102.875 6.45889C102.38 5.48669 101.791 4.56161 101.117 3.70065C99.9951 4.18125 98.6761 4.19257 97.5463 3.73129ZM83.8162 28.8753C84.0445 28.9933 84.3209 28.8811 84.5494 28.7634C85.1498 28.454 85.7282 28.1029 86.2788 27.7134C86.4243 27.6105 86.4676 27.405 86.4162 27.2357C86.3647 27.0665 86.236 26.9301 86.0934 26.8233C85.6483 26.4898 85.026 26.4021 84.5041 26.5993C84.4077 26.6357 84.3118 26.6833 84.2454 26.7612C84.1676 26.8525 84.1391 26.9741 84.1142 27.0909C83.988 27.6809 83.8886 28.2765 83.8162 28.8753ZM100.072 2.50083C99.6789 1.74167 99.0722 1.09155 98.338 0.642285C98.0826 0.864516 98.0329 1.2022 97.9823 1.54647C97.9475 1.7827 97.9123 2.02203 97.8099 2.22928C97.7765 2.29678 97.7357 2.36135 97.695 2.42577C97.6175 2.54841 97.5403 2.67052 97.5154 2.81136C97.4775 3.02619 97.6617 3.29569 97.8706 3.2246C98.0404 3.16681 98.2184 3.20394 98.3979 3.24138C98.4927 3.26114 98.5879 3.28099 98.6825 3.28701C99.2338 3.32214 99.6913 2.8958 100.072 2.50083ZM103.189 7.05097C102.768 7.87829 102.835 8.85542 102.911 9.77832L103.021 11.1019C103.033 11.2474 103.113 11.4438 103.256 11.4035C103.344 11.1597 103.512 10.9586 103.681 10.7569C103.828 10.5805 103.976 10.4037 104.071 10.1976C104.392 9.49957 104.035 8.69507 103.684 8.01132L103.189 7.05097ZM84.3283 21.7409C84.346 21.9998 84.6184 22.1936 84.8811 22.1863C85.1439 22.1791 85.3805 22.0112 85.5341 21.8006C85.6876 21.59 85.7718 21.3391 85.8539 21.0926L86.1248 20.2786C86.2003 20.0516 86.205 19.7047 85.9645 19.678C85.8777 19.6683 85.7948 19.7137 85.7236 19.7636C85.4541 19.9528 85.2577 20.2245 85.0667 20.4909L84.5462 21.2167C84.4333 21.3741 84.3152 21.5485 84.3283 21.7409ZM32.9767 18.3301C31.1483 15.0254 29.981 11.3659 29.5616 7.62325C29.5358 7.39311 29.2787 7.24403 29.0443 7.25204C28.8099 7.26004 28.597 7.38231 28.3977 7.50432C25.5674 9.23655 23.1581 11.6342 21.4263 14.442C21.251 14.7263 21.0782 15.0281 21.056 15.3601C21.0343 15.686 21.1603 16.0021 21.2902 16.3024C23.2006 20.7206 26.3863 24.4679 29.6202 28.0575C32.1109 30.8223 34.7772 33.6209 38.2501 35.0126C38.8114 35.2375 39.6267 35.3292 39.8647 34.7792C39.9339 34.6193 39.9302 34.4392 39.9266 34.2651L39.9265 34.2586C39.8882 32.3944 40.1028 30.5254 40.5627 28.717C40.6691 28.2986 40.7245 27.7343 40.328 27.553C38.8368 26.8708 37.8149 25.4953 36.8592 24.1755C35.4859 22.2787 34.1088 20.3762 32.9767 18.3301ZM36.2049 32.7755C35.9995 32.8296 35.7943 32.7017 35.6228 32.5777C32.462 30.2916 30.0126 27.1976 27.6059 24.1451L23.3588 18.7584C24.0757 18.3077 24.1667 17.3285 24.1824 16.4896C24.2027 15.3992 24.2175 14.2766 23.8185 13.2596C23.7298 13.0336 23.8453 12.7831 23.9689 12.5737C24.4992 11.6755 25.2346 10.8961 26.1046 10.3102C26.1888 10.2535 26.278 10.1971 26.3789 10.1831C26.6454 10.1459 26.8498 10.4017 26.9921 10.6271C27.5544 11.5171 28.3272 12.5238 29.3873 12.4505C29.7909 12.4226 30.0148 12.8919 30.1325 13.274C31.5968 18.026 34.3461 22.3121 37.5702 26.1255C37.9892 26.621 38.0943 27.2899 38.1985 27.9526C38.3146 28.6916 38.4296 29.4231 38.9773 29.8983C39.4449 30.304 39.3581 31.0326 39.2319 31.6344C39.2061 31.7575 39.1753 31.8894 39.0806 31.9735C39.0102 32.0359 38.9151 32.0619 38.8237 32.086L36.2049 32.7755ZM28.7107 11.3497C28.1308 10.9498 27.6299 10.4387 27.2441 9.85343C27.1606 9.72683 27.0796 9.58493 27.0942 9.43459C27.1102 9.27112 27.2348 9.14031 27.3588 9.03078C27.6649 8.76033 28.011 8.53391 28.3826 8.36088C28.5187 8.29751 28.6944 8.24604 28.8074 8.34405C28.874 8.40175 28.895 8.49394 28.9124 8.57969L29.448 11.2237C29.4796 11.38 29.3135 11.5208 29.1521 11.5253C28.9907 11.5298 28.8431 11.441 28.7107 11.3497ZM23.4118 16.4636C23.4005 16.9609 23.362 17.5191 22.9844 17.8485C22.9053 17.8578 22.8529 17.7722 22.8219 17.6998C22.5498 17.0642 22.274 16.4132 22.2311 15.7244C22.1883 15.0356 22.4222 14.2898 22.9924 13.8905C23.0696 13.8365 23.1828 13.7919 23.2509 13.8567C23.2782 13.8828 23.2899 13.9206 23.2999 13.9568C23.4549 14.519 23.4427 15.111 23.4294 15.6935L23.4118 16.4636ZM38.7973 33.0059C38.8889 33.0798 38.8986 33.2121 38.9011 33.3289L38.9283 34.6072C38.397 34.3165 37.8881 33.9861 37.4071 33.6198C37.316 33.5503 37.2158 33.4379 37.2716 33.3385C37.2993 33.2891 37.3569 33.2654 37.4105 33.2459C37.7542 33.1208 38.1097 33.0269 38.4708 32.9659C38.5825 32.947 38.7096 32.9351 38.7973 33.0059ZM38.8277 27.9706C38.8228 27.9129 38.8228 27.85 38.8576 27.8034C38.9493 27.6803 39.1484 27.7917 39.2326 27.92C39.4353 28.2289 39.48 28.6335 39.3496 28.9784C39.052 28.7265 38.8602 28.3563 38.8277 27.9706ZM103.607 16.6339C104.058 16.0731 104.881 15.9925 105.606 16.0099C105.775 16.014 105.95 16.0221 106.104 16.0915C106.533 16.2845 106.624 16.8379 106.639 17.3031C106.652 17.7263 106.649 18.1551 106.545 18.5659C106.441 18.9767 106.225 19.3725 105.88 19.6246C105.726 19.7379 105.546 19.8205 105.356 19.8519C105.062 19.9005 104.761 19.826 104.482 19.7234C104.109 19.5866 103.756 19.3989 103.436 19.1672C103.28 19.054 103.118 18.9058 103.113 18.7144C103.101 18.2729 103.151 17.8299 103.261 17.4018C103.331 17.1282 103.429 16.855 103.607 16.6339ZM104.777 19.4268C105.356 19.5909 105.972 19.1486 106.192 18.5946C106.411 18.0407 106.33 17.4185 106.209 16.8358C106.163 16.6121 105.921 16.4871 105.698 16.4273C105.352 16.3347 104.984 16.3224 104.633 16.3917C104.459 16.4262 104.28 16.4852 104.158 16.6126C104.091 16.6821 104.045 16.7678 104 16.8524L103.66 17.4854C103.601 17.5968 103.54 17.7091 103.505 17.8302C103.4 18.1924 103.539 18.5946 103.795 18.8738C104.052 19.153 104.41 19.3228 104.777 19.4268ZM97.0254 25.8271C97.5566 26.01 98.0381 26.3318 98.4074 26.7507C98.7248 27.1107 98.9666 27.578 98.8999 28.0507C98.8754 28.2242 98.8105 28.3897 98.7366 28.549C98.4564 29.1522 97.9745 29.7302 97.3127 29.8471C96.9655 29.9083 96.6076 29.8349 96.2737 29.7228C95.8876 29.5931 95.5194 29.4113 95.1828 29.1839C95.0043 29.0633 94.827 28.9201 94.7487 28.721C94.6947 28.5838 94.6931 28.4327 94.6951 28.2855C94.7001 27.9216 94.7246 27.5515 94.8531 27.2103C95.0158 26.7786 95.3341 26.4223 95.6716 26.1043C95.8073 25.9765 95.9512 25.8504 96.1255 25.7819C96.4108 25.6697 96.7356 25.7273 97.0254 25.8271ZM97.5685 28.9995C97.9524 28.6246 98.1757 28.0811 98.1149 27.5515C98.0541 27.0219 97.691 26.5249 97.183 26.3441C96.9719 26.269 96.7378 26.248 96.5215 26.3071C96.4049 26.3389 96.2954 26.3932 96.1933 26.4573C95.7561 26.7318 95.4491 27.2 95.3745 27.7061C95.3 28.2122 95.4592 28.7473 95.7992 29.1333C96.0169 29.3805 96.3722 29.4864 96.7014 29.4454C97.0306 29.4043 97.3326 29.2299 97.5685 28.9995ZM49.0971 22.705C49.0793 22.4553 48.741 22.3899 48.4875 22.3972C47.1565 22.4358 45.8272 22.5343 44.5053 22.6921C44.2881 22.718 44.2706 23.0636 44.4448 23.1941C44.6191 23.3246 44.8618 23.3004 45.0784 23.2699L49.0971 22.705ZM44.8421 24.3936C44.8536 24.265 45.0173 24.2185 45.1473 24.204L52.987 23.3277C53.1288 23.3118 53.2798 23.2975 53.4074 23.3605C53.535 23.4235 53.6173 23.596 53.5339 23.7103C53.4725 23.7946 53.3547 23.8117 53.25 23.8217L45.2315 24.5897C45.0647 24.6057 44.8275 24.5583 44.8421 24.3936ZM62.4154 25.697C61.9768 25.7922 61.5267 25.6359 61.1061 25.4808C59.7462 24.979 58.3914 24.4635 57.0422 23.9341C56.4976 23.7204 55.8999 24.0404 55.4101 24.3581C53.9925 25.2773 52.6277 26.2758 51.3243 27.3472C50.9895 27.6224 50.4744 27.4293 50.1368 27.1575C50.0655 27.1002 49.9954 27.039 49.925 26.9776L49.9247 26.9773L49.9246 26.9773L49.9246 26.9772C49.6616 26.7478 49.3952 26.5154 49.0551 26.4678C48.5322 26.3946 48.0722 26.7858 47.6933 27.149L45.25 29.4914C44.9214 29.8064 44.5755 30.3109 44.868 30.6589C45.061 30.8885 45.4152 30.8768 45.7154 30.8425C47.2829 30.6631 48.8427 30.4116 50.4019 30.1602C52.9789 29.7447 55.5544 29.3294 58.1608 29.2404C58.7384 29.2206 59.3164 29.217 59.8943 29.2134C60.2562 29.2111 60.6181 29.2088 60.98 29.2026C62.612 29.1745 64.2426 29.066 65.8637 28.8775C65.9421 28.8684 66.0314 28.8524 66.0721 28.7857C66.1028 28.7352 66.0951 28.6716 66.0864 28.6133L65.3997 24.0014C65.3649 23.7671 65.3039 23.4962 65.087 23.395C64.8678 23.2927 64.6096 23.4246 64.4297 23.585C64.1481 23.8361 63.9313 24.1694 63.7173 24.4983C63.3664 25.0378 63.0233 25.5651 62.4154 25.697ZM51.2647 28.2205C52.7312 27.0302 54.2603 25.9152 55.8438 24.8813C56.169 24.669 56.5642 24.4516 56.9276 24.591L60.7674 26.0639C61.4082 26.3097 62.1091 26.5587 62.767 26.3616C63.5318 26.1325 63.989 25.3813 64.3741 24.69C64.449 24.5556 64.6669 24.571 64.7748 24.6815C64.8827 24.792 64.91 24.9546 64.9322 25.1064L65.2133 27.0297C65.2564 27.325 65.2989 27.6315 65.2124 27.9174C65.1259 28.2033 64.872 28.463 64.5698 28.4572C59.6271 28.363 54.6749 28.7654 49.8143 29.656C49.6638 29.6836 49.5132 29.7116 49.3625 29.7397C48.2014 29.9561 47.036 30.1733 45.8559 30.1772C46.4257 29.3805 47.1477 28.7038 47.8647 28.0329C48.2584 27.6645 48.7506 27.2671 49.2792 27.3876C49.5645 27.4527 49.7834 27.6551 50.0012 27.8565C50.0711 27.9211 50.1408 27.9856 50.2126 28.0454C50.5082 28.2917 50.9659 28.463 51.2647 28.2205ZM114.676 41.6368C114.545 41.685 114.398 41.6521 114.265 41.6107C113.361 41.3302 112.627 40.7029 111.905 40.0865L111.904 40.0857C111.807 40.0025 111.71 39.9195 111.613 39.8375C110.417 38.8311 109.12 37.9426 107.746 37.1896C107.606 37.113 107.46 37.0323 107.374 36.8991C107.289 36.7658 107.291 36.5629 107.423 36.4739C108.039 36.0588 108.439 35.3465 108.468 34.6109C108.476 34.4149 108.7 34.2842 108.898 34.2999C109.096 34.3156 109.269 34.4332 109.431 34.5467L115.708 38.9444C115.83 39.03 115.962 39.1293 115.992 39.2742C116.016 39.3925 115.966 39.5121 115.915 39.6221C115.645 40.2116 115.333 40.783 114.984 41.331C114.905 41.4551 114.815 41.5856 114.676 41.6368ZM108.396 36.4199C108.322 36.5483 108.259 36.7341 108.378 36.8229L113.5 40.6295C113.781 40.8379 114.216 41.0333 114.437 40.7639C114.691 40.4545 114.928 40.1318 115.147 39.7975C115.207 39.7061 115.268 39.6016 115.246 39.4948C115.226 39.3973 115.143 39.3265 115.065 39.2639C113.185 37.7595 111.195 36.3897 109.115 35.1687L108.396 36.4199ZM105.847 38.7477C105.93 38.6077 106.03 38.4544 106.191 38.42C106.314 38.3937 106.439 38.4456 106.552 38.4998C107.168 38.7955 107.733 39.1962 108.214 39.6789C108.329 39.795 108.344 39.982 108.292 40.1367C108.241 40.2914 108.135 40.4216 108.031 40.548C107.864 40.7512 107.686 40.9625 107.439 41.059C107.173 41.163 106.863 41.1128 106.611 40.9789C106.359 40.845 106.157 40.6355 105.979 40.4145C105.746 40.1262 105.538 39.7804 105.574 39.4137C105.598 39.1733 105.724 38.9563 105.847 38.7477ZM106.926 40.3617C107.314 40.5106 107.562 40.3926 107.572 40.1415C107.579 39.9831 107.439 39.8611 107.311 39.7644L106.926 39.4719C106.799 39.3753 106.658 39.274 106.498 39.275C106.337 39.276 106.173 39.4395 106.239 39.5842C106.229 39.6541 106.538 40.2129 106.926 40.3617ZM105.395 43.4524C105.49 43.5035 105.59 43.5535 105.698 43.5558C105.806 43.558 105.923 43.4977 105.949 43.3946C106.011 43.1524 106.174 42.9515 106.333 42.755L106.384 42.6907C106.558 42.4733 106.726 42.2269 106.731 41.9498C106.736 41.6728 106.503 41.3774 106.225 41.4152C106.006 41.445 105.802 41.3032 105.643 41.1516C105.617 41.1274 105.592 41.1026 105.567 41.0777C105.434 40.9466 105.298 40.8133 105.122 40.7564C104.911 40.6888 104.625 40.7964 104.608 41.0141C104.575 41.4527 104.205 41.7828 103.863 42.0641C103.76 42.1483 103.853 42.3098 103.949 42.4013C104.38 42.8132 104.868 43.1678 105.395 43.4524ZM105.464 42.6169L104.789 42.1665C104.617 42.0519 104.631 41.7714 104.784 41.6335C104.937 41.4957 105.175 41.4851 105.37 41.5541C105.565 41.6231 105.727 41.7585 105.884 41.8912C105.989 41.979 106.003 42.1389 105.955 42.2658C105.908 42.3926 105.811 42.4942 105.716 42.5921C105.683 42.6256 105.647 42.6611 105.601 42.667C105.551 42.6733 105.505 42.6445 105.464 42.6169ZM110.811 42.6465L111.141 41.9547C111.242 41.7429 111.34 41.4808 111.204 41.2892C111.156 41.2227 111.087 41.1758 111.018 41.1304L109.818 40.3321C109.689 40.2461 109.548 40.1566 109.392 40.159C109.207 40.1619 109.052 40.2922 108.921 40.4207C108.724 40.6132 108.54 40.8184 108.371 41.0346C108.242 41.1992 108.136 41.47 108.312 41.5842L110.149 42.7735C110.294 42.8673 110.478 42.9637 110.63 42.882C110.719 42.8341 110.768 42.7374 110.811 42.6465ZM110.404 42.1569C110.327 42.1744 110.247 42.1551 110.171 42.1325C109.707 41.9946 109.283 41.7305 108.957 41.3771C108.849 41.2595 108.91 41.0519 109.048 40.9695C109.185 40.8871 109.364 40.9061 109.513 40.9676C109.609 41.0074 109.697 41.0627 109.784 41.1182C109.833 41.1486 109.881 41.179 109.93 41.2068C109.984 41.2368 110.039 41.2643 110.095 41.2918C110.253 41.3699 110.411 41.4481 110.518 41.5832C110.664 41.7659 110.634 42.1048 110.404 42.1569ZM111.024 42.9295C111.236 42.8799 111.301 42.6669 111.368 42.4455C111.423 42.2625 111.481 42.0738 111.624 41.9668C111.871 41.7826 112.221 41.9366 112.487 42.0928L113.333 42.5895C113.467 42.6687 113.605 42.7506 113.702 42.8725C113.799 42.9944 113.846 43.1671 113.779 43.3068C113.734 43.4001 113.648 43.4619 113.562 43.5242C113.492 43.5752 113.421 43.6266 113.371 43.6959C113.308 43.7848 113.284 43.8963 113.261 44.0064C113.231 44.1447 113.202 44.2808 113.096 44.3678C112.901 44.5261 112.611 44.3992 112.396 44.2694L111.204 43.5505C111.084 43.478 110.957 43.3984 110.898 43.2721C110.839 43.1458 110.887 42.9617 111.024 42.9295ZM112.587 43.6434C112.757 43.5859 112.895 43.461 113.026 43.3394C113.122 43.2513 112.994 43.1062 112.88 43.0429L112.15 42.6371C112.074 42.5948 111.968 42.5561 111.909 42.6198C111.719 42.8246 111.691 43.1589 111.845 43.3915C111.999 43.6241 112.32 43.7332 112.587 43.6434ZM104.21 43.6181C104.046 43.5727 103.88 43.5263 103.746 43.4364C103.539 43.2969 103.25 43.3307 103.033 43.4541C102.815 43.5775 102.653 43.7752 102.496 43.9683C102.409 44.0756 102.319 44.1874 102.286 44.3209C102.253 44.4543 102.292 44.6161 102.414 44.683L103.687 45.3836C103.784 45.4366 103.891 45.4914 103.999 45.4679C104.107 45.4444 104.181 45.3503 104.245 45.2625L104.573 44.8176C104.755 44.5699 104.946 44.2542 104.812 43.9777C104.705 43.7561 104.461 43.6881 104.21 43.6181ZM103.807 44.7707C103.74 44.7881 103.672 44.7564 103.61 44.7255L102.743 44.2898C102.909 44.0568 103.227 43.9674 103.514 43.9956C103.802 44.0238 104.069 44.15 104.329 44.2743L103.93 44.6829C103.895 44.7195 103.856 44.7577 103.807 44.7707ZM97.7975 27.3463C97.9318 27.5484 97.8898 27.8185 97.8007 28.0437C97.6832 28.3404 97.4848 28.6154 97.2044 28.7733C96.924 28.9311 96.5558 28.9542 96.2826 28.7845C96.0094 28.6149 95.8722 28.2375 96.0186 27.9536C96.0525 27.8879 96.0986 27.8298 96.1449 27.7716C96.1891 27.7159 96.2333 27.6602 96.2667 27.5979C96.2887 27.5569 96.3059 27.5134 96.323 27.47C96.3477 27.4073 96.3723 27.3448 96.4115 27.2901C96.5505 27.0957 96.8244 27.0575 97.0655 27.0609C97.3389 27.0647 97.6476 27.1205 97.7975 27.3463ZM97.1872 27.4747C96.8131 27.47 96.4623 27.7796 96.4252 28.147C96.4101 28.2972 96.4746 28.4838 96.6261 28.5045C96.7395 28.52 96.8391 28.4335 96.9154 28.3491C97.0767 28.1707 97.2153 27.9721 97.3268 27.7598C97.3643 27.6885 97.3973 27.5971 97.3481 27.5332C97.3122 27.4866 97.2464 27.4754 97.1872 27.4747ZM106.133 17.8453C106.104 17.5072 105.875 17.1747 105.542 17.09C105.119 16.9824 104.709 17.2763 104.374 17.5519C104.274 17.6334 104.171 17.7211 104.129 17.8416C104.057 18.0462 104.186 18.2617 104.312 18.4384C104.457 18.6407 104.612 18.8441 104.823 18.9779C105.034 19.1116 105.316 19.1635 105.537 19.0473C105.65 18.9881 105.738 18.8913 105.815 18.79C106.02 18.5178 106.162 18.1833 106.133 17.8453ZM105.195 18.712C105.052 18.7332 104.903 18.6761 104.798 18.5781C104.64 18.4312 104.577 18.1951 104.632 17.9879C104.69 17.7697 104.876 17.5895 105.098 17.5357C105.32 17.4819 105.569 17.5567 105.723 17.7235C105.717 17.7689 105.712 17.8146 105.707 17.8604C105.691 18.0158 105.675 18.1716 105.62 18.3176C105.549 18.5066 105.397 18.6821 105.195 18.712ZM93.8156 71.4459C94.5951 68.7239 96.0667 66.2535 97.5232 63.8174C97.7694 63.4056 98.0745 62.9522 98.5524 62.8741C98.7408 62.8433 98.8402 62.6412 98.9043 62.4636C99.6942 60.2764 99.7704 57.844 99.1187 55.6128C98.9327 54.9759 99.1617 54.3007 99.3883 53.6768L101.142 48.8462C100.96 48.5347 100.615 48.3979 100.266 48.2593C99.9733 48.1433 99.6778 48.026 99.4716 47.8043C98.8893 47.1778 99.3285 46.1817 99.7847 45.4605L107.78 32.8204C108.107 32.3042 108.823 32.1424 109.424 32.2799C110.025 32.4175 110.537 32.7906 111.031 33.1548L116.863 37.4543C117.906 38.2235 119.058 39.2061 118.998 40.4901C118.965 41.2006 118.553 41.8322 118.154 42.4248L113.533 49.2993C112.935 50.1882 112.863 51.2689 112.79 52.3545C112.757 52.8455 112.724 53.3375 112.642 53.8133C112.244 56.1343 110.678 58.0564 109.178 59.898L109.178 59.898L108.998 60.1181C107.446 62.027 105.892 64.1585 105.805 66.6051C105.701 69.521 104.298 72.369 102.038 74.2498L104.004 69.5408C104.472 68.421 104.905 67.0277 104.122 66.0948C103.768 65.6726 103.233 65.4493 102.719 65.2413L99.6654 64.0044C99.4548 63.9191 99.2377 63.8325 99.0101 63.8311C98.3006 63.8268 97.8786 64.5864 97.5909 65.2266C96.5957 67.4413 95.3247 69.5351 93.8156 71.4459ZM103.858 65.0508C104.382 65.2422 105.119 65.3584 105.367 64.8646C106.568 62.4749 107.802 60.0392 109.714 58.1536C110.815 57.0668 111.491 55.6167 111.873 54.1261C112.255 52.6355 112.363 51.0918 112.47 49.5579C112.006 49.7246 111.966 50.3425 111.968 50.8299C111.972 51.9042 111.782 52.9789 111.409 53.9881C111.331 54.1993 111.226 54.4275 111.017 54.5166C110.807 54.6057 110.499 54.4268 110.57 54.2129C111.109 52.5714 111.31 50.8222 111.157 49.1031C111.109 48.5701 111.009 47.9999 110.625 47.6222C110.667 48.4638 110.708 49.3092 110.622 50.1474C110.472 51.5978 109.946 52.9806 109.423 54.3442C109.356 54.5213 109.274 54.7143 109.101 54.7975C108.929 54.8807 108.662 54.7488 108.707 54.5648L109.489 51.3742C109.919 49.6198 110.342 47.7327 109.676 46.0515C109.341 46.0293 109.262 46.5024 109.292 46.8327C109.497 49.0952 108.863 51.3407 108.236 53.5262C108.163 53.7813 107.903 54.1004 107.702 53.9249C107.615 53.8492 107.611 53.7188 107.618 53.6047C107.658 52.962 107.836 52.3398 108.015 51.7183L108.015 51.7183L108.015 51.718C108.07 51.5252 108.125 51.3325 108.176 51.1392C108.648 49.3569 108.768 47.4848 108.528 45.658C108.115 46.1805 107.94 46.8434 107.775 47.4858L106.793 51.2992C106.35 53.0231 105.783 54.9183 104.244 55.8443C104.122 55.9181 103.98 55.9866 103.84 55.954C103.667 55.9133 103.568 55.7363 103.496 55.5754C102.514 53.3924 102.391 50.8456 103.159 48.5805C103.206 48.443 103.064 48.2994 102.918 48.288C102.771 48.2766 102.634 48.3553 102.514 48.4389C101.255 49.3163 100.772 50.9055 100.371 52.375L99.8387 54.3288C99.7608 54.6142 99.6826 54.9022 99.6663 55.1973C99.6416 55.6458 99.7603 56.0846 99.8783 56.5211C99.9057 56.6223 99.933 56.7234 99.9585 56.8244C100.471 58.8543 100.239 61.059 99.3162 62.9421C99.1801 63.2197 99.5394 63.4723 99.8324 63.5794L103.858 65.0508ZM105.848 46.4035C105.638 46.2608 105.413 46.0977 105.348 45.8543C105.249 45.4809 105.609 45.1059 105.997 45.0557C106.384 45.0054 106.764 45.1902 107.085 45.4102C107.538 45.7201 108.111 45.2476 108.45 44.8188C107.992 44.5488 107.556 44.1298 107.538 43.6041C107.52 43.0785 108.168 42.5779 108.598 42.8872C108.766 43.0073 108.968 43.0807 109.168 43.1534C109.468 43.2622 109.762 43.3692 109.927 43.6282C110.113 43.9229 110.047 44.3212 109.857 44.6138C109.666 44.9063 109.373 45.1163 109.088 45.3192C109.498 45.3594 109.898 45.5038 110.237 45.7349L110.608 44.6701C110.636 44.5875 110.667 44.5011 110.733 44.4428C110.86 44.3304 111.058 44.3652 111.22 44.4161C111.646 44.5496 112.064 44.7581 112.346 45.1012C112.627 45.4444 112.744 45.9429 112.548 46.3394C112.351 46.7359 111.796 46.9473 111.42 46.7082C111.342 46.6586 111.264 46.5924 111.186 46.5261C110.976 46.3488 110.766 46.1716 110.564 46.3134C111.182 46.7883 111.606 47.5015 111.725 48.2654C113.67 45.3415 115.593 42.4041 117.496 39.4535C117.678 39.1719 117.824 38.7279 117.528 38.566C116.265 37.874 115.148 36.9474 114.034 36.0229C112.627 34.856 111.225 33.6926 109.538 33.0094C109.431 32.966 109.314 32.9241 109.202 32.9532C109.084 32.9837 109.002 33.0845 108.928 33.1796C105.786 37.2283 102.965 41.5206 100.502 46.004C100.158 46.6295 100.618 47.375 101.058 47.9386C101.278 48.2202 101.702 48.5177 101.942 48.2524C102.244 47.918 102.74 47.7269 103.168 47.8762C103.596 48.0255 103.862 48.575 103.629 48.9597C103.461 49.2379 103.791 49.5472 104.079 49.7029C104.654 50.014 105.244 50.2983 105.846 50.5546C105.93 50.5903 106.028 50.6253 106.109 50.5849C106.187 50.5465 106.218 50.4553 106.243 50.3729L106.91 48.1064C107.02 47.7336 107.093 47.2498 106.769 47.0296L105.848 46.4035ZM117.786 40.0498C117.697 40.0198 117.616 40.1073 117.564 40.1842L112.567 47.5674C112.432 47.7659 112.295 47.9725 112.256 48.2082C112.216 48.4439 112.304 48.718 112.521 48.8229C112.881 48.9967 113.258 48.6315 113.489 48.3084L118.132 41.8134C118.476 41.3312 118.185 40.6719 117.89 40.1585C117.864 40.1141 117.835 40.0663 117.786 40.0498ZM103.718 49.9089C103.63 49.8457 103.499 49.8834 103.425 49.9624C103.351 50.0415 103.321 50.1498 103.294 50.2537C103.225 50.5093 103.157 50.7675 103.147 51.0317C103.136 51.2959 103.185 51.5585 103.234 51.8185L103.712 54.3859C103.732 54.4936 103.756 54.608 103.833 54.6864C103.91 54.7648 104.061 54.7818 104.124 54.6915C104.832 53.6691 105.55 52.6267 105.921 51.4434C105.967 51.2963 105.98 51.0894 105.834 51.0352C105.082 50.7558 104.368 50.3758 103.718 49.9089ZM109.243 43.5742C109.003 43.3487 108.686 43.2046 108.356 43.1714C108.056 43.1412 107.883 43.5577 108.02 43.8233C108.157 44.0888 108.46 44.2204 108.74 44.3313C108.938 44.4096 109.178 44.4833 109.351 44.3597C109.598 44.1821 109.465 43.7827 109.243 43.5742ZM107.27 46.5493C107.368 46.4807 107.381 46.3403 107.353 46.2249C107.25 45.7903 106.767 45.5683 106.334 45.4411C106.166 45.3918 105.958 45.3575 105.84 45.4848C105.741 45.5911 105.762 45.7671 105.847 45.8843C105.932 46.0014 106.065 46.0737 106.194 46.142L106.863 46.4979C106.991 46.5656 107.152 46.632 107.27 46.5493ZM111.079 44.983C110.937 45.1703 110.952 45.4427 111.07 45.6453C111.188 45.8479 111.393 45.9886 111.609 46.0844C111.683 46.1172 111.765 46.1461 111.844 46.1304C111.913 46.117 111.971 46.0714 112.013 46.0162C112.168 45.8122 112.093 45.505 111.916 45.3197C111.738 45.1344 111.486 45.0416 111.244 44.9548C111.202 44.9398 111.153 44.9253 111.115 44.9479C111.1 44.9565 111.089 44.9696 111.079 44.983ZM43.9429 61.9639C44.0356 61.2877 44.1655 60.5436 44.7037 60.1154C45.1328 59.774 45.7219 59.7195 46.273 59.709C48.0782 59.6748 49.8893 59.9642 51.5914 60.5589C52.1299 60.747 52.6934 60.9948 52.9879 61.4779C53.3066 62.001 53.2289 62.6608 53.1408 63.2649L51.7736 72.64C52.7163 69.925 53.3931 67.1201 53.7915 64.2771C53.9773 62.9507 54.0421 61.4288 53.1044 60.4613C51.6405 58.9511 51.6804 56.8 51.721 54.6128C51.756 52.7251 51.7916 50.8105 50.8614 49.2577C50.5578 48.7511 51.2345 48.2281 51.7973 48.0336C54.2779 47.1762 56.9222 46.7828 59.5487 46.8804C60.0302 50.6352 60.1604 54.4337 59.9373 58.212C59.8872 59.0594 61.1046 59.278 61.9592 59.1845L91.6076 55.9392C91.7559 55.9229 91.9164 55.9011 92.0216 55.7967C92.1444 55.6747 92.1504 55.4829 92.1487 55.311C92.0787 48.4538 91.8788 41.5979 91.5491 34.7481C91.5362 34.4808 91.5018 34.1738 91.2776 34.0233C91.1095 33.9104 90.8883 33.9254 90.686 33.9448L69.5241 35.9698C70.9143 29.4974 72.3124 22.9036 71.6783 16.3171C67.0523 19.3617 61.0829 19.3389 55.5325 19.0165C55.3018 19.0031 55.0706 18.9895 54.839 18.9758C49.4975 18.6607 43.9272 18.3321 39.1253 20.6129C41.6396 27.1936 44.1827 34.3766 42.0927 41.1003C41.9078 41.6952 41.6878 42.2795 41.4679 42.8636C41.1288 43.7641 40.79 44.664 40.5805 45.6008C40.2351 47.1451 40.287 48.8743 41.2129 50.165C42.5536 52.0341 43.619 54.1593 43.8621 56.4369C44.0927 58.5983 43.5774 60.7418 43.0627 62.883C42.5249 65.1201 41.9878 67.3546 42.3028 69.604C42.356 69.9845 42.4523 70.3939 42.7541 70.6364L43.9429 61.9639ZM46.0407 34.8039C46.6014 34.8235 46.8243 35.5183 46.8959 36.0676L47.4636 40.417C46.3552 39.8497 44.796 40.8125 44.8278 42.0446C43.8939 40.265 43.752 38.2257 43.6115 36.2069C43.581 35.7677 43.5505 35.3295 43.5119 34.8952C43.0995 30.2506 41.6816 25.7583 40.2723 21.3083C40.0714 20.6737 40.9393 20.2623 41.6057 20.1658C45.9785 19.533 50.4042 19.6203 54.832 19.7078C56.839 19.7474 58.8464 19.787 60.8495 19.7596C64.4087 19.7108 68.1748 19.3783 71.0619 17.323C71.7108 21.5934 70.8288 25.9019 69.958 30.1561C69.8402 30.7315 69.7226 31.306 69.609 31.8793C68.6557 36.6903 68.0069 41.8186 69.8308 46.3783C69.9076 46.5704 69.6456 46.7153 69.4407 46.7575C67.9407 47.0663 66.3897 47.1329 64.8682 46.9536C64.2155 46.8767 63.5697 46.7552 62.9238 46.6336C62.4374 46.5421 61.9509 46.4505 61.4614 46.378C57.776 45.8322 53.9292 46.3988 50.5657 47.9828C50.4309 48.0463 50.2705 48.0166 50.1294 47.9684C49.4482 47.7356 48.9623 47.1144 48.7198 46.4442C48.4773 45.7741 48.4426 45.0509 48.4103 44.34L48.2746 41.3586C48.2697 41.2515 48.2982 41.106 48.4067 41.1027C54.2987 40.921 60.184 40.5289 66.0473 39.9274C65.7994 38.558 65.7748 37.1495 65.9748 35.7724C66.101 34.9032 65.2728 34.1106 64.3911 33.9942C63.5093 33.8779 62.6372 34.2722 61.905 34.771C61.6311 34.9577 61.3681 35.1604 61.1053 35.363C60.6655 35.7019 60.2262 36.0405 59.7369 36.3029C59.4167 36.4747 59.0316 36.6132 58.6954 36.4745C58.2839 36.3047 58.1459 35.8215 58.0228 35.3901C58.015 35.363 58.0073 35.3361 57.9996 35.3095C57.8392 34.7539 57.5742 34.201 57.1081 33.8516C56.642 33.5022 55.9388 33.4152 55.4788 33.7723C55.0854 34.0776 54.9611 34.6063 54.8952 35.096C54.8893 35.1395 54.8836 35.1833 54.8779 35.2272C54.8195 35.6774 54.7592 36.1427 54.487 36.5036C54.1882 36.8999 53.5216 37.0697 53.194 36.6964C52.546 35.9581 51.409 35.8033 50.4549 36.0624C49.5008 36.3215 48.6844 36.9199 47.8928 37.506C47.4153 36.7684 47.3758 35.775 47.7933 35.0027L47.8002 34.9898C47.8787 34.8448 47.9689 34.6783 47.8995 34.5306C47.8565 34.4391 47.7617 34.383 47.6678 34.3433C47.1065 34.1056 46.3892 34.3087 46.0407 34.8039ZM62.911 47.2714C63.2249 47.3331 63.6108 47.4713 63.6302 47.7867C63.8153 50.7945 66.2368 53.4974 69.2141 54.1632C72.1913 54.8289 75.4909 53.4827 77.2268 51.004C78.9628 48.5253 79.0987 45.0819 77.6752 42.4162C76.1486 39.5574 72.4388 38.0392 69.3109 38.9933C69.1657 38.3616 69.1821 37.6943 69.358 37.0703C69.3907 36.9544 69.4332 36.8332 69.528 36.7576C69.6206 36.6837 69.7456 36.6668 69.8639 36.6528L78.6749 35.6052C79.4496 35.5131 80.2262 35.4209 81.0064 35.4145C84.3615 35.3872 87.714 35.057 91.0085 34.4292C91.5204 41.2146 91.7612 48.0198 91.7304 54.8239C91.7289 55.1466 91.6293 55.5755 91.3025 55.5849C85.7572 55.7445 80.2556 56.4645 74.7519 57.1848C71.0541 57.6688 67.3554 58.1528 63.6419 58.4671C62.8141 58.5372 61.9807 58.5988 61.1537 58.521C61.0038 58.5069 60.8348 58.4767 60.7533 58.3517C60.7041 58.2763 60.6986 58.1819 60.6945 58.0924L60.2001 47.2094C60.1937 47.0688 60.2023 46.8993 60.3257 46.8287C60.4074 46.7818 60.5098 46.7987 60.6024 46.8169L62.911 47.2714ZM47.74 44.7518C47.6524 45.317 47.5538 45.9529 47.9289 46.3806C49.3282 47.9758 50.7818 49.68 51.1537 51.7579C51.3274 52.7282 51.2528 53.7269 51.1785 54.7215C51.0849 55.9743 50.9918 57.2206 51.396 58.3959C51.4065 58.4266 51.4174 58.4573 51.4283 58.4881C51.5026 58.6976 51.5783 58.9112 51.5542 59.1299C51.5266 59.3808 51.3059 59.6332 51.054 59.5903L48.1288 59.0923C47.1601 58.9274 46.1367 58.7669 45.2165 59.1083C45.0386 59.1743 44.8338 59.0585 44.7385 58.8962C44.6431 58.7339 44.6306 58.5385 44.6223 58.3511C44.6124 58.1248 44.6049 57.8969 44.5974 57.6684C44.5501 56.2309 44.502 54.7665 43.8279 53.507L41.6774 49.4884C41.3599 48.8951 41.035 48.2754 41.0131 47.6048C40.9985 47.157 41.1209 46.7172 41.2423 46.2854L42.3152 42.4706C42.5411 41.6675 42.78 40.8388 43.3149 40.1939C44.6144 42.3701 44.7426 45.1856 43.6462 47.4681C43.5448 47.6793 43.8546 47.8967 44.0755 47.8125C44.2964 47.7284 44.4085 47.4895 44.4863 47.2688C44.7982 46.3849 44.9076 45.453 45.0171 44.5197C45.1057 43.7646 45.1944 43.0086 45.3906 42.2765C45.5107 41.8279 45.6841 41.3701 46.035 41.0614C46.3858 40.7527 46.9581 40.647 47.3257 40.936C47.6071 41.1572 47.6986 41.5352 47.7521 41.8863C47.8933 42.8126 47.8926 43.7599 47.7502 44.6861C47.7468 44.7078 47.7434 44.7298 47.74 44.7518ZM52.7882 37.2206C53.2193 37.5463 53.6416 37.8654 54.159 37.8063C54.8166 37.7312 55.2263 37.063 55.4173 36.4373C55.4591 36.3003 55.4963 36.1602 55.5336 36.0198C55.6666 35.5185 55.8007 35.0133 56.1491 34.6361C56.2503 34.5265 56.3961 34.4245 56.54 34.4674C56.6565 34.5022 56.7244 34.6187 56.7785 34.7264C56.8551 34.8789 56.9277 35.034 57.0003 35.1892C57.205 35.6268 57.4097 36.0645 57.7069 36.4447C58.1095 36.9598 58.7359 37.3649 59.3909 37.294C59.9768 37.2306 60.4345 36.8212 60.8806 36.4221C60.972 36.3402 61.063 36.2589 61.1545 36.181C62.229 35.2663 63.6284 34.7312 65.0467 34.6926C64.8555 35.1646 64.983 35.6794 65.1082 36.1846C65.1383 36.3062 65.1683 36.4272 65.1937 36.547C65.3939 37.4919 65.2927 38.4968 64.9079 39.3843L55.4348 40.1042C53.2233 40.2723 51.0063 40.4405 48.7896 40.3635C48.6496 40.3587 48.506 40.352 48.3772 40.2976C48.1339 40.1949 47.9893 39.9385 47.937 39.6825C47.8196 39.1083 48.0878 38.5103 48.4939 38.0833C48.9001 37.6563 49.4305 37.3687 49.9515 37.0883C50.4936 36.7965 51.0956 36.4949 51.7 36.6195C52.1023 36.7024 52.448 36.9636 52.7882 37.2206ZM70.7259 50.8423C69.2906 50.8131 68.047 49.6574 67.6209 48.3043C67.5339 48.028 67.7148 47.7249 67.9644 47.5732C68.214 47.4215 68.516 47.3857 68.8073 47.3534L70.9103 47.1202C70.2708 45.8933 69.8153 44.5731 69.5632 43.2159C69.5403 43.0928 69.5195 42.9635 69.5589 42.8445C69.6282 42.6357 69.8562 42.5257 70.0672 42.4557C71.7759 41.889 73.8276 42.577 74.8324 44.0542C75.8371 45.5313 75.7054 47.6664 74.5261 49.012C74.0155 49.5946 73.3465 50.0246 72.6417 50.3555C72.0408 50.6376 71.3913 50.8558 70.7259 50.8423ZM77.5367 43.5497C77.792 44.3821 77.8658 45.2576 77.9009 46.1266C77.3274 46.0409 76.7482 45.9922 76.1682 45.9811C76.0548 44.5194 75.0691 43.1987 73.7733 42.4823C72.4775 41.7659 70.9134 41.6111 69.4491 41.8564C69.4367 41.6504 69.3987 41.4354 69.3606 41.2204C69.2602 40.653 69.1597 40.0856 69.5314 39.6829C69.7559 39.4396 70.0979 39.3423 70.4257 39.282C71.9185 39.0075 73.5104 39.2952 74.8079 40.0739C76.1054 40.8526 77.0966 42.1151 77.5367 43.5497ZM67.0106 48.1567C67.0083 48.1837 67.0059 48.2103 67.0047 48.2356C66.995 48.4376 67.0904 48.6229 67.1848 48.8062C67.2101 48.8554 67.2353 48.9044 67.2585 48.9536C67.3679 49.1862 67.4209 49.4926 67.238 49.6748C66.7956 50.1156 66.4046 50.6066 66.0753 51.1351C65.9938 51.2658 65.7935 51.2765 65.6595 51.1986C65.5256 51.1206 65.4425 50.9816 65.3651 50.8485C64.8756 50.0061 64.3739 49.1249 64.3128 48.1557C64.3052 48.0352 64.3187 47.8893 64.427 47.8331C64.4747 47.8083 64.531 47.8076 64.5849 47.8074L66.7741 47.8009C66.8264 47.8007 66.8815 47.8012 66.927 47.8267C67.0344 47.887 67.0221 48.0269 67.0106 48.1567Z" fill="#00160A"/>
</g>
<defs>
<clipPath id="clip0_408_855">
<rect width="132" height="72" fill="white"/>
</clipPath>
</defs>
</svg>
