<svg width="132" height="72" viewBox="0 0 132 72" fill="none" xmlns="http://www.w3.org/2000/svg">
<path fill-rule="evenodd" clip-rule="evenodd" d="M87.8682 58.1328C79.6342 75.9761 49.837 75.4013 29.1038 63.2228C25.1442 60.897 11.5332 49.9344 24.9296 43.5329C38.3261 37.1315 34.0352 27.2989 44.8466 15.5714C57.3495 2.00895 80.6331 -4.94707 97.0083 13.3005C138.628 59.6795 90.6408 52.1245 87.8682 58.1328Z" fill="#4C90F6"/>
<path fill-rule="evenodd" clip-rule="evenodd" d="M33.0179 13.7575C33.0999 13.6752 33.1503 13.5638 33.1503 13.4411C33.1503 13.188 32.936 12.9829 32.6717 12.9829C32.4074 12.9829 32.1931 13.188 32.1931 13.4411C32.1931 13.6942 32.4074 13.8993 32.6717 13.8993C32.6925 13.8993 32.713 13.8981 32.7331 13.8956L33.0052 14.3738L33.015 14.3889C33.0611 14.4514 33.1498 14.4723 33.2216 14.4348C33.299 14.3945 33.3275 14.3017 33.2854 14.2276L33.0179 13.7575Z" fill="#E7EAEE"/>
<path fill-rule="evenodd" clip-rule="evenodd" d="M33.6047 10.4152C33.6466 10.3936 33.6922 10.3793 33.7394 10.3731L33.7655 10.3704C33.9734 10.356 34.1601 10.4985 34.1891 10.6991C34.6022 13.5627 34.4665 15.1452 33.6636 15.5168C32.7082 15.9588 31.4837 15.155 29.9384 13.1923L29.8326 13.0567C29.8167 13.0362 29.8024 13.0146 29.7897 12.9922C29.6433 12.7323 29.7447 12.408 30.0161 12.2679L33.6047 10.4152ZM33.7303 10.8709L30.2433 12.6712C30.2045 12.6912 30.19 12.7375 30.2109 12.7747C30.2127 12.7779 30.2148 12.7809 30.2171 12.7839L30.3198 12.9155C31.7322 14.7092 32.7946 15.4099 33.4553 15.1042C33.9573 14.8719 34.0891 13.4612 33.7398 10.9375L33.7303 10.8709Z" fill="#979797"/>
<path fill-rule="evenodd" clip-rule="evenodd" d="M30.3146 12.5462L33.0283 11.1457L32.864 10.8836C32.1051 9.69427 31.3467 9.23167 30.6035 9.61535C29.9714 9.94163 29.8805 10.8298 30.2412 12.2558L30.3146 12.5462ZM32.3563 10.9699L30.6364 11.8577L30.6174 11.7679C30.4152 10.7856 30.5001 10.2115 30.8122 10.0295L30.8316 10.0189C31.2544 9.80059 31.7572 10.082 32.3523 10.9638L32.3563 10.9699Z" fill="#979797"/>
<path fill-rule="evenodd" clip-rule="evenodd" d="M83.6241 55.6161C88.9746 56.2408 93.5652 59.4 97.3431 59.8327C101.542 60.3136 107.891 57.6724 114.367 60.7811C116.033 61.5812 117.402 62.5428 116.892 63.7378C116.003 65.8203 114.133 66.6363 110.037 67.2022L109.6 67.2601C106.433 67.6633 103.03 67.7609 94.4019 67.8155L91.4538 67.8369C80.9363 67.9245 74.8542 68.3961 66.978 68.9984L66.1752 69.0608C51.6714 70.2034 40.0943 70.0203 31.4436 68.7537L31.1823 68.715C24.1932 67.6668 19.9912 65.9331 17.94 63.966C16.7325 62.808 16.037 61.7282 16.0011 60.5742C15.9652 59.4201 17.7461 58.1514 18.7601 57.6724C21.5846 56.3381 22.5063 55.8542 27.9364 55.171C30.2745 54.8769 33.7773 54.9003 37.8262 54.7695C52.351 54.3 74.7899 54.5848 83.6241 55.6161Z" stroke="black" stroke-width="0.653387"/>
<path d="M43.7394 0.821475C43.6521 0.818784 43.5647 0.818875 43.4774 0.82175C41.326 0.89258 39.6373 2.60325 39.6762 4.65751L39.678 4.71986L39.7044 5.4896C39.7799 7.80167 39.8215 10.1046 39.829 12.3984L39.842 19.456C39.8449 21.9962 39.8433 24.2888 39.8355 26.5338L39.8249 28.9147C39.7831 36.4949 39.6703 41.8148 39.461 44.1304L39.4205 44.5634C39.1679 47.3935 39.1156 51.4584 39.2654 56.7486C39.2671 56.8098 39.2704 56.8709 39.2751 56.9319C39.4406 59.0767 41.373 60.6922 43.6083 60.5689L43.6761 60.5646L44.419 60.513C51.3628 60.0386 58.3067 59.8014 65.2507 59.8014C72.0474 59.8014 78.8963 60.0286 85.7973 60.4831C85.9969 60.4962 86.1972 60.4974 86.397 60.4866C89.0134 60.3448 91.0207 58.2192 90.9154 55.7207L90.9116 55.6449L90.8592 54.7438C90.3961 46.6265 90.1563 38.5092 90.1397 30.3919L90.1388 29.49C90.1388 23.5736 90.4282 15.4596 91.0067 5.14424C91.0132 5.02868 91.0145 4.91291 91.0108 4.79724C90.9381 2.55806 89.002 0.794479 86.6711 0.827653L86.6003 0.82921L83.0722 0.931626C75.0565 1.15798 69.2199 1.27626 65.5586 1.28643L64.931 1.2871L64.2854 1.2855C60.5479 1.27014 54.7619 1.14742 46.9241 0.917371L43.7394 0.821475Z" fill="white"/>
<path fill-rule="evenodd" clip-rule="evenodd" d="M86.327 0.610971C86.0443 0.759233 85.6719 0.863523 85.2096 0.923698C86.3995 1.0249 87.335 1.00128 88.0162 0.852932L87.8688 0.835478C87.3892 0.777484 86.8753 0.702648 86.327 0.610971Z" fill="#E7EAEE"/>
<path fill-rule="evenodd" clip-rule="evenodd" d="M41.5741 55.2335L41.6072 55.2347C41.8129 55.2484 41.9579 55.4021 41.939 55.5718C41.9173 55.7661 41.7005 55.9546 41.4637 55.9702C41.2755 55.9826 41.1448 55.844 41.1657 55.6288C41.1876 55.4031 41.3723 55.2343 41.5741 55.2335Z" fill="#E7EAEE"/>
<path fill-rule="evenodd" clip-rule="evenodd" d="M45.3401 58.1836L45.3732 58.1848C45.5789 58.1984 45.7239 58.3522 45.705 58.5219C45.6833 58.7162 45.4665 58.9047 45.2297 58.9203C45.0415 58.9327 44.9108 58.7941 44.9317 58.5789C44.9536 58.3532 45.1383 58.1844 45.3401 58.1836Z" fill="#E7EAEE"/>
<path fill-rule="evenodd" clip-rule="evenodd" d="M65.2923 57.9897C57.1223 59.7161 72.4625 59.4111 78.4467 59.0329C81.7035 58.8271 84.304 60.3847 85.7973 60.4831C85.9969 60.4962 86.1972 60.4974 86.3969 60.4866C89.0134 60.3448 91.0206 58.2192 90.9154 55.7207L90.9115 55.6449L90.8592 54.7438C90.396 46.6265 90.1562 38.5092 90.1397 30.3919L90.1387 29.4899C90.1387 23.5736 90.4281 15.4595 91.0066 5.14421C91.0131 5.02865 91.0145 4.91288 91.0107 4.79721C90.938 2.55804 86.4564 53.5176 65.2923 57.9897Z" fill="#E7EAEE"/>
<path d="M89.5238 55.903L89.5527 55.9041C89.7015 55.9155 89.8234 56.0639 89.8058 56.2452C89.7864 56.4458 89.6057 56.6262 89.4253 56.6398C89.2985 56.6494 89.1914 56.519 89.2104 56.2948C89.2298 56.0654 89.3798 55.9065 89.5238 55.903Z" fill="white"/>
<path d="M88.6132 56.2486C88.5669 56.7967 88.9407 57.2519 89.4725 57.2117C89.9506 57.1755 90.3566 56.7702 90.4024 56.2982C90.4501 55.8067 90.0911 55.3695 89.5906 55.3317C89.0818 55.2932 88.6582 55.716 88.6132 56.2486Z" fill="#00160A"/>
<path d="M89.5238 55.903L89.5527 55.9041C89.7015 55.9155 89.8234 56.0639 89.8058 56.2452C89.7864 56.4458 89.6057 56.6262 89.4253 56.6398C89.2985 56.6494 89.1914 56.519 89.2104 56.2948C89.2298 56.0654 89.3798 55.9065 89.5238 55.903Z" fill="#00160A"/>
<path d="M84.4635 4.12739C86.3543 4.12739 87.8871 5.59493 87.8871 7.40524C87.8871 7.47299 87.8849 7.54073 87.8805 7.60836L87.8303 8.41136C87.7383 9.93544 87.6465 11.745 87.555 13.8399L87.541 14.1754C87.3174 19.8109 87.3103 33.1434 87.5198 54.1729C87.5378 55.9831 86.0197 57.4646 84.129 57.4818C84.0829 57.4823 84.0368 57.4818 83.9908 57.4804L46.4302 56.3709C44.691 56.3196 43.2687 55.0274 43.124 53.3673L43.0921 52.9924C42.5975 47.0227 42.568 39.4002 43.0038 30.1248L43.0677 28.7946C43.2903 23.9136 43.3077 16.8048 43.1201 7.46829C43.0841 5.67718 44.5556 4.19401 46.4183 4.12956L46.5101 4.12754L84.4635 4.12739Z" fill="white"/>
<path fill-rule="evenodd" clip-rule="evenodd" d="M59.2102 42.7827C60.8696 42.8496 62.5736 42.5678 64.0514 41.8765C65.9022 41.0107 67.2949 39.5581 68.0658 37.4751C69.0811 34.7317 68.7081 31.7652 67.2485 29.1542C65.9493 26.8303 63.9067 25.0617 62.0239 24.6243C62.0239 24.6243 67.2485 31.6608 66.5 35.5074C65.3556 41.3889 59.2102 42.7827 59.2102 42.7827Z" fill="#E7EAEE"/>
<path fill-rule="evenodd" clip-rule="evenodd" d="M60.4169 34.5192C61.2245 34.84 61.4711 35.4359 61.1566 36.3071L61.1385 36.3558C59.0935 41.7318 56.6819 41.7807 58.7455 36.3558C58.9955 35.6985 58.9336 35.1943 58.5596 34.8432C59.2205 34.7148 59.8396 34.6067 60.4169 34.5192Z" fill="#E7EAEE"/>
<path fill-rule="evenodd" clip-rule="evenodd" d="M47.6086 28.2351C48.1377 26.7299 48.9104 25.5984 50.3544 24.7038L50.5378 24.5925C50.8494 24.4052 51.2334 24.1932 51.5458 24.338C51.9427 24.522 52.5174 25.1927 52.1677 25.456C51.9306 25.6345 50.9546 25.8243 50.2189 26.4414C49.3503 27.1699 48.7252 28.3438 48.7252 28.6313C48.7252 29.5691 47.2962 29.1239 47.6086 28.2351Z" fill="#E7EAEE"/>
<path fill-rule="evenodd" clip-rule="evenodd" d="M45.9724 6.78195C44.156 11.557 44.1684 12.5044 44.0594 11.6814C43.7069 9.01964 43.441 7.2705 43.8598 6.208C44.3901 4.86284 45.7193 4.59824 46.0617 4.75436C46.7856 5.08444 45.9724 6.78195 45.9724 6.78195Z" fill="#E7EAEE"/>
<path fill-rule="evenodd" clip-rule="evenodd" d="M75.8565 31.322L75.2521 31.3042C74.5352 31.2868 74.0185 31.2909 73.5849 31.3233C73.2368 31.3493 72.9769 31.3948 72.8298 31.4394L72.8007 31.4487L72.7978 31.4618C72.7816 31.5397 72.7699 31.6439 72.7648 31.7698L72.7633 31.8181C72.7536 32.1961 72.8012 32.7011 72.8961 33.2651C72.9739 33.7276 73.0801 34.2079 73.1908 34.6128L73.2186 34.7124C73.2616 34.8635 73.303 34.9949 73.3393 35.0971L73.3524 35.1336L73.3683 35.1393C73.5909 35.2151 74.0336 35.224 74.887 35.1638L75.4667 35.1205C75.8572 35.093 76.1418 35.0811 76.4226 35.0844L79.1469 35.1391C79.5281 35.1459 79.8724 35.1512 80.2098 35.1555L80.8218 35.1622C82.3501 35.2473 84.0298 35.1834 84.2387 34.8192C84.876 33.7083 85.1764 31.4205 84.876 31.4052C84.3353 31.3777 83.6809 31.3452 83.37 31.3491L82.6522 31.3616L82.0012 31.3666C81.7041 31.3682 81.3939 31.3691 81.0613 31.3694L77.3275 31.3611C77.0848 31.3595 76.8471 31.3539 76.4186 31.3403L75.8565 31.322Z" fill="#E7EAEE"/>
<path fill-rule="evenodd" clip-rule="evenodd" d="M43.7669 0.00237629L47.2277 0.106354C55.3804 0.344471 61.2817 0.46488 64.9316 0.467582L65.5575 0.466911C69.467 0.456029 75.8735 0.321362 84.777 0.0629096L86.5737 0.010081C89.4086 -0.0742899 91.7781 2.05757 91.8662 4.77171C91.8707 4.91052 91.8691 5.04944 91.8613 5.18812L91.8101 6.10935C91.2665 15.9741 90.9947 23.7676 90.9947 29.4899C90.9947 37.8929 91.2344 46.296 91.7138 54.699L91.7661 55.5993C91.9423 58.5816 89.5601 61.1359 86.4453 61.3047C86.2098 61.3174 85.9738 61.3161 85.7385 61.3006C78.857 60.8474 72.0277 60.6208 65.2507 60.6208C58.327 60.6208 51.4034 60.8573 44.4799 61.3303L43.7381 61.3819C41.0039 61.5753 38.6235 59.61 38.4215 56.9922C38.4158 56.9185 38.4119 56.8446 38.4098 56.7707L38.3896 56.0195C38.2647 51.0668 38.4835 47.2252 38.7271 44.4948L38.7553 44.1924C39.1301 40.3387 39.1556 27.0341 39.145 18.9555L39.1339 13.1626C39.1339 10.6248 38.9325 8.07561 38.8488 5.51517L38.8225 4.7467C38.7315 2.21377 40.8024 0.0898106 43.448 0.00271075C43.5542 -0.000788397 43.6606 -0.000899946 43.7669 0.00237629ZM43.7394 0.821474C43.6521 0.818783 43.5647 0.818875 43.4774 0.821749C41.326 0.89258 39.6372 2.60325 39.6762 4.65751L39.6779 4.71986L39.7043 5.4896C39.7799 7.80167 39.8215 10.1046 39.829 12.3984L39.842 19.456C39.8449 21.9962 39.8433 24.2888 39.8355 26.5338L39.8249 28.9147C39.783 36.4949 39.6703 41.8148 39.461 44.1304L39.4205 44.5634C39.1679 47.3935 39.1156 51.4584 39.2654 56.7486C39.2671 56.8098 39.2704 56.8709 39.2751 56.9319C39.4406 59.0767 41.373 60.6922 43.6083 60.5689L43.6761 60.5646L44.419 60.513C51.3628 60.0386 58.3067 59.8014 65.2507 59.8014C72.0474 59.8014 78.8963 60.0286 85.7973 60.4831C85.9969 60.4962 86.1972 60.4974 86.397 60.4866C89.0134 60.3448 91.0206 58.2192 90.9154 55.7207L90.9116 55.6449L90.8592 54.7438C90.3961 46.6265 90.1562 38.5092 90.1397 30.3919L90.1388 29.49C90.1388 23.5736 90.4281 15.4596 91.0067 5.14424C91.0132 5.02868 91.0145 4.91291 91.0108 4.79723C90.9381 2.55806 89.002 0.794478 86.6711 0.827653L86.6003 0.829209L83.0722 0.931625C75.0565 1.15798 69.2198 1.27626 65.5586 1.28643L64.931 1.2871L64.2854 1.2855C60.5479 1.27013 54.7619 1.14742 46.9241 0.91737L43.7394 0.821474Z" fill="#00160A"/>
<path fill-rule="evenodd" clip-rule="evenodd" d="M84.4635 4.12739C86.3543 4.12739 87.8871 5.59493 87.8871 7.40524C87.8871 7.47299 87.8849 7.54073 87.8805 7.60836L87.8303 8.41136C87.7383 9.93544 87.6465 11.745 87.555 13.8399L87.541 14.1754C87.3174 19.8109 87.3103 33.1434 87.5198 54.1729C87.5378 55.9831 86.0197 57.4646 84.129 57.4818C84.0829 57.4823 84.0368 57.4818 83.9908 57.4804L46.4302 56.3709C44.691 56.3196 43.2687 55.0274 43.124 53.3673L43.0921 52.9924C42.5975 47.0227 42.568 39.4002 43.0038 30.1248L43.0677 28.7946C43.2903 23.9136 43.3077 16.8048 43.1201 7.46829C43.0841 5.67718 44.5556 4.19401 46.4183 4.12956L46.5101 4.12754L84.4635 4.12739ZM84.4635 4.94685H46.5431C46.5266 4.94685 46.5101 4.94701 46.4937 4.94731C45.0758 4.97343 43.9486 6.09505 43.9758 7.45253L44.0084 9.16251C44.1625 17.7717 44.1318 24.3767 43.9158 28.9825L43.8727 29.8682C43.4146 39.4403 43.4499 47.2523 43.9769 53.2991C44.0839 54.5262 45.1215 55.4852 46.4 55.5496L46.4566 55.5519L84.0172 56.6614C84.0517 56.6624 84.0863 56.6627 84.1208 56.6624C85.5389 56.6495 86.6775 55.5384 86.6639 54.1807L86.6335 51.0197C86.4518 31.381 86.4737 18.983 86.6998 13.8057L86.7582 12.5083C86.8473 10.59 86.9366 8.93984 87.0262 7.55758C87.0295 7.50686 87.0312 7.45606 87.0312 7.40524C87.0312 6.04751 85.8816 4.94685 84.4635 4.94685Z" fill="#00160A"/>
<path fill-rule="evenodd" clip-rule="evenodd" d="M45.2313 2.43366C45.2853 2.99077 44.8637 3.43785 44.2956 3.40042C43.776 3.36619 43.319 2.96897 43.2657 2.49061L43.2625 2.45564C43.2295 1.97969 43.6103 1.57509 44.1213 1.52319L44.1599 1.51997C44.7047 1.48407 45.1791 1.89639 45.2313 2.43366ZM44.2263 2.09139L44.1932 2.09259C43.9876 2.10624 43.8425 2.26 43.8614 2.42971C43.8831 2.624 44.0999 2.81248 44.3367 2.82808C44.5249 2.84048 44.6556 2.70188 44.6347 2.48666C44.6128 2.26101 44.4281 2.09221 44.2263 2.09139Z" fill="#00160A"/>
<path fill-rule="evenodd" clip-rule="evenodd" d="M40.255 5.62922C40.2057 6.28351 40.6048 6.82908 41.1971 6.77877C41.7308 6.73344 42.173 6.23801 42.2218 5.67349L42.2245 5.63486C42.2541 5.0826 41.8927 4.5899 41.3696 4.52475L41.3328 4.5209C40.7632 4.47252 40.3032 4.98793 40.255 5.62922ZM41.2598 5.09153L41.2889 5.09289C41.481 5.10934 41.6494 5.33963 41.6247 5.62616C41.5985 5.92882 41.3668 6.18846 41.1442 6.20737C40.9801 6.2213 40.8269 6.0118 40.8526 5.67043C40.8783 5.32871 41.0781 5.09366 41.2598 5.09153Z" fill="#00160A"/>
<path fill-rule="evenodd" clip-rule="evenodd" d="M85.5467 2.43366C85.4927 2.99077 85.9143 3.43785 86.4824 3.40042C87.002 3.36619 87.459 2.96897 87.5123 2.49061L87.5155 2.45564C87.5485 1.97969 87.1677 1.57509 86.6567 1.52319L86.6181 1.51997C86.0733 1.48407 85.5989 1.89639 85.5467 2.43366ZM86.5518 2.09139L86.5849 2.09259C86.7905 2.10624 86.9356 2.26 86.9166 2.42971C86.895 2.624 86.6781 2.81248 86.4414 2.82808C86.2532 2.84048 86.1225 2.70188 86.1434 2.48666C86.1653 2.26101 86.35 2.09221 86.5518 2.09139Z" fill="#00160A"/>
<path fill-rule="evenodd" clip-rule="evenodd" d="M89.138 4.57683C88.6099 4.80725 88.4212 5.38016 88.742 5.83567C89.0354 6.25224 89.6234 6.43711 90.0803 6.245L90.1134 6.23034C90.5579 6.02251 90.729 5.50466 90.5174 5.05267L90.5008 5.0189C90.2576 4.54652 89.6472 4.35462 89.138 4.57683ZM89.9535 5.24612L89.9691 5.27436C90.0608 5.45267 89.9959 5.64971 89.8338 5.71786C89.6482 5.79589 89.3692 5.70817 89.2355 5.51835C89.1293 5.36747 89.1878 5.18986 89.3918 5.10085C89.6056 5.00752 89.8507 5.07815 89.9535 5.24612Z" fill="#00160A"/>
<path fill-rule="evenodd" clip-rule="evenodd" d="M40.7769 54.9379C40.3603 55.3326 40.3813 55.9347 40.8406 56.2544C41.2606 56.5468 41.8773 56.522 42.2402 56.1873L42.2662 56.1624C42.612 55.817 42.5936 55.2727 42.2382 54.9194L42.2109 54.8933C41.8188 54.5315 41.1786 54.5572 40.7769 54.9379ZM41.7745 55.2915L41.799 55.3128C41.9469 55.4494 41.9541 55.6565 41.8254 55.7752C41.678 55.9112 41.3853 55.923 41.194 55.7897C41.0418 55.6838 41.0353 55.4971 41.1963 55.3446C41.365 55.1847 41.6198 55.1684 41.7745 55.2915Z" fill="#00160A"/>
<path fill-rule="evenodd" clip-rule="evenodd" d="M44.5429 57.8879C44.1263 58.2827 44.1473 58.8847 44.6066 59.2045C45.0266 59.4969 45.6433 59.4721 46.0062 59.1374L46.0322 59.1124C46.378 58.7671 46.3596 58.2227 46.0042 57.8694L45.9769 57.8433C45.5848 57.4815 44.9446 57.5072 44.5429 57.8879ZM45.5405 58.2416L45.565 58.2628C45.7129 58.3995 45.7201 58.6065 45.5913 58.7253C45.4439 58.8613 45.1513 58.873 44.9599 58.7398C44.8078 58.6338 44.8013 58.4472 44.9622 58.2947C45.1309 58.1348 45.3857 58.1184 45.5405 58.2416Z" fill="#00160A"/>
<path fill-rule="evenodd" clip-rule="evenodd" d="M86.7583 58.0787C86.2801 58.5406 86.2652 59.2183 86.7721 59.5653C87.2363 59.883 87.933 59.8181 88.3508 59.4241C88.784 59.0158 88.7984 58.3606 88.3747 57.9633C87.946 57.5613 87.2244 57.6285 86.7583 58.0787ZM87.9346 58.358L87.9589 58.3794C88.1345 58.5442 88.1282 58.8305 87.931 59.0164C87.7185 59.2168 87.3459 59.2515 87.1214 59.0978C86.9396 58.9734 86.9454 58.7095 87.1815 58.4815C87.4211 58.25 87.7535 58.2118 87.9346 58.358Z" fill="#00160A"/>
<path fill-rule="evenodd" clip-rule="evenodd" d="M88.6132 56.2486C88.5669 56.7967 88.9407 57.2519 89.4725 57.2117C89.9506 57.1755 90.3566 56.7702 90.4024 56.2982C90.4501 55.8067 90.0911 55.3695 89.5906 55.3317C89.0818 55.2932 88.6582 55.716 88.6132 56.2486ZM89.5238 55.9031L89.5526 55.9041C89.7015 55.9155 89.8234 56.064 89.8058 56.2452C89.7863 56.4458 89.6056 56.6263 89.4252 56.6399C89.2985 56.6495 89.1914 56.5191 89.2103 56.2949C89.2297 56.0655 89.3798 55.9065 89.5238 55.9031Z" fill="#00160A"/>
<path fill-rule="evenodd" clip-rule="evenodd" d="M53.0735 60.3389C53.3051 60.2937 53.5311 60.4368 53.5783 60.6585C53.6256 60.8802 51.4924 61.3479 51.2684 61.4947C50.9243 61.7204 50.9001 62.1869 51.1643 63.1214L51.2205 63.3132L51.3897 63.8645C51.6159 64.6126 51.6698 64.9026 51.6284 65.2711C51.5532 65.9398 51.4169 66.2103 50.5585 66.1776L50.4326 66.1715C50.1346 66.1593 49.4694 66.0888 48.8961 66.1418L48.511 66.1776C46.9694 66.3131 46.2279 66.3884 45.5284 65.7735C44.9925 65.3024 44.8657 64.6766 44.9218 63.6249L44.9322 63.4536L44.9707 62.926C45.0087 62.3631 45.0018 62.1143 44.936 61.8948C44.8648 61.6572 44.1522 60.7469 44.3885 60.7469C45.1161 60.7469 45.5815 61.0773 45.7587 61.6688L45.7772 61.7339C45.8641 62.0579 45.868 62.3674 45.8215 63.0282L45.7845 63.5338C45.7251 64.4345 45.8059 64.9049 46.1073 65.1699C46.5562 65.5645 46.9967 65.6866 47.9117 65.5979C47.9117 65.5979 49.8934 65.5645 50.0945 65.5937L50.1785 65.5979C50.6476 65.624 50.9253 65.3905 50.9486 65.1835L50.9521 65.1456C50.9684 64.9226 50.9102 64.6564 50.7166 64.0199L50.5585 63.5045L50.5482 63.4697C50.3754 62.8866 50.2932 62.4727 50.3015 62.0835C50.3132 61.5419 50.3462 61.1062 50.7848 60.8186C51.1766 60.5617 51.5224 60.4833 52.2461 60.4252L52.5531 60.402C52.7985 60.3827 52.9286 60.3672 53.0735 60.3389Z" fill="#00160A"/>
<path fill-rule="evenodd" clip-rule="evenodd" d="M86.0868 60.5142C86.3211 60.4846 86.5361 60.6426 86.5669 60.8669C86.5978 61.0913 86.4174 61.3831 86.1985 61.3266C84.409 60.8647 84.68 63.7178 84.68 63.7178C84.6612 64.1418 84.6327 64.355 84.5527 64.5921C84.408 65.0215 84.1048 65.3033 83.6342 65.3814C82.6836 65.5392 81.8108 65.5844 81.0435 65.4345C79.8959 65.2102 79.1826 64.5492 79.1587 63.4224L79.1581 63.3637C79.376 61.395 78.0042 61.4395 77.8815 61.0761C77.7589 60.7127 78.2285 60.7741 78.445 60.8647C79.464 61.291 79.823 62.1262 79.8423 63.2971L79.8428 63.3637C79.8428 64.096 80.4379 64.5741 81.2382 64.7305C81.8495 64.85 82.5693 65.0466 83.3816 64.919L83.488 64.9018C83.9728 64.7305 83.9728 63.0631 83.9728 63.0631C83.9781 62.9275 83.9831 62.839 83.9913 62.7314L84.0019 62.6104C84.1329 61.2959 84.6018 60.7013 86.0868 60.5142Z" fill="#00160A"/>
<path fill-rule="evenodd" clip-rule="evenodd" d="M44.5401 57.8861C44.1247 58.2796 44.1475 58.8815 44.6079 59.2025C45.0289 59.496 45.6456 59.473 46.0076 59.1394L46.0335 59.1145C46.3784 58.7702 46.3583 58.2259 46.0017 57.8717L45.9743 57.8455C45.581 57.4827 44.9408 57.5066 44.5401 57.8861Z" fill="#00160A"/>
<path fill-rule="evenodd" clip-rule="evenodd" d="M45.5397 58.2424L45.5643 58.2637C45.7126 58.4007 45.7205 58.6078 45.5921 58.7261C45.445 58.8616 45.1524 58.8726 44.9605 58.7388C44.8081 58.6325 44.801 58.4459 44.9615 58.2939C45.1297 58.1345 45.3846 58.1188 45.5397 58.2424Z" fill="#00160A"/>
<path d="M87.9337 58.3592L87.958 58.3806C88.1342 58.5459 88.1288 58.8322 87.9321 59.0176C87.7201 59.2173 87.3474 59.251 87.1223 59.0966C86.9401 58.9717 86.9451 58.7079 87.1806 58.4805C87.4196 58.2497 87.752 58.2124 87.9337 58.3592Z" fill="white"/>
<path fill-rule="evenodd" clip-rule="evenodd" d="M50.1534 23.1848C49.9558 23.2505 49.7776 23.3396 49.5573 23.4695L49.3882 23.5711L49.3044 23.6222C48.0278 24.4111 47.1756 25.3922 46.5693 26.7207L46.5369 26.7926L46.5126 26.7857C46.3516 26.7405 46.2058 26.7183 46.0498 26.7307C45.7174 26.7572 45.4075 26.9479 45.2968 27.3034C45.1239 27.8586 45.1953 28.4936 45.4197 29.1436L45.4618 29.2627C45.6808 29.8653 45.9232 30.2742 46.3262 30.3935C46.8619 30.5522 48.7127 29.8498 49.3581 29.2124C49.8185 28.7577 49.6341 28.2016 49.196 27.8807L49.1557 27.8522L49.1134 27.8241L49.0654 27.7943L49.0975 27.7393C49.1199 27.7016 49.1433 27.6632 49.1678 27.6244C49.4295 27.2089 49.7567 26.816 50.0883 26.5379C50.2159 26.4309 50.3636 26.3327 50.5319 26.2411C50.7923 26.0994 51.8309 25.7091 52.0057 25.5774C52.5673 25.1545 52.5023 24.5421 52.1472 24.0112C51.9263 23.681 51.579 23.3716 51.2433 23.216C50.8907 23.0525 50.5218 23.0623 50.1534 23.1848Z" fill="#00160A"/>
<path fill-rule="evenodd" clip-rule="evenodd" d="M50.9076 23.8797C51.3044 24.0637 51.8791 24.7344 51.5295 24.9977C51.2924 25.1762 50.3164 25.366 49.5806 25.9831C48.7121 26.7116 48.0869 27.8855 48.0869 28.173L48.186 28.2086C48.7276 28.4082 48.9339 28.5716 48.805 28.699C48.2306 29.2663 46.6694 29.7232 46.5538 29.6889C46.4401 29.6552 45.7665 28.3761 46.0349 27.514C46.0708 27.3988 46.3826 27.4864 46.9704 27.7768C47.4995 26.2716 48.2721 25.1401 49.7161 24.2455L49.8996 24.1342C50.2111 23.9469 50.5952 23.7349 50.9076 23.8797Z" fill="#FFD951"/>
<path fill-rule="evenodd" clip-rule="evenodd" d="M51.3221 40.1565C48.1512 36.8387 47.9677 31.1789 51.3933 27.5341C53.5215 25.2697 58.5237 23.8112 62.0239 24.6243C63.9067 25.0617 65.9493 26.8303 67.2485 29.1542C68.7082 31.7652 69.0811 34.7317 68.0658 37.4751C67.2949 39.558 65.9022 41.0106 64.0514 41.8765C62.5736 42.5678 60.8696 42.8495 59.2102 42.7826C56.2157 42.662 52.4921 41.3806 51.3221 40.1565ZM66.4939 29.5409C65.3008 27.4067 63.4415 25.7969 61.8221 25.4207L61.7258 25.399C58.5329 24.7057 53.9271 26.0633 52.0295 28.0823C48.9055 31.4062 49.0736 36.5899 51.9535 39.6033C52.9474 40.6432 56.459 41.8516 59.2462 41.9639C60.772 42.0254 62.3363 41.7668 63.6756 41.1402C65.3289 40.3668 66.5645 39.078 67.259 37.2014C68.1889 34.6889 67.8457 31.9589 66.4939 29.5409ZM64.8451 37.3924C66.7392 34.2089 64.1716 27.335 60.5854 26.7613C57.2144 26.2221 55.9366 27.005 54.4828 28.212L54.2017 28.448C51.3564 30.8565 51.3564 36.0306 54.1361 38.4311C54.8346 39.0344 57.908 40.5819 60.2663 40.1084C61.8301 39.7945 64.0063 38.8022 64.8451 37.3924ZM56.9302 27.6592C57.1087 27.5979 57.2971 27.5474 57.4975 27.5081C57.4705 27.5678 57.4475 27.6311 57.4285 27.698C57.3222 28.0723 57.3331 28.3924 57.4478 29.1718L57.5261 29.6882C57.5328 29.7337 57.5388 29.7754 57.5447 29.8182L57.5619 29.9496C57.6838 30.9362 57.5732 31.4508 57.1124 31.7347C56.6908 31.9944 56.2761 32.0925 55.3289 32.198L54.9742 32.2365C54.5373 32.2847 54.3077 32.3181 54.0317 32.3777L53.9068 32.4018C53.5243 32.4788 53.2068 32.5745 52.9603 32.6949C53.1228 31.2854 53.7256 29.9448 54.7686 29.0619C55.7522 28.2292 56.2485 27.8932 56.9302 27.6592ZM60.4444 27.5695C60.3059 27.5474 60.1711 27.5275 60.0399 27.51C60.0674 27.5766 60.0907 27.6474 60.1099 27.7223C60.19 28.0349 60.2038 28.3123 60.1844 28.9446L60.1749 29.2173C60.165 29.4799 60.1602 29.6361 60.1588 29.7861L60.1588 29.966C60.1668 30.7657 60.2977 31.2974 60.619 31.6575L60.6547 31.6958L60.6689 31.7016C60.6888 31.7093 60.7139 31.718 60.744 31.7275L60.7756 31.7374C60.8492 31.7598 60.9415 31.7848 61.0597 31.8145L61.2572 31.8629L62.1008 32.0606C62.2665 32.1001 62.4139 32.136 62.555 32.1717L62.7871 32.2316C63.4844 32.4155 64.019 32.5947 64.4079 32.7946C63.8271 30.3053 62.2283 27.8549 60.4444 27.5695ZM64.5013 34.6254C64.5494 34.5961 64.595 34.5662 64.638 34.536C64.6589 35.4644 64.4963 36.3229 64.1014 36.9867C63.5343 37.9398 61.9592 38.8475 60.4211 39.2318C60.4601 39.1378 60.4915 39.0358 60.5158 38.9265C60.5906 38.5903 60.6026 38.2054 60.5731 37.6602L60.5546 37.3668L60.5267 36.9809C60.4739 36.2101 60.4868 35.8876 60.5569 35.8104C60.8727 35.4628 61.3101 35.3298 62.4235 35.1769L62.6815 35.1417C63.6122 35.0115 64.0487 34.9016 64.5013 34.6254ZM57.9595 38.8326C57.9711 38.9709 58.0192 39.112 58.0968 39.2452C57.7021 39.1654 57.2915 39.0506 56.8729 38.9039C55.9368 38.5759 55.0291 38.0986 54.7093 37.8225C53.6941 36.9458 53.1098 35.6225 52.9563 34.2291C53.2193 34.3452 53.5671 34.4433 53.9989 34.5411L54.0653 34.556C54.2396 34.5948 54.4179 34.6308 54.6283 34.6705L55.2294 34.7823C56.575 35.047 57.2697 35.3538 57.5872 35.7637L57.619 35.8064C57.8293 36.1 57.8875 36.4323 57.9044 37.2952L57.9139 37.9097C57.9214 38.2778 57.9333 38.5218 57.9595 38.8326ZM58.9716 27.5429L59.0102 27.5462C59.3735 27.5877 59.4504 27.9103 59.4074 29.127L59.3929 29.5488C59.3894 29.676 59.388 29.7784 59.388 29.8906C59.3885 30.6534 59.4839 31.2461 59.7401 31.7207C59.6923 31.6964 59.6377 31.6826 59.5798 31.6826L59.5215 31.6833L59.507 31.6837L59.5004 31.6811C59.4022 31.6462 59.2947 31.6572 59.2079 31.7062L59.199 31.7114L59.1689 31.716C58.4224 31.8352 57.6803 32.2622 57.2825 32.8277C56.8557 33.4344 56.8769 34.0967 57.3638 34.6638C56.9005 34.4297 56.2857 34.242 55.4745 34.0778L55.2127 34.0275C55.0587 33.9989 54.8666 33.9637 54.8665 33.9637L54.7118 33.9345C54.5624 33.9059 54.4299 33.8791 54.3027 33.8515L54.2395 33.8376C53.8531 33.7517 53.5481 33.6636 53.3348 33.5716L53.3009 33.5566C53.2353 33.5267 53.1832 33.498 53.1461 33.4723L53.1413 33.4687L53.1506 33.4594C53.177 33.4343 53.2169 33.4058 53.2715 33.3757C53.4586 33.2723 53.7667 33.1776 54.1895 33.0995L54.2963 33.0774C54.4844 33.0404 54.6688 33.0139 54.9565 32.981L55.4235 32.93C56.4857 32.8116 56.9775 32.6948 57.5292 32.3549C58.3338 31.8592 58.4873 31.0841 58.3177 29.7913L58.299 29.6549C58.2894 29.5879 58.279 29.5183 58.2654 29.4293L58.2123 29.08C58.117 28.4304 58.1033 28.1517 58.1659 27.9131L58.1718 27.8915C58.2481 27.6226 58.4428 27.5113 58.9716 27.5429ZM58.1759 35.2867C58.1861 35.2991 58.1961 35.3117 58.2059 35.3243C58.5698 35.7942 58.6532 36.2092 58.6743 37.269L58.6828 37.8288C58.6892 38.1791 58.6988 38.41 58.7195 38.6772L58.7273 38.7733C58.7432 38.9627 59.0809 39.2639 59.4539 39.1957C59.7446 39.1426 59.857 38.6868 59.8023 37.6723L59.7947 37.5453L59.7522 36.95C59.6851 35.9753 59.7063 35.6514 59.9387 35.369C59.3816 35.5698 58.7338 35.5601 58.1759 35.2867ZM60.8374 34.7534C61.1828 34.6283 61.6225 34.5437 62.2331 34.4581L62.5642 34.4127C63.3378 34.3045 63.7117 34.216 64.0286 34.0379L64.0874 34.0034C64.4459 33.7848 64.4804 33.7412 64.3209 33.6179L64.2693 33.5797C63.9874 33.3764 63.4428 33.1735 62.6589 32.963L62.4933 32.9193C62.3144 32.873 62.1307 32.8277 61.9142 32.7762L61.0133 32.5647C60.8432 32.5237 60.7071 32.4895 60.5963 32.458C61.2925 33.1629 61.4077 33.9563 60.9292 34.634L60.9022 34.6713C60.8813 34.6993 60.8598 34.7267 60.8374 34.7534ZM59.3062 32.3589L59.3549 32.3522L59.3893 32.3721C60.5091 33.0239 60.7583 33.7341 60.3443 34.2913C59.9324 34.8457 59.0278 35.0372 58.3787 34.6434C57.6263 34.1869 57.5012 33.6904 57.8505 33.1939C58.1454 32.7746 58.7351 32.4429 59.3062 32.3589Z" fill="#00160A"/>
<path d="M70.6525 30.4638C70.7591 30.3882 70.9875 30.31 71.3699 30.2581C71.7361 30.2085 72.1834 30.19 72.6756 30.189C73.1662 30.1881 73.6877 30.2044 74.2011 30.2215C74.2311 30.2225 74.2612 30.2235 74.2913 30.2245C74.7702 30.2404 75.2415 30.2561 75.6584 30.2565C76.1499 30.257 76.6494 30.2587 77.1525 30.2603C78.3822 30.2643 79.6336 30.2684 80.844 30.2565C80.8968 30.256 80.973 30.2544 81.068 30.2525C81.4541 30.2448 82.1523 30.2307 82.864 30.2527C83.307 30.2663 83.7421 30.2937 84.0987 30.3431C84.2771 30.3678 84.4273 30.3969 84.5447 30.4296C84.6695 30.4644 84.7252 30.4947 84.7393 30.505C84.7632 30.5223 84.8168 30.5789 84.8754 30.718C84.9318 30.852 84.9796 31.0319 85.013 31.2515C85.0796 31.6903 85.0805 32.2363 85.0146 32.7752C84.9484 33.3167 84.8186 33.8197 84.6436 34.1819C84.4554 34.5714 84.2836 34.6671 84.198 34.676C82.0677 34.8976 78.4683 34.8221 75.603 34.7619C75.2818 34.7552 74.9698 34.7487 74.6701 34.7427C74.3108 34.7357 73.9352 34.7587 73.5745 34.7855C73.4872 34.792 73.401 34.7987 73.3159 34.8053C73.043 34.8264 72.7817 34.8467 72.5292 34.8569C72.1988 34.8703 71.9107 34.8648 71.6702 34.8263C71.4605 34.7927 71.3121 34.7378 71.2091 34.669C71.1984 34.6461 71.1845 34.6138 71.1679 34.5707C71.1229 34.4541 71.0687 34.2882 71.0106 34.084C70.8948 33.6769 70.7711 33.1433 70.6795 32.5989C70.5874 32.051 70.5311 31.5113 70.542 31.0854C70.5475 30.8715 70.5696 30.7054 70.6029 30.5886C70.6317 30.4882 70.6583 30.46 70.658 30.4596C70.6579 30.4596 70.6562 30.4611 70.6525 30.4638ZM71.2287 34.7063C71.2286 34.7065 71.2272 34.7043 71.2243 34.6993C71.2273 34.7035 71.2287 34.7061 71.2287 34.7063Z" stroke="#421EB7" stroke-width="0.876369"/>
<path fill-rule="evenodd" clip-rule="evenodd" d="M75.6493 29.8977C77.1582 29.8993 78.733 29.9113 80.26 29.9022L80.8302 29.8977C81.3374 29.8927 84.3715 29.7823 84.9874 30.2299C85.8977 30.8913 85.5353 35.0558 84.2338 35.1912C81.83 35.4413 77.6059 35.3185 74.6519 35.2602C73.303 35.2336 71.6198 35.6587 70.879 35.0558C70.6148 34.8408 69.5968 30.7478 70.3896 30.1857C71.1824 29.6236 73.9121 29.8959 75.6493 29.8977ZM74.0433 30.6775L73.439 30.6598C72.722 30.6423 72.2053 30.6464 71.7718 30.6789C71.4237 30.7049 71.1638 30.7504 71.0167 30.7949L70.9875 30.8042L70.9846 30.8174C70.9684 30.8952 70.9567 30.9995 70.9517 31.1254L70.9501 31.1736C70.9404 31.5517 70.9881 32.0567 71.0829 32.6207C71.1607 33.0831 71.2669 33.5635 71.3777 33.9684L71.4054 34.068C71.4484 34.2191 71.4898 34.3504 71.5262 34.4527L71.5393 34.4892L71.5551 34.4949C71.7778 34.5706 72.2204 34.5796 73.0739 34.5193L73.6535 34.476C74.0441 34.4485 74.3286 34.4367 74.6094 34.44L77.3337 34.4947C77.7149 34.5015 78.0592 34.5068 78.3966 34.5111L79.0086 34.5177C81.1931 34.5372 82.8354 34.5014 83.9985 34.3908L84.0751 34.3832L84.0854 34.3729C84.1289 34.3256 84.18 34.2494 84.2322 34.1474L84.2518 34.108C84.4055 33.7897 84.5271 33.3259 84.5899 32.8126C84.652 32.3045 84.6514 31.7897 84.5897 31.383C84.5612 31.1953 84.5212 31.0414 84.4758 30.9337L84.463 30.9047L84.4535 30.8855L84.4193 30.8753C84.3277 30.8494 84.202 30.8244 84.0481 30.8025C83.7448 30.7592 83.3542 30.7303 82.8973 30.715C82.4724 30.7007 82.0405 30.6986 81.5568 30.7047L80.839 30.7172L80.1881 30.7221C79.8909 30.7238 79.5808 30.7247 79.2481 30.725L75.5143 30.7167C75.2717 30.7151 75.0339 30.7095 74.6055 30.6959L74.0433 30.6775Z" fill="#00160A"/>
<path fill-rule="evenodd" clip-rule="evenodd" d="M75.4045 29.8954C75.731 30.2885 75.7837 30.926 75.726 32.3155L75.6779 33.3397C75.6627 33.688 75.6584 33.8862 75.6611 34.0938L75.6616 34.1222C75.6669 34.4476 75.6984 34.6634 75.7285 34.7234L75.7328 34.7309L75.0108 35.1709L74.9887 35.1363C74.7924 34.8164 74.7727 34.4106 74.8298 33.1521L74.8604 32.5172C74.9184 31.2855 74.882 30.6085 74.7433 30.4167L74.7346 30.4055L75.4045 29.8954Z" fill="#00160A"/>
<path fill-rule="evenodd" clip-rule="evenodd" d="M79.9014 30.0174L80.6818 30.3539C80.6552 30.4104 80.627 30.698 80.6216 31.1089L80.6211 31.1569C80.6177 31.5563 80.6325 32.0595 80.6622 32.6168L80.6683 32.7289C80.6929 33.1661 80.7254 33.6176 80.7601 34.0149L80.7811 34.2461C80.7988 34.4318 80.8159 34.5929 80.8313 34.7176L80.8364 34.7577C80.8412 34.7949 80.8457 34.8278 80.8499 34.8557L80.8599 34.9183C80.8599 34.9198 80.8596 34.92 80.8586 34.9182L80.8532 34.9062L80.0564 35.2055C79.8682 34.7461 79.6384 30.684 79.8922 30.0388L79.9014 30.0174Z" fill="#00160A"/>
<path fill-rule="evenodd" clip-rule="evenodd" d="M77.0394 32.1013L77.1175 32.2085C77.2066 32.3287 77.2907 32.4351 77.3709 32.529C77.2633 32.7535 77.2068 33.0057 77.1891 33.3303C77.1827 33.4484 77.2774 33.5491 77.4007 33.5553C77.524 33.5614 77.6292 33.4707 77.6356 33.3527C77.6458 33.1656 77.6697 33.0114 77.7123 32.8746C77.9597 33.0818 78.1763 33.1588 78.4041 33.1628L78.448 33.1628C78.5715 33.1628 78.6716 33.067 78.6716 32.9488C78.6716 32.8379 78.5836 32.7468 78.4709 32.7358L78.448 32.7347L78.4106 32.7347C78.2646 32.7316 78.1176 32.6727 77.9174 32.4793C77.9825 32.392 78.0612 32.3053 78.1552 32.2129L78.3949 31.9858C78.4826 31.9026 78.4832 31.7671 78.3963 31.6831C78.3094 31.5992 78.1679 31.5986 78.0802 31.6818L77.8794 31.8711C77.7819 31.9644 77.6962 32.0543 77.6215 32.1442L77.5401 32.0387C77.4981 31.9831 77.4541 31.9233 77.408 31.859C77.3381 31.7616 77.199 31.7368 77.0972 31.8037C76.9954 31.8706 76.9695 32.0039 77.0394 32.1013Z" fill="#00160A"/>
<path fill-rule="evenodd" clip-rule="evenodd" d="M83.1462 31.7668L83.1441 31.8974C83.1404 32.0448 83.1328 32.1781 83.1212 32.2988C83.3415 32.4274 83.5357 32.6062 83.74 32.8659C83.8143 32.9603 83.7945 33.0945 83.6959 33.1656C83.5973 33.2367 83.4571 33.2178 83.3828 33.1234C83.2651 32.9738 83.1553 32.8587 83.04 32.7681C82.9559 33.0724 82.8213 33.2522 82.6348 33.3774L82.5984 33.401C82.496 33.4671 82.3571 33.4412 82.288 33.3432C82.2233 33.2513 82.243 33.1287 82.3301 33.0592L82.3484 33.0461L82.3794 33.026C82.4986 32.9452 82.586 32.8177 82.6391 32.5502C82.5341 32.5127 82.4183 32.483 82.2864 32.4567L81.955 32.3968C81.8337 32.3747 81.754 32.2627 81.777 32.1466C81.8001 32.0304 81.9171 31.9542 82.0384 31.9762L82.3154 32.0256C82.4508 32.0508 82.5742 32.0795 82.6888 32.114C82.6945 32.0098 82.698 31.8933 82.6991 31.7633C82.7001 31.6451 82.801 31.55 82.9245 31.551C83.048 31.552 83.1472 31.6486 83.1462 31.7668Z" fill="#00160A"/>
<path fill-rule="evenodd" clip-rule="evenodd" d="M73.3905 31.8792L73.3554 32.0055C73.3146 32.1476 73.2735 32.2752 73.2317 32.3897C73.4131 32.5654 73.5563 32.7839 73.6889 33.0832C73.7371 33.192 73.684 33.3176 73.5704 33.3638C73.4567 33.41 73.3255 33.3592 73.2773 33.2504C73.2009 33.0779 73.1234 32.9408 73.0344 32.8262C72.876 33.102 72.6999 33.2452 72.4873 33.3236L72.446 33.338C72.33 33.3784 72.2017 33.3211 72.1595 33.2101C72.1199 33.1059 72.17 32.9915 72.272 32.9442L72.2931 32.9357L72.3283 32.9234C72.4644 32.8727 72.5814 32.7692 72.7005 32.5219C72.6081 32.4612 72.5032 32.4055 72.3819 32.3495L72.0754 32.2146C71.9633 32.1651 71.9143 32.0379 71.966 31.9306C72.0177 31.8232 72.1505 31.7763 72.2626 31.8258L72.5189 31.9379C72.6439 31.9937 72.7565 32.0501 72.8589 32.1102C72.8908 32.0104 72.9236 31.8981 72.9575 31.7722C72.9884 31.6578 73.1103 31.589 73.2299 31.6185C73.3494 31.648 73.4213 31.7648 73.3905 31.8792Z" fill="#FFD951"/>
</svg>
