<svg width="254" height="225" viewBox="0 0 254 225" fill="none" xmlns="http://www.w3.org/2000/svg">
<path fill-rule="evenodd" clip-rule="evenodd" d="M154.239 131.114C150.867 132.43 146.967 134.405 146.605 138.001C151.185 134.484 156.843 132.384 162.612 132.062C158.626 137.075 153.593 141.255 147.93 144.255C142.844 146.95 136.405 149.823 135.968 155.555C141.431 149.062 149.829 145.13 158.323 145.091C152.889 153.037 144.175 158.672 134.691 160.376C135.016 162.818 145.532 168.048 148.595 169.054C150.777 178.41 151.722 190.543 153.903 199.899C154.44 202.201 154.912 204.846 153.5 206.744C152.099 208.626 149.454 208.95 147.111 209.116C137.876 209.772 125.241 210.427 116.007 211.082C114.901 206.082 113.796 201.081 112.69 196.08C97.1136 197.524 30.3362 212.801 18.0815 204.787C-29.2254 173.848 31.0991 163.309 32.3956 125.642C32.6928 117.005 6.6818 101.908 7.09477 93.0824C7.36444 87.3197 8.25802 81.6904 11.114 76.7421C13.97 71.7939 18.4955 67.9822 23.4142 65.0664C16.6423 63.3287 11.5129 56.5896 11.6502 49.6106C11.7874 42.6316 17.1778 36.0986 24.0128 34.6276C20.7902 30.7938 15.7159 29.0366 12.0094 25.6667C7.6917 21.741 5.52199 15.4084 7.09477 9.79359C8.66756 4.17876 14.2052 -0.238899 20.0398 0.0100254C24.8325 0.214495 29.0501 3.24069 32.3956 6.67295C37.5839 11.996 41.4426 18.6011 43.5288 25.7303C44.9193 30.4822 50.0154 32.8997 54.3191 35.3588C58.6228 37.818 63.0921 42.1016 61.8795 46.9018C60.2765 40.3332 84.1026 48.1572 105.711 50.0725C108.58 50.3268 111.668 50.697 113.789 52.6426C116.836 55.4386 121.412 56.4584 125.362 55.2218C126.618 58.3316 127.543 61.8246 126.474 65.0038C125.406 68.1829 121.623 70.6095 118.598 69.1511C119.388 73.206 120.177 77.2608 120.967 81.3156C128.7 81.4084 136.432 81.566 144.162 81.7885C148.259 81.9064 152.541 82.0925 156.102 84.1189C159.663 86.1454 164.429 83.2745 167.947 75.8987C165.67 87.9339 168.368 92.743 173.021 94.0505C173.031 93.9594 173.392 94.0028 173.403 93.9119C174.788 82.0186 182.872 71.4585 194.122 67.2809C193.128 69.5697 186.009 74.0904 181.066 79.8632C176.238 85.5022 173.927 93.0516 173.687 94.4072C181.354 92.4003 183.91 98.1025 196.917 93.0824C190.973 100.216 179.52 101.973 171.705 96.9489C168.019 101.054 168.225 105.599 165.613 110.456C170.05 104.952 175.941 109.832 171.267 113.4C173.748 113.638 176.43 113.964 178.229 115.685C180.028 117.406 180.073 121.028 177.752 121.934C169.914 124.994 162.077 128.054 154.239 131.114Z" fill="#4C90F6"/>
<path fill-rule="evenodd" clip-rule="evenodd" d="M141.517 103.989C141.8 103.45 142.108 102.886 142.631 102.572C143.153 102.258 143.954 102.323 144.235 102.863C144.534 103.437 144.089 104.13 143.566 104.513C143.044 104.897 142.401 105.167 142.061 105.719C143.897 106.926 145.732 108.133 147.567 109.341C149.004 110.286 150.631 111.637 150.337 113.33C150.164 114.323 149.321 115.095 148.383 115.465C147.444 115.835 146.412 115.874 145.403 115.903C138.622 116.098 131.835 116.063 125.057 115.8C124.587 115.782 124.062 115.738 123.749 115.387C123.506 115.116 123.456 114.728 123.417 114.366C123.027 110.765 122.637 107.163 122.246 103.561C122.232 103.428 122.218 103.289 122.266 103.164C122.467 102.638 123.255 102.962 123.695 103.313C126.816 105.8 131.804 105.507 134.612 102.674C135.29 101.989 136.445 102.078 137.317 102.491C138.188 102.903 138.917 103.575 139.792 103.982C139.698 103.477 140.144 102.945 140.658 102.947C141.172 102.949 141.614 103.485 141.517 103.989" fill="white"/>
<path fill-rule="evenodd" clip-rule="evenodd" d="M32.3258 64.2366C32.3258 64.2366 31.5684 55.1792 33.4749 52.2676C35.3814 49.356 42.6435 48.4794 42.6435 48.4794C42.6435 48.4794 62.5479 48.2197 73.3021 48.6301C84.0564 49.0405 105.565 50.8806 105.565 50.8806C105.565 50.8806 108.359 51.4892 109.616 52.2676C110.872 53.046 112.624 55.2549 112.624 55.2549C112.624 55.2549 116.437 55.8099 118.334 55.8854C120.231 55.9608 121.969 55.6267 121.969 55.6267C121.969 55.6267 124.387 62.6654 122.678 66.0203C120.969 69.3752 115.23 68.8549 115.23 68.8549L117.262 81.4104C117.262 81.4104 114.847 82.5499 113.527 83.9786C112.207 85.4072 111.677 87.4557 111.677 87.4557L115.6 125.642C115.6 125.642 116.754 127.627 119.232 128.381C121.711 129.134 127.296 129.198 127.296 129.198C127.296 129.198 127.097 133.049 127.296 134.706C127.495 136.363 127.673 137.271 127.673 137.271L131.877 167.322C131.877 167.322 127.791 168.064 123.747 169.043C119.703 170.023 111.677 172.214 111.677 172.214C111.677 172.214 108.848 173.502 108.481 175.581C108.115 177.661 109.616 183.909 109.616 183.909L64.5594 187.337C64.5594 187.337 60.1749 187.42 58.6668 186.471C57.1587 185.523 56.7454 182.422 56.7454 182.422L50.6511 127.701C50.6511 127.701 40.9125 127.939 38.0683 126.318C35.224 124.696 34.88 118.711 34.88 118.711C34.88 118.711 35.3525 115.319 34.88 112.965C34.7223 112.179 32.6626 103.664 31.9707 95.5614C31.5791 90.9766 36.9831 87.4557 36.9831 87.4557L32.3258 64.2366Z" fill="white"/>
<path fill-rule="evenodd" clip-rule="evenodd" d="M64.1178 51.6393C63.7673 52.1323 64.0606 52.8679 64.5669 53.1996C65.0732 53.5313 65.7112 53.5687 66.3161 53.5958C72.8891 53.8911 79.462 54.1865 86.035 54.4818C86.6754 54.5105 87.3847 54.5169 87.87 54.0986C88.3552 53.6803 88.2911 52.6827 87.658 52.5822C80.349 51.4221 72.9321 50.9403 65.5341 51.1451C65.0147 51.1594 64.4185 51.2162 64.1178 51.6393" fill="#E7EAEE"/>
<path fill-rule="evenodd" clip-rule="evenodd" d="M93.3618 98.6719L91.6536 90.6695C91.6536 90.6695 91.5738 92.3197 90.6694 92.9909C89.7651 93.6621 87.9771 93.3982 87.9771 93.3982C87.9771 93.3982 87.6939 87.8102 88.9526 86.1086C90.2112 84.407 91.451 86.014 93.8416 85.4697C96.2302 84.9258 95.7354 83.1346 98.5109 83.9323C101.286 84.73 103.337 90.66 103.337 90.66C103.337 90.66 101.161 91.3881 100.235 91.2013C99.3091 91.0146 99.5348 89.8933 99.5348 89.8933C99.5348 89.8933 98.8786 89.6144 99.0459 91.5805C99.1271 92.5356 99.8513 93.972 100.235 95.8509C100.378 96.5507 100.235 98.123 100.235 98.123C100.235 98.123 97.7653 98.3745 95.6311 98.8306C93.4969 99.2866 93.3618 98.6719 93.3618 98.6719Z" fill="#E7EAEE"/>
<path fill-rule="evenodd" clip-rule="evenodd" d="M32.7205 78.7667C31.8985 78.3248 31.23 77.6508 30.5747 76.9868C28.8845 75.274 27.1732 73.5335 26.0005 71.4335C25.8889 71.2335 25.7791 71.004 25.8435 70.7843C25.9079 70.5646 26.2439 70.4398 26.3695 70.6313C28.408 73.738 30.9822 76.4935 33.9447 78.7397C33.6784 79.0973 33.1136 78.9779 32.7205 78.7667V78.7667Z" fill="#00160A"/>
<path fill-rule="evenodd" clip-rule="evenodd" d="M35.183 39.4455C35.6686 38.9461 35.9276 38.274 36.1512 37.6147C36.8485 35.5588 37.3237 33.4278 37.5658 31.2707C37.6095 30.8821 37.6809 30.4348 38.0186 30.2368C38.3983 32.0864 37.928 33.9925 37.4603 35.8218C37.0491 37.4302 36.5938 39.1189 35.4276 40.302C35.3097 40.4217 35.159 40.5437 34.9931 40.516C34.7694 40.4787 34.6797 40.1819 34.7596 39.97C34.8394 39.7581 35.025 39.608 35.183 39.4455L35.183 39.4455Z" fill="#00160A"/>
<path fill-rule="evenodd" clip-rule="evenodd" d="M152.4 55.578C152.631 55.5164 152.867 55.6983 152.967 55.9149C153.068 56.1315 153.076 56.3777 153.121 56.6123C153.296 57.5291 154.124 58.2813 155.054 58.3696C155.17 58.6389 154.914 58.9084 154.711 59.1203C154.249 59.6026 153.957 60.2443 153.898 60.9089C153.86 61.34 153.769 61.9402 153.335 61.9346C152.987 61.93 152.834 61.5092 152.708 61.1847C152.402 60.3918 151.71 59.7577 150.893 59.5201C150.721 59.4702 150.649 59.2513 150.696 59.0792C150.743 58.9071 150.874 58.7726 150.999 58.6448C151.536 58.0947 152.081 57.4436 152.075 56.6755C152.072 56.2601 151.998 55.6853 152.4 55.578Z" fill="#4C90F6"/>
<path fill-rule="evenodd" clip-rule="evenodd" d="M168.677 127.73C167.956 128.47 167.701 129.627 168.044 130.601C167.664 130.771 167.38 130.248 167.192 129.877C166.91 129.321 166.377 128.897 165.77 128.748C166.649 128.195 167.196 127.154 167.152 126.117C167.505 125.887 167.9 126.367 168.002 126.775C168.103 127.184 168.256 127.715 168.677 127.73Z" fill="#E7EAEE"/>
<path fill-rule="evenodd" clip-rule="evenodd" d="M162.524 129.117C162.942 129.779 163.536 130.33 164.23 130.696C164.479 130.827 164.253 131.194 164.047 131.386C163.529 131.869 163.201 132.551 163.146 133.257C162.693 132.803 162.24 132.35 161.786 131.896C161.605 131.715 161.415 131.435 161.57 131.232C162.046 130.613 162.375 129.883 162.524 129.117Z" fill="#E7EAEE"/>
<path fill-rule="evenodd" clip-rule="evenodd" d="M132.689 72.9501C134.023 64.4661 137.248 56.1284 142.915 49.6673C148.582 43.2062 156.855 38.7956 165.457 38.8025C174.059 38.8095 182.747 43.6731 186.321 51.4844C188.171 55.5261 188.625 60.076 188.499 64.5177C188.26 72.9653 185.987 81.3487 181.926 88.7635C178.263 95.4497 172.998 101.464 166.163 104.856C159.327 108.248 150.808 108.704 144.163 104.954C138.901 101.984 135.22 96.6552 133.466 90.881C131.712 85.1069 131.751 78.9108 132.689 72.9501M185.265 66.5301C185.42 61.2699 184.551 55.838 181.78 51.3611C180.096 48.6393 177.736 46.3373 174.972 44.7188C166.057 39.4992 153.923 42.3032 146.518 49.501C139.114 56.6988 135.904 67.3368 135.573 77.6492C135.397 83.15 135.989 88.7904 138.332 93.7724C140.675 98.7544 144.961 103.015 150.301 104.384C157.287 106.175 164.66 102.803 170.138 98.1185C179.278 90.3018 184.911 78.5402 185.265 66.5301Z" fill="#4C90F6"/>
<path fill-rule="evenodd" clip-rule="evenodd" d="M159.457 47.5371C159.017 48.111 158.557 48.8648 158.895 49.504C159.016 49.7326 158.703 49.9989 158.455 49.9267C158.206 49.8545 158.065 49.5923 157.999 49.3424C157.932 49.0925 157.911 48.8244 157.778 48.6025C157.645 48.3806 157.344 48.2264 157.124 48.3632C156.811 48.3261 156.779 47.8557 156.961 47.599C157.143 47.3423 157.441 47.1658 157.553 46.8718C157.641 46.6391 157.594 46.378 157.636 46.1326C157.678 45.8872 157.887 45.6252 158.128 45.6879C158.12 46.1191 158.17 46.5666 158.389 46.9384C158.608 47.3102 159.028 47.5883 159.457 47.5371Z" fill="#4C90F6"/>
<path fill-rule="evenodd" clip-rule="evenodd" d="M129.107 48.8233C130.219 47.5323 131.616 46.4274 133.255 45.9573C134.894 45.4872 136.796 45.7349 138.076 46.8602C139.469 48.0845 139.906 50.1301 139.609 51.959C139.313 53.7878 138.389 55.4496 137.417 57.0277C136.156 59.0755 134.786 61.0567 133.315 62.9603C132.856 63.5548 132.352 64.1679 131.648 64.4328C130.719 64.7827 129.683 64.4421 128.766 64.0597C125.546 62.7159 122.552 60.8306 119.951 58.5071C117.569 56.3795 115.371 53.2615 116.337 50.2195C116.952 48.2813 118.83 46.8794 120.844 46.5801C122.858 46.2809 124.945 46.9894 126.547 48.2449C127.314 48.8456 128.472 49.5608 129.107 48.8233M118.933 49.9492C117.412 52.0381 119.063 54.9645 120.979 56.699C123.371 58.8632 126.21 60.462 129.023 62.0422C129.384 62.2452 129.788 62.4555 130.193 62.3681C130.555 62.2902 130.822 61.9947 131.061 61.7127C132.966 59.4587 134.673 57.0376 136.155 54.4862C137.295 52.5236 138.132 49.64 136.295 48.304C134.842 47.247 132.724 48.0987 131.492 49.4059C130.26 50.7131 129.485 52.4201 128.138 53.6097C127.087 51.9553 125.969 50.2365 124.264 49.2656C122.559 48.2947 120.087 48.3642 118.933 49.9492H118.933Z" fill="#4C90F6"/>
<path fill-rule="evenodd" clip-rule="evenodd" d="M113.389 29.0402C114.467 28.2012 115.666 27.5168 116.936 27.0145C117.715 26.7065 118.604 26.4694 119.375 26.7992C120.608 27.3277 120.849 29.0964 120.199 30.2696C119.55 31.4428 118.319 32.154 117.147 32.8076C114.849 34.0893 112.55 35.371 110.251 36.6527C110.704 35.7508 110.193 34.6921 109.775 33.7738C108.833 31.7055 108.34 29.4348 108.34 27.1628C108.34 26.4451 108.394 25.7058 108.709 25.0608C109.024 24.4159 109.654 23.881 110.372 23.8641C111.522 23.837 112.287 25.0328 112.675 26.114C113.015 27.0608 113.255 28.0434 113.389 29.0402ZM118.261 27.3958C116.402 27.7729 114.67 28.7493 113.386 30.1436C113.26 30.281 113.014 30.2204 112.899 30.0738C112.783 29.9272 112.761 29.7305 112.739 29.5453C112.594 28.3187 112.273 27.113 111.788 25.9767C111.518 25.3432 111.065 24.6436 110.376 24.6325C109.864 24.6242 109.42 25.0328 109.231 25.5072C109.043 25.9815 109.059 26.5096 109.095 27.0186C109.296 29.8576 110.045 32.657 111.287 35.2189C113.32 34.0813 115.353 32.9438 117.387 31.8062C118.021 31.4513 118.667 31.0875 119.16 30.554C119.653 30.0206 119.978 29.2792 119.835 28.5674C119.691 27.8556 118.973 27.2513 118.261 27.3958Z" fill="#4C90F6"/>
<path fill-rule="evenodd" clip-rule="evenodd" d="M99.1614 169.658C105.096 168.983 111.069 168.643 117.043 168.64C118.138 168.64 119.092 167.79 119.537 166.79C119.982 165.791 120.018 164.663 120.018 163.57C120.02 159.505 119.637 155.452 119.255 151.405C119.1 149.764 118.945 148.123 118.79 146.482C118.695 145.487 118.596 144.469 118.176 143.561C117.447 141.985 115.833 140.961 114.152 140.519C112.47 140.078 110.703 140.138 108.966 140.202C103.198 140.413 97.4296 140.624 91.6614 140.834C94.9865 139.617 98.6079 139.56 102.149 139.517C104.864 139.484 107.579 139.451 110.294 139.417C113.069 139.384 116.24 139.523 118.01 141.656C119.154 143.035 119.406 144.923 119.598 146.702C120.199 152.306 120.64 157.927 120.92 163.556C121.012 165.421 120.937 167.613 119.416 168.7C118.565 169.308 117.461 169.399 116.417 169.47C110.061 169.899 103.704 170.329 97.3473 170.759C95.8547 170.86 94.2819 170.946 92.9392 170.288C92.4728 170.059 91.9935 169.542 92.2441 169.087C94.3105 170.211 96.8236 169.924 99.1614 169.658V169.658Z" fill="#00160A"/>
<path fill-rule="evenodd" clip-rule="evenodd" d="M74.0215 79.7683C74.1405 79.9459 74.1677 80.1674 74.1916 80.3798C74.2472 80.8743 74.3028 81.3689 74.3585 81.8634C74.4245 82.4502 74.4381 83.16 73.9508 83.4948C73.6911 83.6732 73.3561 83.6879 73.0409 83.6964C66.41 83.8752 59.7791 84.0541 53.1482 84.2329C52.7216 84.2445 52.2279 84.2261 51.9664 83.8894C51.8023 83.6781 51.777 83.3939 51.7616 83.1269C51.7133 82.2883 51.6999 81.4478 51.7213 80.6081C51.7246 80.4803 51.732 80.3427 51.8115 80.2424C51.9068 80.1221 52.0746 80.0927 52.2268 80.0721C59.0782 79.1456 66.0219 78.9009 72.9217 79.343C73.329 79.3691 73.7945 79.4296 74.0215 79.7683M73.7491 82.9855C73.0757 82.6224 73.7542 81.5577 73.5093 80.8338C73.299 80.2119 72.4995 80.0647 71.843 80.0274C65.5907 79.672 59.3057 79.8937 53.0941 80.6887C52.8653 80.718 52.6116 80.762 52.4727 80.9458C52.3354 81.1274 52.3602 81.3795 52.3915 81.6049C52.4398 81.9537 52.4882 82.3025 52.5366 82.6513C52.5747 82.9262 52.6328 83.2345 52.8641 83.3884C53.0319 83.5 53.2478 83.4989 53.4494 83.4939C60.2159 83.3244 66.9825 83.155 73.7491 82.9855Z" fill="#00160A"/>
<path fill-rule="evenodd" clip-rule="evenodd" d="M86.4954 91.488C86.527 90.7532 86.5585 90.0185 86.5901 89.2838C86.6516 87.8511 86.7269 86.3649 87.3939 85.0948C88.0609 83.8248 89.5007 82.8379 90.8986 83.1679C91.773 83.3743 92.5793 84.0604 93.4587 83.8762C94.2245 83.7159 94.6942 82.9601 95.3411 82.5207C96.8831 81.4732 99.0326 82.4462 100.308 83.805C101.682 85.2695 102.576 87.1768 102.82 89.1687C102.841 89.3378 102.852 89.5277 102.743 89.6587C102.652 89.7672 102.504 89.8048 102.367 89.8363C101.836 89.9577 101.305 90.0791 100.774 90.2005C100.322 90.3038 99.8531 90.4076 99.3989 90.3137C98.9448 90.2199 98.5087 89.8703 98.4721 89.4087C98.3365 91.988 100.271 94.452 99.7322 96.9781C99.5317 96.8688 99.3313 96.7595 99.1309 96.6501C99.6038 94.1167 97.3424 91.6645 97.8146 89.131C97.8771 88.7957 98.0118 88.4388 98.3121 88.2761C98.6123 88.1134 99.0871 88.2983 99.0753 88.6391C99.0565 89.1851 99.6468 89.5932 100.194 89.5885C100.741 89.5838 101.239 89.2908 101.707 89.0068C101.873 88.9057 101.828 88.6556 101.758 88.4738C101.241 87.1187 100.56 85.8256 99.7367 84.6312C99.1799 83.8238 98.5089 83.0257 97.5836 82.6979C96.6583 82.3701 95.4363 82.7046 95.0957 83.6239C94.6971 84.6999 93.1905 84.7725 92.0842 84.4622C90.9778 84.152 89.7361 83.6675 88.749 84.255C87.9236 84.7463 87.6472 85.7929 87.4926 86.7398C87.2273 88.3642 87.1048 90.0118 87.127 91.6575C87.1719 91.9087 87.4925 91.9897 87.748 91.983C89.0938 91.9482 90.3434 90.8885 90.5955 89.5683C90.9582 89.9847 91.0876 90.5488 91.2049 91.088C91.6111 92.9553 92.0174 94.8227 92.4236 96.69C92.5486 97.2648 92.4026 98.1483 91.8228 98.0437C91.5601 96.0071 91.1709 93.9868 90.6582 91.9982C89.689 92.2182 88.7197 92.4382 87.7504 92.6582C87.4531 92.7257 87.1203 92.7881 86.8601 92.6294C86.5009 92.4104 86.4774 91.9078 86.4954 91.488Z" fill="#00160A"/>
<path fill-rule="evenodd" clip-rule="evenodd" d="M114.85 142.204C115.345 142.739 114.576 143.726 115.03 144.297C115.265 144.593 115.097 145.063 114.786 145.277C114.474 145.492 114.075 145.521 113.698 145.542C107.204 145.919 100.71 146.296 94.2168 146.672C93.7754 146.698 93.2481 146.683 93.0067 146.313C92.9013 146.152 92.8759 145.953 92.8531 145.761C92.7938 145.263 92.7345 144.765 92.6753 144.267C92.6567 144.11 92.64 143.943 92.7136 143.804C92.8351 143.574 93.1367 143.524 93.3958 143.501C100.22 142.9 107.053 142.392 113.891 141.976C114.231 141.956 114.62 141.954 114.85 142.204ZM114.105 143.045C114.084 142.922 114.056 142.788 113.958 142.711C113.86 142.634 113.723 142.64 113.598 142.649C107.543 143.089 101.489 143.53 95.4336 143.971C94.9442 144.006 94.4365 144.047 94.0091 144.288C93.5816 144.528 93.2593 145.03 93.3876 145.503C93.4274 145.649 93.5121 145.789 93.642 145.867C93.8014 145.964 94.0004 145.957 94.1866 145.946C100.579 145.6 106.972 145.254 113.365 144.908C114.125 144.867 114.234 143.794 114.105 143.045Z" fill="#00160A"/>
<path fill-rule="evenodd" clip-rule="evenodd" d="M119.974 136.399C121.123 139.418 121.49 142.669 121.847 145.879C122.676 153.337 123.506 160.796 124.335 168.254C123.718 168.305 123.434 167.514 123.357 166.901C122.1 156.865 121.696 146.7 119.57 136.812C119.705 136.674 119.839 136.537 119.974 136.399Z" fill="#00160A"/>
<path fill-rule="evenodd" clip-rule="evenodd" d="M82.8986 84.4447C82.7198 84.3684 82.7234 84.0899 82.8605 83.9523C82.9977 83.8147 83.2053 83.7815 83.3982 83.757C84.8421 83.5739 86.298 83.4847 87.7535 83.4901C87.6761 84.11 86.8743 84.2913 86.2491 84.3201C85.1988 84.3686 84.1485 84.417 83.0982 84.4654C83.0308 84.4685 82.9607 84.4712 82.8986 84.4447L82.8986 84.4447Z" fill="#00160A"/>
<path fill-rule="evenodd" clip-rule="evenodd" d="M91.0449 160.293C90.925 158.073 90.805 155.853 90.6851 153.633C90.3622 147.658 90.0293 141.622 88.3633 135.874C88.1506 135.141 87.9076 134.396 87.4364 133.794C86.2567 132.287 84.073 132.114 82.1574 132.114C74.7714 132.114 67.3856 132.815 60.132 134.205C59.3949 134.346 58.6286 134.508 58.0405 134.973C57.106 135.713 56.8596 137.013 56.7728 138.201C56.6143 140.369 56.7712 142.559 57.237 144.682C56.9704 144.638 56.7039 144.594 56.4373 144.549C55.4599 142.517 55.0146 140.232 55.1574 137.983C55.2194 137.006 55.3994 136.011 55.9036 135.171C57.1578 133.083 59.9186 132.582 62.3437 132.322C68.4966 131.665 74.6725 131.221 80.8564 130.994C83.3455 130.903 86.1581 130.972 87.8664 132.782C88.7257 133.692 89.1608 134.916 89.5024 136.119C90.6891 140.3 91.0165 144.668 91.338 149.001C91.652 153.235 91.9661 157.469 92.2802 161.703C92.354 162.698 92.4269 163.709 92.2252 164.686C91.5681 167.871 88.1709 169.808 84.937 170.193C81.7031 170.578 78.4473 169.84 75.1909 169.786C70.8117 169.713 66.4065 170.876 62.0875 170.149C60.8436 169.94 59.5208 169.5 58.837 168.442C58.3627 167.708 58.2771 166.798 58.2045 165.927C57.6922 159.786 57.18 153.645 56.6678 147.505C56.6335 147.093 56.9398 146.48 57.2562 146.746C57.821 152.661 58.3857 158.576 58.9505 164.491C59.0269 165.292 59.11 166.116 59.4828 166.829C60.0241 167.864 61.1161 168.522 62.2483 168.815C63.3805 169.108 64.5672 169.084 65.7368 169.069C70.6849 169.005 75.6355 169.128 80.5742 169.438C82.2259 169.542 83.8953 169.665 85.5268 169.389C87.1584 169.112 88.7772 168.386 89.79 167.08C91.2324 165.219 91.1719 162.643 91.0449 160.293V160.293Z" fill="#00160A"/>
<path fill-rule="evenodd" clip-rule="evenodd" d="M82.6479 82.0441C83.1083 81.6853 82.7212 80.9505 82.8119 80.3745C82.9403 79.5596 83.9561 79.2797 84.7769 79.185C90.049 78.5767 95.3583 78.2891 100.665 78.3241C101.107 78.3271 101.629 78.3762 101.851 78.7571C102.118 79.2145 101.87 80.0126 102.375 80.1728C102.612 80.248 102.917 80.1089 103.096 80.2808C103.394 80.565 102.84 80.949 102.43 80.9857C96.2192 81.5422 89.9951 81.9494 83.7648 82.2068C83.3836 82.2226 82.9794 82.2325 82.6479 82.0441M101.2 79.4763C101.055 79.1122 100.569 79.0588 100.177 79.0648C95.1731 79.1408 90.1721 79.3877 85.1854 79.805C84.6007 79.8539 83.9106 79.9756 83.6669 80.5084C83.5499 80.8113 83.7731 81.1598 84.0678 81.2973C84.3625 81.4348 84.7031 81.417 85.0277 81.3965C90.0091 81.081 94.9906 80.7655 99.972 80.4501C100.279 80.4306 100.598 80.4074 100.862 80.2511C101.127 80.0947 101.313 79.7613 101.2 79.4763Z" fill="#00160A"/>
<path fill-rule="evenodd" clip-rule="evenodd" d="M107.914 152.452C108.682 153.062 108.354 154.397 109.022 155.114C109.333 155.448 109.798 155.578 110.236 155.706C110.517 155.788 110.866 155.994 110.776 156.273C110.685 156.559 110.268 156.513 109.988 156.403C109.075 156.046 108.046 155.453 107.996 154.475C107.959 153.761 107.746 153.058 107.382 152.442C107.485 152.269 107.756 152.327 107.914 152.452V152.452Z" fill="#00160A"/>
<path fill-rule="evenodd" clip-rule="evenodd" d="M111.547 162.562C111.297 159.345 111.047 156.128 110.797 152.91C110.76 152.438 110.718 151.947 110.484 151.535C110.249 151.122 109.763 150.812 109.304 150.935C107.228 151.491 105.073 151.748 102.924 151.698C101.045 151.653 99.1231 151.379 97.3156 151.893C97.3492 152.786 97.3828 153.68 97.4164 154.573C97.4262 154.834 97.4411 155.111 97.5897 155.326C98.0065 155.928 99.0413 155.469 99.2764 154.776C99.5115 154.082 99.2992 153.324 99.3395 152.593C99.3467 152.464 99.3726 152.317 99.483 152.248C99.7174 152.103 99.9427 152.45 100.003 152.719C100.175 153.49 100.347 154.297 100.144 155.06C99.9404 155.824 99.2311 156.515 98.4464 156.415C97.6332 156.31 97.3004 157.419 97.2808 158.238C97.2415 159.871 97.2022 161.504 97.163 163.137C97.1506 163.651 97.3358 164.361 97.8476 164.303C99.1686 164.154 100.49 164.004 101.811 163.854C102.13 163.818 102.473 163.787 102.754 163.943C103.035 164.098 103.183 164.523 102.953 164.747C101.402 164.883 99.8501 165.018 98.2984 165.154C97.8452 165.194 97.375 165.231 96.9474 165.076C96.5199 164.921 96.1476 164.515 96.1864 164.063C96.5681 159.62 96.6535 155.152 96.4419 150.698C96.3969 149.751 97.553 149.27 98.4869 149.095C101.451 148.54 104.474 148.3 107.489 148.379C108.5 148.405 109.601 148.505 110.334 149.2C111.081 149.908 111.227 151.024 111.33 152.046C111.716 155.878 112.101 159.711 112.487 163.543C112.508 163.75 112.513 163.995 112.347 164.121C112.248 164.196 112.116 164.204 111.992 164.209C110.705 164.263 109.418 164.316 108.132 164.37C107.45 164.398 106.716 164.413 106.149 164.035C105.76 163.775 105.502 163.363 105.276 162.954C104.734 161.973 104.3 160.932 103.986 159.856C103.494 161.086 103.183 162.388 103.065 163.707C102.443 163.774 102.327 162.843 102.472 162.235C102.77 160.982 103.068 159.728 103.367 158.475C103.412 158.284 103.485 158.063 103.672 158.004C103.948 157.917 104.159 158.247 104.26 158.518C104.68 159.645 105.101 160.772 105.521 161.9C105.883 162.87 106.926 163.453 107.956 163.573C108.986 163.692 110.018 163.433 111.023 163.176C111.221 163.126 111.447 163.052 111.524 162.863C111.563 162.769 111.555 162.663 111.547 162.562ZM97.55 150.783C98.4817 150.795 99.4134 150.807 100.345 150.819C101.045 150.828 101.745 150.837 102.445 150.824C104.972 150.776 107.493 150.438 109.943 149.817C109.397 149.257 108.52 149.226 107.737 149.24C104.935 149.29 102.135 149.453 99.3456 149.728C98.5992 149.801 97.6717 150.044 97.55 150.783L97.55 150.783Z" fill="#00160A"/>
<path fill-rule="evenodd" clip-rule="evenodd" d="M93.3795 148.374C93.3262 148.083 93.7041 147.924 93.9967 147.879C97.377 147.356 100.803 147.124 104.223 147.188C104.272 147.189 104.322 147.191 104.368 147.21C104.528 147.276 104.521 147.529 104.393 147.647C104.266 147.765 104.078 147.785 103.905 147.798C100.648 148.042 97.3436 147.917 94.1528 148.612C93.8566 148.677 93.434 148.671 93.3795 148.374L93.3795 148.374Z" fill="#00160A"/>
<path fill-rule="evenodd" clip-rule="evenodd" d="M171.882 157.099C172.405 155.867 172.983 154.566 174.094 153.817C175.03 153.185 176.205 153.045 177.329 152.923C180.665 152.562 184.001 152.2 187.338 151.838C188.987 151.659 191.117 150.965 191.054 149.309C190.852 143.962 191.266 137.804 195.521 134.55C199.413 131.573 205.242 132.39 209.235 135.23C213.229 138.07 215.759 142.493 217.941 146.876C218.908 148.817 221.554 149.171 223.693 148.797C225.832 148.423 228 147.583 230.11 148.094C233.358 148.882 235 152.424 236.117 155.57C241.72 171.358 245.523 187.816 252.492 203.052C255.098 208.751 254.273 215.862 250.431 220.815C249.957 216.882 250.617 212.819 252.312 209.237C253.111 207.55 250.453 206.441 248.583 206.445C229.532 206.494 210.399 206.548 191.558 209.37C190.983 209.456 190.371 209.561 189.942 209.954C189.525 210.335 189.363 210.913 189.219 211.458C188.635 213.674 188.051 215.889 187.466 218.104C187.1 219.492 187.33 221.647 188.761 221.502C207.407 219.617 226.153 218.718 244.895 218.81C246.866 218.82 249.556 219.601 249.301 221.552C229.336 221.787 209.297 222.027 189.548 224.962C186.403 225.429 184.232 221.541 184.588 218.387C184.945 215.233 186.757 212.404 187.268 209.271C187.708 206.571 187.157 203.817 186.564 201.146C185.623 196.9 184.57 192.678 183.409 188.487C182.275 184.396 181.038 180.335 179.801 176.275C177.929 170.133 176.058 163.991 174.187 157.849C171.613 161.611 170.467 166.322 171.024 170.843C171.412 173.991 172.581 176.981 173.457 180.029C174.709 184.388 175.367 188.891 176.021 193.378C177.309 202.216 178.597 211.054 179.885 219.892C180.074 221.193 179.7 223.108 178.398 222.916C172.608 205.034 174.197 185.264 167.364 167.753C168.87 164.202 170.376 160.65 171.882 157.099ZM215.007 160.343C216.894 159.296 217.871 156.85 217.224 154.793C216.577 152.736 214.375 151.287 212.226 151.505C206.959 152.037 201.691 152.57 196.423 153.103C195.936 153.152 195.392 153.233 195.1 153.624C194.869 153.933 194.865 154.35 194.887 154.734C195.027 157.137 195.862 159.496 197.266 161.453C198.357 162.974 199.866 164.794 199.014 166.46C197.95 168.541 194.452 167.375 193.584 165.204C192.717 163.033 193.334 160.583 193.173 158.252C193.012 155.92 191.333 153.236 189.024 153.624C185.238 154.26 181.452 154.897 177.665 155.533C177.122 155.624 176.412 155.959 176.572 156.486C181.182 171.722 185.793 186.957 190.403 202.192C190.978 204.091 192.273 206.441 194.208 205.99C211.966 201.85 230.69 205.766 248.722 203.045C243.32 186.136 237.732 169.287 231.957 152.501C231.786 152.006 231.593 151.479 231.17 151.17C230.701 150.828 230.07 150.838 229.49 150.863C226.785 150.977 224.08 151.092 221.376 151.206C220.305 151.251 218.847 151.76 219.081 152.804C219.816 156.075 220.551 159.346 221.286 162.617C221.413 163.18 221.537 163.783 221.327 164.32C220.755 165.782 218.598 165.413 217.159 164.78C216.216 164.365 215.223 163.911 214.639 163.061C214.056 162.212 214.105 160.844 215.007 160.343ZM208.036 136.61C205.961 135.091 203.234 133.995 200.84 134.936C200.005 135.264 199.281 135.815 198.569 136.36C197.301 137.329 195.994 138.343 195.246 139.751C194.549 141.062 194.406 142.585 194.276 144.063C194.162 145.355 194.049 146.647 193.935 147.939C193.864 148.74 193.836 149.66 194.417 150.216C194.976 150.75 195.851 150.711 196.621 150.638C202.13 150.115 207.64 149.592 213.15 149.069C213.935 148.994 214.895 148.781 215.101 148.021C215.183 147.721 215.117 147.402 215.043 147.1C214.028 142.932 211.5 139.148 208.036 136.61M205.972 150.275C205.418 150.431 206.034 151.47 206.438 151.059C206.953 150.848 206.382 149.881 205.947 150.229L205.972 150.275Z" fill="#4C90F6"/>
<path fill-rule="evenodd" clip-rule="evenodd" d="M118.822 94.8424C118.788 94.7276 118.856 94.6075 118.937 94.5188C119.333 94.0834 119.996 94.0511 120.585 94.0497C124.156 94.0414 127.728 94.0331 131.299 94.0248C131.55 94.0242 131.82 94.0291 132.025 94.1741C132.23 94.3191 132.31 94.661 132.113 94.8167C132.008 94.8996 131.863 94.9047 131.73 94.9062C127.581 94.9522 123.432 94.9982 119.283 95.0442C119.102 95.0462 118.874 95.0154 118.822 94.8424Z" fill="#00160A"/>
<path fill-rule="evenodd" clip-rule="evenodd" d="M120.146 98.5232C119.931 98.3997 119.961 98.0533 120.141 97.8836C120.322 97.714 120.586 97.6741 120.833 97.6445C122.311 97.4665 123.798 97.3687 125.283 97.271C126.102 97.2172 126.921 97.1634 127.739 97.1095C128.803 97.0395 129.868 96.9695 130.932 96.8996C131.27 96.8773 131.647 96.8676 131.902 97.0908C132.157 97.314 132.094 97.8507 131.756 97.8716C128 98.1039 124.244 98.3362 120.488 98.5685C120.371 98.5758 120.247 98.5813 120.146 98.5232L120.146 98.5232Z" fill="#00160A"/>
<path fill-rule="evenodd" clip-rule="evenodd" d="M140.28 103.372C140.564 102.833 140.872 102.268 141.394 101.955C141.916 101.641 142.717 101.706 142.998 102.245C143.298 102.82 142.852 103.512 142.33 103.896C141.807 104.279 141.164 104.55 140.825 105.101C142.66 106.309 144.495 107.516 146.331 108.723C147.768 109.669 149.394 111.019 149.1 112.713C148.928 113.706 148.085 114.477 147.146 114.848C146.208 115.218 145.175 115.257 144.167 115.286C137.386 115.481 130.599 115.446 123.821 115.183C123.35 115.164 122.826 115.121 122.512 114.77C122.27 114.498 122.22 114.111 122.18 113.749C121.79 110.147 121.4 106.546 121.01 102.944C120.996 102.811 120.982 102.672 121.03 102.547C121.23 102.021 122.018 102.345 122.459 102.696C125.579 105.182 130.568 104.89 133.375 102.057C134.054 101.372 135.209 101.461 136.08 101.873C136.952 102.286 137.681 102.958 138.555 103.365C138.462 102.86 138.908 102.327 139.422 102.33C139.936 102.332 140.377 102.868 140.28 103.372ZM140.664 105.692C140.441 104.875 139.231 104.703 138.564 105.226C137.896 105.749 137.68 106.66 137.622 107.506C137.6 107.821 137.081 107.852 136.903 107.591C136.725 107.33 136.797 106.977 136.896 106.677C137.157 105.885 137.558 105.139 138.076 104.485C138.332 104.161 137.956 103.723 137.618 103.485C136.424 102.647 134.734 101.82 133.639 102.783C130.638 105.422 125.851 105.774 122.496 103.602C122.536 106.305 122.735 109.007 123.093 111.687C123.129 111.957 123.175 112.245 123.362 112.444C123.609 112.707 124.014 112.725 124.375 112.725C130.204 112.733 136.033 112.74 141.862 112.748C142.429 112.748 143.2 112.546 143.156 111.982C143.053 110.668 143.636 109.319 144.664 108.492C143.855 107.906 143.047 107.32 142.238 106.733C141.992 106.555 141.734 106.371 141.433 106.319C140.526 106.164 139.92 107.202 139.6 108.063C139.108 107.186 139.681 105.91 140.664 105.692ZM125.429 114.663C131.499 114.711 137.57 114.7 143.64 114.633C145.363 114.613 147.375 114.439 148.309 112.993C139.927 113.361 131.534 113.452 123.146 113.266C123.041 114.271 124.417 114.655 125.429 114.663M146.203 109.261C146.022 109.147 145.835 109.03 145.625 108.994C144.989 108.885 144.488 109.519 144.212 110.101C144.052 110.437 143.913 110.784 143.796 111.137C143.707 111.407 143.631 111.693 143.686 111.971C143.742 112.249 143.971 112.512 144.255 112.516C145.287 112.527 146.319 112.516 147.351 112.483C147.594 112.475 147.859 112.457 148.041 112.296C148.256 112.106 148.282 111.779 148.228 111.498C148.034 110.481 147.079 109.816 146.203 109.261ZM142.557 102.683C142.545 102.369 142.126 102.21 141.835 102.331C141.545 102.452 141.367 102.74 141.208 103.011C141.015 103.338 140.822 103.665 140.63 103.992C140.529 104.164 140.474 104.456 140.669 104.499C141.181 104.074 141.693 103.648 142.206 103.223C142.377 103.081 142.565 102.906 142.557 102.683ZM139.236 103.195C139.149 103.618 139.366 104.085 139.746 104.292C139.878 103.856 139.8 103.362 139.542 102.987C139.526 102.881 139.382 102.82 139.294 102.882C139.227 102.967 139.202 103.085 139.231 103.19L139.236 103.195Z" fill="#00160A"/>
<path fill-rule="evenodd" clip-rule="evenodd" d="M118.366 90.7161C118.212 89.9716 118.058 89.227 117.904 88.4825C117.844 88.1931 117.789 87.8719 117.941 87.6184C118.148 87.2727 118.622 87.2267 119.026 87.2197C128.934 87.0475 138.845 87.0852 148.751 87.3326C149.427 87.3495 149.982 87.932 150.188 88.575C150.393 89.218 150.326 89.9121 150.256 90.5834C150.218 90.9461 150.158 91.3506 149.868 91.5727C149.631 91.7546 149.307 91.7592 149.008 91.7559C139.058 91.6475 129.108 91.539 119.158 91.4306C118.994 91.4288 118.821 91.4244 118.682 91.3372C118.48 91.2099 118.414 90.9503 118.366 90.7161ZM119.734 87.8728C119.002 87.8675 118.483 88.736 118.666 89.444C118.848 90.152 119.534 90.6393 120.245 90.8114C120.957 90.9836 121.702 90.9005 122.432 90.8324C131.417 89.9939 140.503 91.5965 149.483 90.6921C149.529 90.1467 149.574 89.5829 149.398 89.0645C149.222 88.546 148.764 88.0816 148.216 88.0776C138.722 88.0093 129.228 87.941 119.734 87.8728Z" fill="#00160A"/>
<path fill-rule="evenodd" clip-rule="evenodd" d="M58.6222 112.282C58.2906 112.909 57.8333 113.546 57.1477 113.733C55.8418 114.089 54.762 112.641 54.4056 111.338C53.8493 109.303 53.99 107.084 54.7991 105.135C55.232 104.093 54.8712 102.86 54.1925 101.958C52.9125 100.255 50.5248 99.5098 48.4731 100.089C46.4214 100.668 44.8024 102.49 44.3732 104.575C44.306 104.901 44.3535 105.36 44.684 105.406C46.333 105.637 47.09 107.569 47.341 109.212C47.5327 110.467 47.616 111.781 47.1897 112.977C46.7634 114.173 45.72 115.223 44.4523 115.319C43.3147 114.554 42.4582 113.382 42.0762 112.067C41.3657 109.621 42.2887 107.029 43.2416 104.667C43.8232 103.225 44.4476 101.749 45.5523 100.654C47.9139 98.314 52.3237 98.5918 54.3718 101.21C55.1596 102.217 55.6117 103.468 56.4847 104.403C57.1429 105.107 58.013 105.6 58.6134 106.354C59.9174 107.992 59.6002 110.431 58.6222 112.282ZM42.7987 107.76C42.2008 109.405 42.3673 111.31 43.2418 112.827C43.3854 113.077 43.5563 113.324 43.8073 113.465C44.0583 113.606 44.4082 113.608 44.6067 113.4C45.2013 112.776 45.2757 111.832 45.2737 110.971C45.2714 109.952 45.2085 108.933 45.0854 107.922C45.035 107.508 44.9491 107.051 44.6138 106.802C44.2785 106.553 43.649 106.761 43.7017 107.175C43.8549 108.379 44.0081 109.582 44.1613 110.786C44.1962 111.06 44.2269 111.356 44.0895 111.595C43.952 111.835 43.5724 111.946 43.3984 111.732C42.9474 110.813 42.8115 109.744 43.0182 108.742C43.0925 108.382 43.1438 107.889 42.7987 107.76M56.602 112.534C56.7544 112.415 56.8255 112.222 56.8824 112.038C57.3294 110.589 57.3342 109.007 56.8959 107.555C56.7293 107.003 56.2778 106.357 55.7308 106.542C55.4148 106.649 55.2545 106.994 55.1539 107.312C54.6966 108.755 54.7574 110.356 55.3229 111.761C55.4312 112.03 55.5653 112.302 55.7948 112.48C56.0243 112.657 56.373 112.712 56.602 112.534ZM45.8698 107.325C46.2682 109.341 46.1835 111.45 45.6246 113.428C45.5732 113.61 45.7799 113.752 45.9532 113.828C46.7914 111.798 46.8976 109.476 46.2479 107.379C46.1403 107.302 45.9946 107.281 45.8698 107.325ZM57.4998 106.781C57.376 106.978 57.2521 107.175 57.1283 107.373C57.5365 107.304 57.7233 107.86 57.7451 108.273C57.7956 109.227 57.8462 110.181 57.8967 111.135C58.2768 110.992 58.3457 110.494 58.3527 110.089C58.3687 109.176 58.3846 108.263 58.4006 107.35C58.2637 107.334 58.1268 107.318 57.9899 107.302C57.9758 107.044 57.7574 106.811 57.4998 106.781Z" fill="#00160A"/>
<path fill-rule="evenodd" clip-rule="evenodd" d="M102.322 108.512C99.5984 108.382 96.8626 108.5 94.1599 108.864C93.9207 108.896 93.653 108.924 93.4609 108.778C93.2687 108.632 93.2897 108.246 93.5295 108.219C96.2324 107.923 98.9469 107.732 101.665 107.648C101.96 107.638 102.291 107.644 102.502 107.851C102.712 108.058 102.618 108.526 102.322 108.512V108.512Z" fill="#00160A"/>
<path fill-rule="evenodd" clip-rule="evenodd" d="M39.0465 97.6536C39.8198 97.5811 40.5931 97.5086 41.3664 97.436C41.7559 97.3995 42.1455 97.363 42.535 97.3264C45.0129 97.094 47.4908 96.8616 49.9709 96.655C50.0683 96.6469 50.17 96.6394 50.2603 96.6768C50.5287 96.7881 50.4874 97.2211 50.2535 97.3933C50.0196 97.5655 49.7033 97.5555 49.4128 97.5459C45.7603 97.4245 42.1203 98.5204 38.4847 98.1498C38.2484 98.1257 37.9394 98.0042 37.9811 97.7708C38.3348 97.7204 38.6907 97.687 39.0465 97.6536Z" fill="#00160A"/>
<path fill-rule="evenodd" clip-rule="evenodd" d="M122.337 177.785C122.216 176.723 122.128 175.567 121.413 174.772C120.864 174.161 121.148 173.027 121.92 172.746C122.692 172.465 123.64 173.151 123.614 173.971C123.605 174.253 123.502 174.521 123.422 174.791C122.877 176.635 123.383 178.62 124.05 180.424C124.725 182.251 125.759 184.196 127.615 184.796C129.762 185.491 132.137 183.953 133.089 181.911C134.04 179.868 133.895 177.496 133.563 175.268C133.53 175.044 133.47 174.786 133.264 174.691C132.429 174.306 132.302 172.954 133.051 172.421C133.8 171.888 135.039 172.45 135.131 173.363C135.162 173.673 135.083 173.982 135.024 174.288C134.614 176.41 135.156 178.634 134.707 180.749C134.425 182.072 133.75 183.31 132.79 184.265C131.771 185.277 130.395 185.975 128.958 185.999C127.023 186.032 125.214 184.834 124.12 183.24C123.026 181.646 122.557 179.704 122.337 177.785Z" fill="#00160A"/>
<path fill-rule="evenodd" clip-rule="evenodd" d="M65.907 90.6003C65.9607 91.3276 66.0121 92.077 65.785 92.7702C65.558 93.4635 64.9811 94.095 64.2532 94.1575C60.5008 94.4796 56.7479 94.8017 52.9882 95.0238C47.8617 95.3267 42.7262 95.4434 37.5921 95.5601C37.4089 95.5642 37.2129 95.5649 37.06 95.4641C36.8306 95.3128 36.7877 95.0004 36.7665 94.7268C36.711 94.0103 36.6555 93.2938 36.6 92.5773C36.5831 92.3594 36.5703 92.124 36.6879 91.9396C36.8602 91.6696 37.229 91.6232 37.5492 91.6043C46.992 91.0455 56.4482 90.7107 65.907 90.6003ZM64.3271 93.1136C64.9304 93.0734 65.0525 92.1256 64.6101 91.7141C64.1678 91.3025 63.496 91.2935 62.8916 91.3084C55.1202 91.5012 47.346 91.6942 39.5902 92.2208C39.0316 92.2587 38.4506 92.3051 37.9677 92.588C37.4849 92.8708 37.1363 93.4657 37.3207 93.9933C37.5828 94.743 38.5959 94.8254 39.3894 94.7727C47.702 94.2196 56.0145 93.6666 64.3271 93.1136Z" fill="#00160A"/>
<path fill-rule="evenodd" clip-rule="evenodd" d="M56.2583 108.706C56.2657 108.903 56.2732 109.1 56.2806 109.297C56.2961 109.707 56.3115 110.12 56.2521 110.526C55.7369 110.472 55.5771 109.81 55.547 109.294C55.5327 109.048 55.5279 108.774 55.6927 108.591C55.8576 108.408 56.249 108.46 56.2583 108.706L56.2583 108.706Z" fill="#00160A"/>
<path fill-rule="evenodd" clip-rule="evenodd" d="M93.3624 110.386C93.8679 109.92 94.6366 109.934 95.3244 109.954C97.5003 110.015 99.6826 109.847 101.823 109.454C102.076 109.407 102.211 109.799 102.054 110.002C101.897 110.204 101.613 110.246 101.357 110.272C98.9448 110.517 96.522 110.662 94.0973 110.707C93.8084 110.713 93.442 110.663 93.3624 110.386Z" fill="#00160A"/>
<path fill-rule="evenodd" clip-rule="evenodd" d="M174.591 118.529C174.352 119.335 173.559 119.833 172.803 120.202C169.02 122.05 164.572 122.502 160.493 121.454C159.123 121.102 157.562 120.288 157.504 118.877C157.46 117.839 158.29 116.97 159.168 116.414C160.515 115.561 162.086 115.131 163.652 114.827C166.673 114.241 169.949 114.12 172.684 115.529C173.829 116.12 174.956 117.295 174.591 118.529ZM158.438 118.72C158.44 119.86 159.713 120.527 160.818 120.816C164.652 121.82 168.847 121.387 172.394 119.62C172.963 119.337 173.564 118.963 173.745 118.354C173.988 117.536 173.353 116.712 172.649 116.229C170.529 114.775 167.725 114.974 165.168 115.247C163.11 115.467 160.917 115.755 159.348 117.102C158.864 117.519 158.436 118.081 158.438 118.72L158.438 118.72Z" fill="#00160A"/>
<path fill-rule="evenodd" clip-rule="evenodd" d="M63.2666 51.7752C63.1376 51.0425 63.6437 50.3145 64.2959 49.9546C64.948 49.5948 65.7167 49.5254 66.4605 49.4817C73.0923 49.0921 79.7137 50.1555 86.3477 50.505C87.2016 50.55 88.1019 50.5971 88.8202 51.0602C89.5385 51.5233 89.9602 52.5626 89.4632 53.2573C89.2229 53.5932 88.8255 53.7799 88.4312 53.9042C87.2938 54.2629 86.0734 54.2153 84.8818 54.1642C78.6798 53.898 72.4778 53.6318 66.2759 53.3656C65.0445 53.3128 63.48 52.987 63.2666 51.7752M64.1179 50.7134C63.7674 51.2065 64.0608 51.9421 64.5671 52.2738C65.0734 52.6054 65.7113 52.6428 66.3163 52.67C72.8892 52.9653 79.4621 53.2606 86.0351 53.5559C86.6755 53.5847 87.3848 53.591 87.8701 53.1727C88.3553 52.7544 88.2912 51.7569 87.6581 51.6564C80.3491 50.4962 72.9322 50.0144 65.5342 50.2192C65.0148 50.2336 64.4186 50.2904 64.1179 50.7134" fill="#00160A"/>
<path fill-rule="evenodd" clip-rule="evenodd" d="M139.653 55.4012C142.917 48.6123 148.209 41.6141 155.73 41.0352C160.74 40.6496 166.055 41.5245 170.02 44.6059C177.211 50.1947 177.712 61.0321 175.143 69.7611C172.114 80.0499 165.354 89.5792 155.657 94.1936C153.345 95.2942 150.829 96.117 148.269 96.0167C141.466 95.7503 136.512 89.078 135.048 82.4403C133.04 73.3431 135.616 63.7995 139.653 55.4012M148.114 93.5317C153.142 94.2153 157.88 91.0176 161.428 87.3946C168.077 80.6037 172.541 71.7126 174.012 62.3307C174.435 59.627 174.611 56.8217 173.874 54.1858C172.425 49.0012 167.502 45.2544 162.22 44.1764C157.14 43.1397 151.557 44.3766 147.641 47.7696C145.759 49.4002 144.298 51.4597 143.022 53.5965C138.859 60.5664 136.493 68.6771 136.783 76.7869C136.914 80.4505 137.609 84.1745 139.467 87.3366C141.325 90.4988 144.475 93.0371 148.114 93.5317Z" fill="#4C90F6"/>
<path fill-rule="evenodd" clip-rule="evenodd" d="M85.014 134.484C85.2206 134.473 85.4424 134.466 85.6174 134.576C85.8336 134.713 85.9126 134.984 85.9749 135.232C86.1113 135.774 86.2484 136.339 86.1386 136.887C86.0288 137.435 85.5955 137.962 85.036 137.986C83.6087 138.048 82.1815 138.111 80.7542 138.173C80.1945 138.197 79.5388 138.277 79.2606 138.763C79.0721 139.092 79.1282 139.5 79.1899 139.874C79.3649 140.934 79.8595 142.274 80.9349 142.235C81.6503 142.209 82.2879 142.752 82.5958 143.397C82.9037 144.042 82.9498 144.776 82.9907 145.489C83.0292 146.161 82.8576 147.079 82.184 147.096C81.6407 147.109 81.4909 147.842 81.5081 148.384C81.6281 152.155 81.7481 155.927 81.8681 159.698C81.8874 160.306 81.1074 160.561 80.5015 160.622C75.4242 161.134 70.2939 161.12 65.2194 160.582C65.0374 160.563 64.805 160.491 64.801 160.309C64.707 156.048 64.6131 151.786 64.5192 147.525C64.5137 147.277 64.3916 146.934 64.1517 146.999C63.3954 147.205 62.635 146.505 62.4784 145.738C62.3218 144.971 62.5904 144.188 62.8551 143.451C62.9775 143.111 63.1149 142.75 63.4075 142.536C64.0325 142.081 65.1879 142.405 65.4678 141.685C65.5141 141.566 65.523 141.435 65.5185 141.308C65.4794 140.195 64.4414 139.316 63.3481 139.096C62.2547 138.876 61.1278 139.166 60.063 139.497C59.819 138.578 59.7564 137.611 59.88 136.669C59.9092 136.446 59.9545 136.212 60.1043 136.045C60.3178 135.806 60.6736 135.773 60.9936 135.756C69.0004 135.332 77.0072 134.908 85.014 134.484ZM63.6663 143.118C63.5124 143.296 63.4782 143.545 63.4505 143.779C63.3782 144.389 63.3059 144.998 63.2336 145.608C63.2184 145.736 63.2042 145.871 63.256 145.99C63.3668 146.243 63.702 146.287 63.9789 146.294C65.4488 146.33 66.9187 146.367 68.3885 146.403C68.6364 146.409 68.8965 146.413 69.1166 146.299C69.4706 146.116 69.6161 145.618 69.4163 145.273C69.5962 145.255 69.776 145.237 69.9559 145.218C69.8767 145.75 70.4193 146.195 70.952 146.273C71.4847 146.351 72.0201 146.189 72.5569 146.147C73.6822 146.058 74.806 146.499 75.9271 146.366C76.0451 146.352 76.171 146.328 76.2536 146.243C76.3615 146.131 76.3595 145.957 76.3507 145.802C76.3082 145.059 76.2657 144.316 76.2232 143.573C76.2098 143.339 76.1897 143.087 76.0391 142.907C75.8241 142.651 75.4388 142.643 75.1039 142.656C73.4857 142.718 71.8674 142.781 70.2492 142.843C70.1362 142.848 70.0112 142.857 69.9328 142.939C69.8451 143.03 69.8512 143.173 69.8631 143.299C69.9175 143.877 69.9718 144.455 70.0262 145.034C69.8115 145.054 69.6009 145.117 69.4099 145.217C69.3621 144.762 69.3143 144.306 69.2666 143.85C69.223 143.435 69.0599 142.903 68.6417 142.897C67.3062 142.88 65.9706 142.862 64.635 142.844C64.2878 142.839 63.8929 142.855 63.6663 143.118ZM71.3611 147.6C71.3388 147.293 71.2056 146.887 70.8993 146.92C68.9949 147.124 67.0672 147.112 65.1655 146.885C65.2124 151.022 65.2896 155.159 65.397 159.295C65.4109 159.827 66.0839 160.04 66.6144 160.095C68.1907 160.256 69.7778 160.311 71.3615 160.259C71.4913 160.255 71.6319 160.246 71.7308 160.162C71.8608 160.052 71.8693 159.858 71.8674 159.687C71.822 155.654 71.6532 151.623 71.3611 147.6ZM80.885 147.372C80.8329 147.283 80.7142 147.264 80.6112 147.255C78.9729 147.117 77.3262 147.078 75.6831 147.139C75.5343 147.144 75.3749 147.155 75.257 147.245C75.0778 147.384 75.0668 147.645 75.0718 147.871C75.1624 152 75.2529 156.129 75.3435 160.258C77.1524 160.433 78.994 160.262 80.7398 159.759C80.8485 159.727 80.9637 159.69 81.0339 159.602C81.1096 159.506 81.1147 159.375 81.1163 159.253C81.1505 156.596 81.0818 153.94 81.0131 151.284C80.9807 150.032 80.9483 148.781 80.916 147.53C80.9146 147.476 80.9124 147.419 80.885 147.372ZM60.5707 136.904C60.2565 137.397 60.5943 138.093 61.1105 138.369C61.6267 138.644 62.2454 138.617 62.8298 138.584C66.3652 138.379 69.9006 138.175 73.436 137.97C76.8076 137.775 80.1795 137.58 83.5456 137.306C84.0386 137.266 84.5566 137.216 84.964 136.936C85.3713 136.656 85.608 136.064 85.3348 135.652C85.0607 135.239 84.4713 135.22 83.9757 135.246C76.6295 135.624 69.2834 136.002 61.9372 136.38C61.4297 136.406 60.8434 136.476 60.5707 136.904M74.7017 160.162C74.4533 156.131 74.4041 152.088 74.5543 148.053C74.563 147.821 74.5706 147.58 74.478 147.367C74.2074 146.746 73.337 146.748 72.6664 146.851C72.3597 146.898 71.9683 147.045 71.9913 147.354C72.2788 151.214 72.5665 155.081 72.5019 158.951C72.4934 159.463 72.7872 159.97 73.2368 160.217C73.6863 160.465 74.2721 160.443 74.7017 160.162ZM82.2888 145.282C82.2014 144.749 82.1101 144.205 81.8499 143.731C81.5898 143.258 81.1239 142.862 80.584 142.835C79.5581 142.784 78.5323 142.733 77.5064 142.682C77.2394 142.669 76.8704 142.749 76.8833 143.016C76.9224 143.826 76.9614 144.637 77.0005 145.447C77.0176 145.801 77.0837 146.228 77.412 146.362C77.5179 146.406 77.6352 146.409 77.7496 146.411C79.0871 146.442 80.4246 146.472 81.7621 146.503C82.0173 146.509 82.2313 146.285 82.3011 146.039C82.3708 145.794 82.33 145.533 82.2888 145.282ZM75.813 141.288C75.6791 140.725 75.5396 140.149 75.2192 139.667C74.8988 139.185 74.3549 138.809 73.7771 138.851C72.8865 138.916 71.996 138.982 71.1054 139.047C70.5506 139.088 69.9223 139.168 69.597 139.618C69.2037 140.163 69.4735 140.924 69.3672 141.587C69.3299 141.82 69.5123 142.043 69.7305 142.134C69.9488 142.224 70.1941 142.214 70.4301 142.201C72.0243 142.12 73.6186 142.038 75.2128 141.956C75.4468 141.944 75.7277 141.901 75.8209 141.686C75.8749 141.562 75.8444 141.419 75.813 141.288ZM78.6068 140.268C78.3034 139.854 78.3109 139.239 78.6243 138.832C78.0655 138.485 77.2829 138.549 76.7881 138.982C76.2933 139.415 76.1267 140.181 76.3971 140.779C76.4924 140.99 76.4379 141.241 76.505 141.462C76.6004 141.777 76.9302 141.974 77.2571 142.015C77.584 142.055 77.9119 141.97 78.2301 141.885C78.6476 141.773 79.1557 141.55 79.1516 141.119C79.1484 140.775 78.81 140.546 78.6068 140.268ZM68.6442 141.745C68.8293 141.141 68.5803 140.451 68.1049 140.034C67.6296 139.616 66.9638 139.453 66.3331 139.51C66.0797 139.532 65.8154 139.595 65.632 139.771C65.4486 139.947 65.3829 140.264 65.5482 140.457C65.6703 140.6 65.8793 140.642 66.0071 140.779C66.2021 140.989 66.1363 141.325 66.2257 141.597C66.4274 142.212 67.2636 142.27 67.9089 142.211C68.1298 142.191 68.3736 142.16 68.5189 141.992C68.58 141.922 68.6169 141.834 68.6442 141.745ZM68.7487 139.711C68.8983 139.567 68.9254 139.313 68.8097 139.14C68.5521 139.063 68.2639 139.217 68.1284 139.448C68.2292 139.679 68.5124 139.812 68.7544 139.743M76.1008 139.07C76.1383 138.969 76.1162 138.848 76.0453 138.767C75.8008 138.689 75.516 138.759 75.3344 138.94C75.5213 139.152 75.8613 139.209 76.1073 139.07L76.1008 139.07Z" fill="#00160A"/>
<path fill-rule="evenodd" clip-rule="evenodd" d="M174.661 121.934C166.823 124.994 158.985 128.054 151.148 131.114C147.776 132.43 143.876 134.405 143.514 138.001C148.094 134.484 153.752 132.384 159.521 132.062C155.535 137.075 150.502 141.255 144.839 144.255C139.753 146.95 133.313 149.823 132.877 155.555C138.34 149.062 146.738 145.13 155.231 145.091C149.797 153.037 141.084 158.672 131.599 160.376C131.925 162.818 132.25 165.26 132.576 167.701C135.799 167.587 139.041 168.048 142.104 169.054C144.285 178.41 146.467 187.765 148.648 197.121C149.185 199.423 149.657 202.069 148.245 203.966C146.844 205.849 144.199 206.173 141.856 206.339C132.621 206.994 123.387 207.649 114.152 208.305C113.047 203.304 111.941 198.304 110.835 193.303C95.2589 194.747 79.6825 196.191 64.106 197.635C60.8257 197.939 57.3565 198.211 54.3882 196.785C43.622 191.61 30.5675 201.626 19.1961 197.962C29.1871 197.774 39.1472 196.034 48.6085 192.824C52.0398 191.66 56.1482 188.471 54.3553 185.327C45.5811 191.439 34.3231 193.879 23.8002 191.95C24.4181 181.747 24.0207 171.484 22.6159 161.36C30.1034 160.291 37.4823 158.466 44.6037 155.922C46.5847 155.214 48.6226 154.4 50.0332 152.842C51.4439 151.283 52.0142 148.766 50.7747 147.068C39.9431 152.831 27.4368 155.409 15.2048 154.403C15.8431 168.221 16.4814 182.038 17.1196 195.855C15.3116 182.048 14.3528 168.13 14.2503 154.205C20.5468 153.648 26.8433 153.09 33.1398 152.533C32.1274 148.046 31.1086 143.456 31.6286 138.886C32.1487 134.316 34.5047 129.689 38.6459 127.673C35.5129 121.002 30.778 115.088 24.9509 110.566C18.1198 105.266 9.3372 101.269 6.21772 93.2131C4.15514 87.8863 5.16686 81.6904 8.02283 76.7421C10.8788 71.7939 15.4043 67.9822 20.323 65.0664C13.5512 63.3287 8.42177 56.5896 8.559 49.6106C8.69624 42.6316 14.0866 36.0986 20.9216 34.6276C17.699 30.7938 12.6247 29.0366 8.91828 25.6667C4.60053 21.741 2.43083 15.4084 4.00361 9.79359C5.57639 4.17876 11.114 -0.238899 16.9487 0.0100254C21.7413 0.214495 25.959 3.24069 29.3044 6.67295C34.4927 11.996 38.3514 18.6011 40.4376 25.7303C41.8281 30.4822 46.9242 32.8997 51.2279 35.3588C55.5316 37.818 60.0009 42.1016 58.7884 46.9018C57.1853 40.3332 51.8023 34.8273 45.2635 33.0681C41.8563 32.1515 40.6146 28.1038 39.5187 24.7552C37.3859 18.239 33.7452 12.2198 28.9618 7.30156C25.367 3.60541 20.667 0.380089 15.5141 0.657773C10.2095 0.943631 5.53333 5.25145 4.32056 10.4149C3.1078 15.5783 5.14116 21.2361 9.01176 24.8686C12.9542 28.5686 18.5943 30.381 21.7728 34.7527C14.8792 36.1513 9.42913 42.7744 9.39293 49.797C9.35672 56.8197 14.7382 63.4984 21.617 64.9677C16.7693 67.8006 12.2333 71.3992 9.2425 76.1459C6.25168 80.8926 4.9696 86.9172 6.75914 92.2327C10.8983 104.527 28.1505 107.462 34.2388 118.92C35.8877 113.513 33.4706 107.828 32.2283 102.314C30.986 96.7994 31.6882 89.7183 36.8379 87.3701C35.3329 80.1284 33.8278 72.8866 32.3228 65.6449C31.2013 60.2486 30.6386 53.4117 35.2886 50.4413C32.0123 49.4269 29.1045 47.2662 27.1908 44.4241C29.2574 47.582 33.2377 49.3739 36.9766 48.8294C32.2517 38.6042 27.0128 28.6157 21.2862 18.9141C27.4567 28.2027 32.9178 37.9609 37.6064 48.076C59.292 47.4902 81.0114 48.1572 102.62 50.0725C105.489 50.3268 108.577 50.697 110.697 52.6426C113.745 55.4386 118.321 56.4584 122.27 55.2218C123.527 58.3316 124.451 61.8246 123.383 65.0038C122.315 68.1829 118.532 70.6095 115.507 69.1511C116.297 73.2059 117.086 77.2608 117.876 81.3156C125.608 81.4084 133.34 81.566 141.071 81.7885C145.168 81.9064 149.45 82.0925 153.011 84.1189C156.572 86.1454 159.085 90.6341 157.498 94.4072C158.51 91.289 159.522 88.1709 160.533 85.0527C164.099 90.7032 165.85 97.4759 165.47 104.143C166.705 102.267 167.94 100.391 169.175 98.5144C164.787 91.619 164.228 82.4544 167.747 75.0785C171.198 80.7837 173.141 87.3885 173.33 94.0505C174.617 82.0439 183.138 71.0979 194.475 66.8885C192.508 71.4129 190.541 75.9374 188.574 80.4619C186.89 84.3357 184.751 88.6324 180.705 89.863C178.035 90.6748 174.171 90.6256 173.686 93.369C181.353 91.3621 189.513 91.2628 197.226 93.0824C191.283 100.216 179.829 101.973 172.015 96.9489C168.328 101.054 165.134 105.599 162.522 110.456C166.959 104.952 173.863 101.51 180.936 101.276C177.136 105.759 172.849 109.832 168.176 113.4C170.657 113.638 173.338 113.964 175.138 115.685C176.937 117.406 176.982 121.028 174.661 121.934ZM71.2024 76.7495C73.258 76.7258 75.5604 76.7987 76.9954 78.2683C78.0901 79.3895 78.3835 81.0432 78.6222 82.5906C79.7135 89.6673 80.7353 96.7547 81.6874 103.851C81.9262 105.631 80.4313 107.274 78.7236 107.838C77.0158 108.403 75.1589 108.155 73.378 107.902C74.8629 106.622 77.3698 107.539 78.968 106.404C80.4014 105.386 80.3931 103.295 80.2215 101.547C79.578 94.9938 78.7017 88.4634 77.5949 81.9722C77.3993 80.8247 77.1596 79.6041 76.3455 78.771C75.2613 77.6615 73.5288 77.5877 71.9763 77.5858C65.6033 77.5779 59.2303 77.5699 52.8573 77.562C51.7589 77.5606 50.6032 77.5736 49.6496 78.1178C46.9055 79.6836 47.9172 83.8193 49.2812 86.6657C53.1456 85.8836 57.0942 85.5169 61.0367 85.5741C64.5295 85.6247 68.8851 86.757 69.474 90.1944C70.768 97.7459 72.0619 105.297 73.3558 112.849C74.0342 116.808 74.4082 121.619 71.2386 124.094C69.6548 125.33 67.5529 125.625 65.5582 125.877C60.6537 126.496 55.7491 127.115 50.8445 127.734C52.8872 145.59 54.93 163.446 56.9727 181.302C57.2005 183.294 57.6177 185.583 59.3719 186.559C60.4096 187.136 61.6684 187.088 62.8545 187.024C78.4818 186.173 94.0941 185.046 109.681 183.645C109.058 182.226 109.046 180.552 109.648 179.125C111.227 188.352 112.806 197.58 114.385 206.807C117.149 204.905 116.724 200.776 115.99 197.505C114.132 189.225 112.274 180.944 110.416 172.663C109.664 174.041 108.912 175.419 108.159 176.796C107.79 175.076 108.824 173.297 110.258 172.274C111.691 171.251 113.459 170.832 115.182 170.463C120.479 169.33 125.833 168.464 131.218 167.87C129.653 156.85 128.088 145.83 126.523 134.81C116.903 137.448 106.715 136.618 96.7748 135.767C93.8306 135.515 90.089 134.526 89.8082 131.589C89.1025 124.207 88.3967 116.824 87.6909 109.442C87.5989 108.48 87.0403 107.183 86.1207 107.486C83.861 108.231 82.5171 105.017 82.3321 102.649C81.7519 95.2193 81.1717 87.7901 80.5915 80.3609C80.5154 79.3867 80.4957 78.2621 81.2234 77.6085C81.7329 77.151 82.4669 77.0671 83.1494 77.0048C88.0187 76.5604 92.8879 76.1159 97.7572 75.6715C100.538 75.4177 103.696 75.2865 105.72 77.2074C107.148 78.5632 107.627 80.619 107.928 82.5633C108.484 86.1465 108.668 89.7871 108.476 93.4079C108.09 89.8686 107.704 86.3293 107.319 82.7899C107.145 81.1974 106.933 79.5087 105.925 78.2621C104.205 76.1344 101.005 76.1702 98.2756 76.3944C93.3998 76.7949 88.524 77.1954 83.6482 77.596C82.9916 77.6499 82.2799 77.7274 81.8026 78.1808C81.1816 78.7707 81.1991 79.7471 81.2612 80.6006C81.7836 87.7803 82.306 94.96 82.8285 102.14C82.9271 103.495 83.0612 104.944 83.9194 105.998C84.7776 107.053 86.6395 107.384 87.4413 106.286C86.3428 103.875 87.8623 100.923 90.1113 99.518C92.3604 98.113 95.1206 97.8657 97.7653 97.655C102.326 97.2917 106.888 96.9284 111.449 96.5651C111.136 87.1404 110.118 77.739 108.406 68.4653C106.828 68.0249 105.392 67.094 104.346 65.8348C103.564 67.8464 101.234 69.1248 99.1141 68.7058C96.9938 68.2867 95.3275 66.2185 95.3722 64.0612C95.1207 66.5438 92.9542 68.6972 90.4663 68.9374C87.9784 69.1775 85.4388 67.4784 84.7156 65.0898C83.5242 66.4163 81.9782 67.5594 80.2009 67.7209C78.4235 67.8824 76.4576 66.7619 76.1685 65.0038C73.8344 68.0268 68.4097 67.7201 66.4324 64.4533C64.3987 67.804 58.6088 67.7217 56.6715 64.3144C55.8015 67.4645 50.9455 67.7165 48.6146 65.4227C46.2836 63.1288 45.8299 59.5952 45.5055 56.3438C41.6579 60.0448 40.9638 65.9904 41.694 71.2744C42.4243 76.5584 44.3273 81.6484 44.7889 86.9625C45.843 87.2272 46.9992 87.0601 47.9349 86.508C46.9242 83.4588 46.2596 79.3622 49.0032 77.6849C50.1038 77.0121 51.4656 76.9777 52.756 76.9627C58.9048 76.8917 65.0536 76.8206 71.2024 76.7495ZM132.114 128.065C140.18 127.666 148.501 128.715 156.166 126.177C157.352 125.784 158.567 125.267 159.331 124.28C157.373 123.382 155.294 121.832 155.342 119.682C155.373 118.269 156.354 117.048 157.458 116.165C158.618 115.238 159.968 114.549 161.4 114.155C161.516 113.801 160.892 113.724 160.584 113.933C160.275 114.142 159.807 114.401 159.601 114.09C159.546 114.007 159.535 113.903 159.525 113.803C158.756 105.987 157.616 98.2072 156.11 90.4986C155.657 88.181 154.984 85.5992 152.938 84.4147C151.833 83.7751 150.509 83.6678 149.235 83.5798C139.644 82.9173 130.035 82.5115 120.421 82.363C118.15 82.3279 115.608 82.4122 114.015 84.0299C112.807 85.2571 112.461 87.0798 112.333 88.7958C111.937 94.1094 113.077 99.3988 113.818 104.675C114.706 110.996 115.026 117.381 115.612 123.737C115.69 124.583 115.785 125.464 116.243 126.18C117.028 127.407 118.624 127.791 120.068 127.994C122.202 128.292 124.36 128.418 126.514 128.371C128.383 128.33 130.247 128.158 132.114 128.065ZM65.9195 87.0647C63.1889 85.8665 60.0616 86.1873 57.0989 86.5307C52.6173 87.0502 48.1357 87.5696 43.6541 88.0891C41.5001 88.3387 39.344 88.5887 37.2131 88.9899C36.6993 89.0866 36.1839 89.193 35.6992 89.3886C33.7998 90.155 32.6674 92.1996 32.404 94.2278C32.1405 96.256 32.592 98.3008 33.0249 100.3C34.3703 106.513 35.5635 112.783 35.8871 119.132C35.9512 120.388 35.9834 121.662 36.3294 122.872C36.6753 124.082 37.3818 125.246 38.4864 125.852C39.3361 126.318 40.3343 126.415 41.3018 126.478C50.1699 127.06 59.0332 125.632 67.8054 124.209C69.0535 124.007 70.3666 123.776 71.3395 122.97C72.8421 121.724 73.0667 119.534 73.0559 117.584C73.0359 113.984 72.5993 110.385 71.7574 106.884C70.7727 102.789 69.2267 98.7614 69.1857 94.5503C69.1677 92.693 69.4119 90.6916 68.4412 89.107C67.8676 88.1707 66.9259 87.5063 65.9195 87.0647ZM23.7205 165.04C24.9126 173.591 25.3132 182.252 24.9153 190.877C24.8943 191.331 25.4476 191.563 25.8954 191.648C31.6301 192.743 37.5359 191.34 43.1005 189.576C46.2638 188.574 49.4295 187.431 52.1653 185.555C53.4168 184.697 54.6832 183.404 54.4492 181.906C52.9458 172.285 52.1189 162.558 51.9766 152.821C46.9133 156.771 40.488 158.447 34.2607 160.029C31.3092 160.778 28.3177 161.533 25.2723 161.507C24.5362 161.501 23.9249 162.147 23.7192 162.853C23.5134 163.558 23.619 164.312 23.7205 165.04M140.105 169.363C130.62 168.441 120.945 169.523 111.901 172.519C112.444 176.643 113.186 180.741 114.123 184.794C114.499 186.417 114.905 188.033 115.312 189.648C116.104 192.794 116.896 195.94 117.688 199.087C117.798 199.524 117.936 200.003 118.314 200.251C118.652 200.472 119.088 200.447 119.491 200.413C128.856 199.633 138.216 198.789 147.569 197.879C145.525 188.779 143.48 179.68 141.435 170.58C141.357 170.231 141.262 169.854 140.983 169.628C140.742 169.432 140.414 169.393 140.105 169.363M126.124 129.417C124.06 129.522 121.965 129.625 119.95 129.168C117.935 128.711 115.974 127.614 114.939 125.828C114.345 126.511 113.164 126.562 112.513 125.934C111.862 125.305 111.874 124.125 112.537 123.51C109.916 123.533 107.294 123.557 104.672 123.58C105.871 124.285 105.772 126.362 104.534 126.994C103.295 127.625 101.581 126.559 101.552 125.171C101.539 124.548 101.922 123.848 102.543 123.792C102.286 123.351 101.616 123.612 101.107 123.564C100.34 123.492 99.9208 122.657 99.6517 121.936C98.5602 119.013 97.567 116.054 96.5741 113.095C97.2694 114.232 98.8352 114.743 100.069 114.236C100.504 114.057 100.517 113.432 100.332 112.999C100.008 112.244 99.2698 111.662 98.4497 111.598C97.6296 111.534 96.7762 112.034 96.4989 112.807C96.0879 112.5 96.2631 111.791 96.6943 111.513C97.1255 111.235 97.6778 111.26 98.1901 111.291C103.026 111.582 107.879 111.577 112.714 111.277C112.934 111.263 113.177 111.238 113.327 111.077C113.496 110.895 113.48 110.613 113.453 110.366C113.268 108.668 113.083 106.97 112.899 105.272C112.878 105.084 112.849 104.878 112.708 104.751C112.553 104.611 112.319 104.618 112.111 104.633C106.05 105.064 100.005 105.715 93.9914 106.585C93.3513 106.678 92.7559 106.141 92.5539 105.528C92.3518 104.914 92.4452 104.248 92.5406 103.609C92.5741 103.385 92.6168 103.143 92.7831 102.988C92.9362 102.846 93.158 102.813 93.3654 102.786C99.6216 101.989 105.919 101.511 112.224 101.354C112.071 101.976 111.258 102.11 110.617 102.121C104.765 102.225 98.9203 102.693 93.127 103.522C92.6644 104.312 93.2983 105.376 94.1522 105.708C95.0061 106.04 95.9627 105.863 96.8633 105.693C101.827 104.761 106.863 104.211 111.911 104.051C112.632 104.028 112.718 102.993 112.567 102.289C112.215 100.654 111.863 99.0197 111.511 97.3851C108.015 98.0461 104.444 98.3098 100.889 98.1695C98.7849 98.0865 96.6923 98.4536 94.619 98.8192C92.857 99.13 90.9792 99.4983 89.7058 100.753C88.2173 102.22 87.9506 104.514 88.041 106.6C88.1893 110.023 89.0592 113.37 89.4886 116.769C90.0133 120.921 89.8782 125.131 90.2811 129.297C90.3897 130.419 90.5445 131.563 91.0485 132.572C91.5526 133.581 92.4689 134.447 93.586 134.614C102.766 135.98 112.126 136.135 121.347 135.074C122.198 134.976 123.058 134.865 123.862 134.568C125.131 134.1 126.219 133.16 126.866 131.974C127.126 131.498 127.32 130.953 127.225 130.42C127.13 129.886 126.666 129.39 126.124 129.417ZM52.7332 152.83C53.6939 163.382 54.6546 173.934 55.6153 184.486C55.788 186.382 55.9542 188.341 55.3604 190.151C54.7666 191.961 53.2046 193.597 51.298 193.659C52.4174 195.294 54.3492 196.229 56.3027 196.571C58.2561 196.913 60.259 196.732 62.2339 196.549C78.5061 195.049 94.7784 193.548 111.051 192.047C110.701 190.017 110.352 187.987 110.003 185.957C109.924 185.501 109.7 184.923 109.239 184.958C98.0505 185.79 86.8623 186.622 75.6742 187.455C71.0799 187.797 66.4631 188.138 61.8714 187.763C59.548 187.574 56.6784 186.652 56.4492 184.336C54.6149 165.805 52.4915 147.303 50.0798 128.839C50.0427 128.555 49.9967 128.251 49.8021 128.04C49.5425 127.759 49.1127 127.738 48.7297 127.736C46.4419 127.724 44.1541 127.713 41.8663 127.701C42.5345 131.485 43.4018 135.234 44.4635 138.927C44.6597 139.61 44.9861 140.407 45.6866 140.529C48.2022 140.97 50.1876 143.036 51.2226 145.367C52.2576 147.698 52.502 150.29 52.7332 152.83ZM43.9433 87.1482C41.9796 77.2051 40.3182 67.2025 38.962 57.1589C38.8853 56.5909 38.8111 56.0019 38.9785 55.4536C39.3236 54.3236 40.5617 53.7314 41.7131 53.4588C43.9641 52.9257 46.3148 53.1036 48.622 53.2734C69.7161 54.8262 90.8791 55.4475 112.028 55.135C111.187 53.4318 109.496 52.2701 107.696 51.654C105.897 51.038 103.974 50.9012 102.077 50.7703C83.4597 49.4859 64.8148 48.2822 46.1548 48.5066C43.8719 48.534 41.5622 48.5865 39.3578 49.18C37.1534 49.7734 35.0325 50.9687 33.7608 52.8617C31.7568 55.8447 32.2415 59.7849 32.8617 63.3229C34.3143 71.6081 36.0815 79.8384 38.1583 87.99C40.0866 87.7094 42.015 87.4288 43.9433 87.1482ZM89.3628 67.7146C90.3709 67.7251 91.4185 67.6687 92.3106 67.1999C93.8815 66.3743 94.579 64.4722 94.6828 62.7028C94.7866 60.9335 94.4367 59.1601 94.5494 57.3913C94.5751 56.9881 94.8007 56.4539 95.1925 56.5551C95.4762 58.5913 95.7599 60.6275 96.0437 62.6637C96.2003 63.788 96.3632 64.9331 96.8566 65.9557C97.35 66.9783 98.2369 67.8771 99.3534 68.0913C99.9946 68.2143 100.664 68.1041 101.275 67.8747C102.739 67.3255 103.965 65.9274 103.909 64.3677C103.833 62.2143 103.756 60.0608 103.679 57.9074C103.649 57.0554 103.331 55.9202 102.479 55.9648C96.7933 56.2622 91.091 56.236 85.4087 55.8862C84.9944 55.8607 84.8851 56.4468 84.9289 56.8589C85.1564 58.9949 85.3838 61.1308 85.6112 63.2668C85.7829 64.8794 86.1496 66.775 87.6318 67.4386C88.1689 67.6791 88.7742 67.7084 89.3628 67.7146ZM118.522 201.746C118.25 201.936 118.07 202.229 117.904 202.517C117.042 204.016 116.349 205.611 115.843 207.264C125.795 206.57 135.739 205.763 145.672 204.844C146.046 204.81 146.451 204.761 146.719 204.499C146.893 204.329 146.982 204.093 147.066 203.865C147.438 202.857 147.81 201.848 148.181 200.84C148.362 200.349 148.523 199.739 148.169 199.353C147.875 199.032 147.375 199.043 146.942 199.077C137.859 199.804 128.782 200.586 119.709 201.424C119.296 201.462 118.862 201.508 118.522 201.746ZM136.066 140.533C135.797 137.399 135.248 133.881 132.686 132.049C131.686 134.798 130.677 137.589 130.448 140.504C130.219 143.42 130.865 146.527 132.824 148.702C133.099 149.007 133.405 149.304 133.551 149.688C133.697 150.072 133.623 150.579 133.265 150.783C130.603 148.47 129.5 144.76 129.563 141.237C129.625 137.714 130.707 134.298 131.778 130.941C132.014 130.203 131.34 129.427 130.584 129.255C129.828 129.083 129.047 129.335 128.313 129.585C128.17 129.633 128.107 129.796 128.062 129.94C127.554 131.555 127.042 133.267 127.435 134.914C129.129 142.008 128.911 149.453 130.635 156.54C130.699 156.802 130.768 157.069 130.921 157.291C132.064 155.059 133.208 152.826 134.352 150.594C134.889 149.544 135.43 148.488 135.765 147.358C136.418 145.161 136.262 142.816 136.066 140.533ZM176.525 89.0386C176.746 89.2206 177.043 89.2779 177.328 89.3097C180.562 89.6709 183.614 87.473 185.405 84.7602C187.196 82.0475 188.042 78.8425 189.216 75.8122C190.318 72.9682 191.728 70.2431 193.412 67.6995C190.04 70.859 185.887 73.0714 182.367 76.0659C178.847 79.0604 175.85 83.2605 176.099 87.8711C176.122 88.2973 176.196 88.7669 176.525 89.0386M46.9895 58.4848C47.4493 60.4969 47.2592 62.7327 48.3758 64.4695C49.4583 66.1532 51.7417 66.9556 53.6419 66.32C55.542 65.6845 56.8804 63.6708 56.7284 61.6759C56.6938 61.2225 56.5913 60.7774 56.4892 60.3343C56.0888 58.5984 55.6885 56.8626 55.2881 55.1267C55.2483 54.954 55.2038 54.7723 55.0811 54.6442C54.9052 54.4606 54.6236 54.4392 54.3693 54.4295C51.9234 54.336 49.4776 54.2425 47.0318 54.149C46.7965 54.14 46.5382 54.1382 46.3553 54.2863C46.1238 54.4736 46.1106 54.8178 46.1407 55.1138C46.2581 56.2681 46.7311 57.3537 46.9895 58.4848M113.196 60.3617C113.255 63.1408 115.068 65.5576 116.981 67.5777C117.168 67.7749 117.36 67.973 117.593 68.1123C117.97 68.3375 118.43 68.3908 118.868 68.3533C120.345 68.2265 121.609 67.111 122.233 65.7677C122.857 64.4244 122.927 62.8877 122.793 61.4132C122.659 59.9387 122.332 58.4867 122.2 57.0119C122.173 56.7162 122.065 56.33 121.767 56.3312C119.152 56.3412 116.537 56.3512 113.923 56.3612C113.588 56.3624 113.234 56.3693 112.951 56.548C112.669 56.7267 112.511 57.1442 112.72 57.4044C113.361 58.1995 113.175 59.3418 113.196 60.3617ZM152.96 146.33C145.796 146.204 139.229 150.444 134.218 155.557C133.373 156.419 132.548 157.323 131.986 158.39C131.887 158.579 131.808 158.842 131.971 158.98C132.058 159.053 132.182 159.057 132.296 159.057C136.464 159.042 140.472 157.285 143.858 154.859C147.245 152.433 150.098 149.354 152.96 146.33ZM64.3141 65.8153C65.3375 65.2272 65.9962 64.056 65.9664 62.8776C65.9513 62.2798 65.7743 61.6999 65.632 61.119C65.2659 59.6246 65.1236 58.0758 65.2112 56.5398C65.2299 56.2127 65.2579 55.8766 65.1594 55.5641C65.0609 55.2515 64.7996 54.964 64.4719 54.9462C61.7647 54.7986 59.0574 54.651 56.3502 54.5034C56.2528 54.4981 56.1466 54.4953 56.068 54.5529C55.9461 54.6421 55.953 54.8231 55.9756 54.9723C56.3087 57.1716 57.3748 59.2433 57.4432 61.4665C57.4683 62.2846 57.3588 63.123 57.5882 63.9087C57.8821 64.915 58.7215 65.7092 59.6954 66.1007C60.6694 66.4922 61.7621 66.5144 62.7954 66.3284C63.3239 66.2332 63.8486 66.0829 64.3141 65.8153ZM172.639 95.9252C174.6 96.4774 176.333 97.6319 178.235 98.3602C182.452 99.9748 187.471 99.3007 191.111 96.6309C192.673 95.4845 194.236 94.3382 195.798 93.1918C193.894 93.6419 191.923 93.8142 189.969 93.7018C186.704 93.5139 183.479 92.5375 180.217 92.7821C177.443 92.9901 174.745 94.1092 172.639 95.9252M116.651 80.8624C116.266 78.7313 115.88 76.6001 115.495 74.469C114.979 71.6126 114.462 68.7563 113.946 65.8999C113.909 65.6973 113.865 65.4799 113.714 65.3389C113.564 65.198 113.27 65.1977 113.188 65.3866C112.673 66.5753 111.616 67.5174 110.375 67.8959C109.623 68.1255 109.558 69.1512 109.646 69.9323C110.263 75.4431 110.994 80.9413 111.838 86.4221C112.083 84.1805 114.007 82.2338 116.249 81.959C116.685 81.9055 116.729 81.2942 116.651 80.8624M75.4599 63.5281C75.2204 61.2306 74.9182 58.9396 74.5539 56.6585C74.4788 56.1881 74.2781 55.6016 73.8014 55.5808C71.3373 55.4728 68.8733 55.3649 66.4092 55.257C66.3214 55.2531 66.2286 55.2503 66.1509 55.2915C65.952 55.3967 65.9846 55.6864 66.0431 55.9033C66.6114 58.0096 66.913 60.1875 66.9385 62.3687C66.9448 62.9054 66.9386 63.4627 67.1636 63.9503C67.4947 64.6677 68.2486 65.0793 68.9652 65.4144C70.214 65.9985 71.5793 66.512 72.9419 66.2999C74.3045 66.0878 75.6027 64.8974 75.4599 63.5281ZM76.5254 63.5409C76.774 64.743 77.2295 66.1414 78.4092 66.487C79.4048 66.7786 80.4812 66.859 81.4798 66.578C82.4785 66.297 83.3891 65.6277 83.8359 64.6928C84.1539 64.0274 84.2257 63.2743 84.2671 62.5382C84.3807 60.5216 84.3026 58.4943 84.0343 56.4923C84.02 56.3852 84.0041 56.275 83.9498 56.1814C83.8059 55.9329 83.4672 55.898 83.1797 55.8917C80.6706 55.8371 78.1616 55.7826 75.6525 55.728C75.4475 55.7235 75.1613 55.9362 75.3346 56.0455C75.6154 58.5606 76.0129 61.0626 76.5254 63.5409ZM160.835 88.4185C158.875 92.8425 158.298 97.8655 159.203 102.618C159.565 104.516 160.276 106.531 161.922 107.548C162.407 107.847 163.214 107.935 163.394 107.395C165.476 101.124 164.504 93.9173 160.835 88.4185ZM33.7906 143.963C34.6221 144.533 35.5594 144.948 36.5404 145.181C37.78 145.476 39.0674 145.48 40.3413 145.51C43.3182 145.582 46.2913 145.81 49.2442 146.192C49.6562 146.245 49.9968 145.8 49.9859 145.386C49.975 144.971 49.7224 144.605 49.4605 144.283C47.8855 142.346 45.5856 141.011 43.1204 140.603C41.374 140.314 39.5883 140.476 37.8188 140.425C36.0493 140.374 34.2023 140.075 32.7912 139.008C32.7165 140.023 32.7106 141.043 32.7734 142.058C32.7989 142.469 32.8404 142.895 33.0503 143.25C33.2262 143.547 33.5056 143.768 33.7906 143.963M105.41 65.1404C105.688 65.6436 106.134 66.0313 106.591 66.3808C107.086 66.7595 107.621 67.1139 108.229 67.2529C109.725 67.5953 111.256 66.4879 111.887 65.0902C112.518 63.6924 112.454 62.0901 112.308 60.564C112.198 59.4101 112.047 58.26 111.857 57.1164C111.825 56.9257 111.789 56.7264 111.669 56.5748C111.458 56.3088 111.072 56.2779 110.733 56.2689C108.908 56.2205 107.083 56.1721 105.258 56.1236C104.854 56.1129 104.28 56.3059 104.4 56.6912C104.937 58.4162 105.171 60.2347 105.089 62.0392C105.041 63.0922 104.901 64.2173 105.41 65.1404M169.994 97.1686C171.931 94.0471 172.511 90.1169 171.558 86.5703C170.715 83.4346 168.755 80.6568 168.134 77.4699C166.686 81.8563 165.228 86.578 166.538 91.0074C167.209 93.2775 168.565 95.2796 169.994 97.1686ZM137.896 146.278C143.658 144.796 148.977 141.637 153.032 137.289C154.245 135.988 155.487 134.714 156.756 133.467C153.646 133.893 150.611 134.853 147.823 136.292C143.57 138.489 139.838 141.908 137.896 146.278M173.004 108.093C175.123 106.104 177.243 104.116 179.362 102.127C172.195 103.039 165.501 107.174 161.485 113.17C162.52 113.966 164.005 113.497 165.213 112.999C166.892 112.306 168.586 111.604 170.082 110.573C171.134 109.846 172.071 108.968 173.004 108.093ZM33.6076 151.552C33.6254 151.736 33.6472 151.93 33.7587 152.078C34.0027 152.4 34.5 152.321 34.8885 152.207C39.3361 150.91 43.7212 149.399 48.0238 147.682C48.334 147.558 48.6958 147.363 48.702 147.029C45.4013 146.8 42.1006 146.572 38.7998 146.343C37.9925 146.287 37.1821 146.231 36.3906 146.063C35.2001 145.809 34.0649 145.299 33.0845 144.579C33.1564 146.909 33.382 149.232 33.6076 151.552M137.875 129.257C137.609 129.449 137.501 129.788 137.409 130.103C137.095 131.183 136.78 132.33 137.071 133.417C137.22 133.971 137.518 134.472 137.813 134.964C138.629 136.325 139.445 137.687 140.261 139.048C140.337 139.175 140.419 139.308 140.55 139.376C140.94 139.581 141.324 139.101 141.505 138.7C142.679 136.1 143.88 133.351 143.614 130.512C143.573 130.075 143.454 129.579 143.063 129.379C142.884 129.287 142.675 129.276 142.474 129.266C141.264 129.206 140.055 129.146 138.845 129.086C138.51 129.069 138.147 129.061 137.875 129.257ZM156.362 119.631C156.331 121.461 157.93 122.991 159.684 123.524C161.438 124.057 163.32 123.827 165.142 123.632C168.348 123.288 171.737 123.005 174.372 121.151C174.957 120.74 175.509 120.232 175.77 119.567C176.178 118.53 175.768 117.306 175.002 116.495C174.237 115.685 173.175 115.222 172.112 114.882C168.315 113.668 164.098 113.808 160.39 115.271C158.433 116.042 156.397 117.532 156.362 119.631M33.3058 138.324C33.651 138.646 34.3508 138.728 34.4854 138.276C34.9466 136.728 35.9835 135.401 37.2049 134.342C38.4264 133.283 39.8347 132.465 41.2336 131.653C41.6109 131.435 41.5871 130.892 41.5142 130.462C41.373 129.63 41.2317 128.798 41.0905 127.966C41.0547 127.756 40.984 127.504 40.7774 127.448C40.6083 127.402 40.4413 127.516 40.3031 127.624C39.2996 128.406 38.296 129.188 37.2924 129.971C35.2817 131.538 33.1267 133.337 32.6906 135.846C32.5387 136.721 32.6559 137.719 33.3058 138.324M41.1341 132.724C38.8803 134.129 36.4946 135.684 35.4704 138.132C35.4066 138.285 35.3478 138.445 35.3528 138.61C35.3627 138.935 35.6255 139.21 35.9269 139.335C36.2282 139.46 36.5639 139.466 36.8902 139.47C38.8197 139.492 40.7491 139.515 42.6785 139.538C42.7723 139.539 42.8742 139.537 42.9482 139.48C43.0653 139.389 43.0533 139.212 43.0301 139.065C42.7223 137.124 42.4146 135.182 42.1068 133.24C42.063 132.964 41.9736 132.633 41.7037 132.558C41.5073 132.503 41.3071 132.616 41.1341 132.724ZM136.993 129.376C135.572 129.01 134.04 129.09 132.665 129.601C132.931 130.474 133.403 131.282 134.032 131.944C136.15 134.173 136.776 137.41 137.016 140.473C137.145 142.109 137.19 143.752 137.152 145.392C138.082 143.959 139.012 142.527 139.943 141.094C140.035 140.951 140.131 140.801 140.141 140.631C140.151 140.462 140.074 140.3 139.996 140.149C139.077 138.38 137.728 136.853 136.877 135.051C136.025 133.248 135.764 130.947 136.993 129.376ZM41.8167 54.3764C41.0331 54.5005 40.1397 54.6992 39.7676 55.3987C39.5103 55.8823 39.5862 56.4674 39.6689 57.0087C40.0094 59.2381 40.3499 61.4674 40.6905 63.6968C42.4332 60.5684 44.0649 57.3799 45.6963 54.1922C45.3944 53.8514 44.8593 53.8945 44.4091 53.9658C43.545 54.1027 42.6809 54.2395 41.8167 54.3764ZM149.08 130.074C149.321 130.393 149.951 130.04 149.803 129.668C152.13 130.335 154.668 129.86 156.866 128.846C159.064 127.833 160.984 126.314 162.873 124.801C162.079 124.691 161.286 124.58 160.493 124.47C160.331 124.447 160.121 124.45 160.059 124.601C159.632 125.645 158.712 126.427 157.697 126.921C156.681 127.415 155.564 127.654 154.459 127.889C153.692 128.052 152.925 128.215 152.159 128.378C150.971 128.63 149.632 128.994 149.08 130.074M106.974 113.907C107.123 113.87 107.283 113.825 107.378 113.704C107.526 113.517 107.452 113.249 107.413 113.014C107.374 112.779 107.434 112.466 107.669 112.425C107.883 112.467 107.982 112.721 107.988 112.939C107.993 113.158 107.945 113.385 108.024 113.588C108.2 114.041 108.826 114.059 109.308 113.998C109.594 113.961 109.88 113.925 110.165 113.889C110.255 113.877 110.35 113.863 110.417 113.802C110.628 113.609 110.334 113.294 110.269 113.015C110.218 112.8 110.319 112.568 110.253 112.357C110.14 111.997 109.662 111.942 109.285 111.955C106.402 112.05 103.519 112.146 100.637 112.241C100.686 112.786 100.835 113.321 101.075 113.813C101.126 113.919 101.187 114.028 101.29 114.087C101.394 114.147 101.521 114.143 101.64 114.137C102.357 114.104 103.074 114.071 103.79 114.037C103.851 114.035 103.915 114.031 103.966 113.997C104.097 113.911 104.052 113.712 103.992 113.567C103.888 113.318 103.785 113.07 103.681 112.821C103.591 112.604 103.984 112.476 104.149 112.642C104.314 112.809 104.32 113.07 104.398 113.291C104.56 113.75 105.048 114.03 105.532 114.089C106.016 114.148 106.501 114.027 106.974 113.907M148.838 129.142C148.995 128.975 148.649 128.8 148.421 128.828C147.123 128.987 145.825 129.146 144.527 129.305C144.353 129.326 144.124 129.421 144.166 129.591C144.592 131.334 144.432 133.216 143.717 134.863C143.581 135.176 143.492 135.655 143.817 135.761C145.171 133.335 146.866 131.1 148.838 129.142ZM104.61 115.223C104.57 115.082 104.524 114.934 104.417 114.834C104.295 114.721 104.118 114.692 103.953 114.674C103.102 114.581 102.235 114.639 101.405 114.845C101.665 115.686 101.925 116.527 102.184 117.368C102.234 117.528 102.3 117.707 102.455 117.769C102.534 117.801 102.623 117.796 102.708 117.79C103.548 117.731 104.387 117.672 105.227 117.613C105.045 116.811 104.839 116.013 104.61 115.223ZM99.1434 118.164C99.2367 118.215 99.3508 118.199 99.4558 118.182C100.216 118.058 100.976 117.934 101.736 117.811C101.462 116.933 101.188 116.055 100.913 115.178C100.873 115.049 100.823 114.908 100.704 114.844C100.61 114.793 100.496 114.804 100.39 114.816C99.7121 114.895 99.0343 114.974 98.3566 115.052C98.2291 115.067 98.0782 115.099 98.0309 115.218C97.9988 115.299 98.0292 115.39 98.0594 115.471C98.358 116.276 98.6566 117.08 98.9552 117.884C98.9951 117.992 99.0425 118.109 99.1434 118.164ZM107.685 114.658C107.524 114.518 107.286 114.528 107.074 114.545C106.404 114.6 105.735 114.655 105.065 114.71C105.265 115.567 105.517 116.411 105.819 117.237C105.859 117.345 105.904 117.46 105.996 117.529C106.111 117.616 106.269 117.611 106.413 117.602C106.87 117.575 107.327 117.547 107.784 117.52C107.994 117.507 108.25 117.462 108.321 117.264C108.355 117.169 108.333 117.063 108.31 116.965C108.171 116.347 108.032 115.729 107.893 115.11C107.856 114.945 107.812 114.769 107.685 114.658ZM103.691 120.811C103.624 120.821 103.554 120.834 103.506 120.88C103.412 120.971 103.455 121.126 103.504 121.247C103.68 121.677 103.856 122.106 104.032 122.536C104.097 122.695 104.171 122.865 104.316 122.957C104.451 123.042 104.62 123.044 104.78 123.043C105.387 123.04 105.995 123.036 106.602 123.032C106.691 123.032 106.788 123.029 106.856 122.972C106.98 122.87 106.934 122.673 106.877 122.522C106.643 121.907 106.409 121.292 106.176 120.677C106.101 120.48 105.826 120.477 105.617 120.51C104.975 120.61 104.333 120.71 103.691 120.811M108.802 114.536C108.674 114.536 108.531 114.543 108.444 114.638C108.341 114.751 108.374 114.929 108.413 115.078C108.586 115.73 108.758 116.382 108.931 117.033C108.961 117.148 108.997 117.271 109.089 117.346C109.211 117.445 109.388 117.426 109.544 117.403C110.12 117.315 110.696 117.227 111.272 117.139C111.21 116.472 111.104 115.809 110.954 115.156C110.908 114.951 110.843 114.728 110.666 114.616C110.533 114.532 110.367 114.53 110.21 114.531C109.74 114.532 109.271 114.534 108.802 114.536ZM109.974 122.956C109.787 122.279 109.601 121.602 109.414 120.926C109.343 120.667 109.242 120.374 108.992 120.277C108.868 120.229 108.731 120.24 108.599 120.251C107.985 120.304 107.37 120.358 106.756 120.411C106.918 121.017 107.109 121.615 107.33 122.202C107.441 122.498 107.61 122.833 107.922 122.884C108.6 122.993 109.291 123.017 109.974 122.956ZM111.044 122.909C111.601 122.954 112.212 122.985 112.663 122.654C112.467 121.896 112.272 121.138 112.077 120.38C112.033 120.21 111.974 120.02 111.818 119.939C111.703 119.879 111.564 119.895 111.436 119.913C110.884 119.99 110.332 120.066 109.78 120.143C109.911 120.946 110.134 121.733 110.443 122.485C110.49 122.601 110.543 122.721 110.642 122.797C110.754 122.883 110.903 122.897 111.044 122.909ZM160.684 112.119C161.11 111.247 161.535 110.375 161.961 109.503C162.005 109.412 162.051 109.313 162.035 109.212C162.019 109.114 161.948 109.036 161.879 108.964C161.274 108.324 160.668 107.685 160.062 107.046C159.811 107.389 159.84 107.855 159.88 108.279C160.012 109.669 160.143 111.058 160.275 112.448C160.461 112.489 160.601 112.289 160.684 112.119ZM111.656 114.435C111.576 114.43 111.486 114.428 111.43 114.485C111.368 114.549 111.382 114.653 111.4 114.74C111.52 115.317 111.64 115.894 111.759 116.471C111.804 116.685 111.856 116.914 112.018 117.061C112.541 117.537 113.549 116.718 114.035 117.232C114.121 116.412 114.059 115.578 113.854 114.78C113.84 114.724 113.823 114.665 113.78 114.626C113.73 114.581 113.658 114.574 113.591 114.57C112.946 114.525 112.301 114.48 111.656 114.435ZM99.6211 118.715C99.5514 118.725 99.4787 118.735 99.4214 118.776C99.2941 118.866 99.2991 119.053 99.3173 119.208C99.3661 119.62 99.4196 120.048 99.6358 120.403C99.8521 120.758 100.279 121.021 100.681 120.913C101.258 120.759 101.834 120.605 102.41 120.45C102.385 119.901 102.273 119.355 102.081 118.84C102.033 118.711 101.972 118.575 101.854 118.506C101.731 118.433 101.577 118.45 101.436 118.469C100.831 118.551 100.226 118.633 99.6211 118.715ZM113.058 113.892C113.232 113.866 113.416 113.834 113.545 113.715C113.929 113.361 113.49 112.642 113.801 112.223C113.923 112.06 113.625 111.913 113.421 111.922C112.511 111.96 111.601 111.999 110.692 112.037C110.727 112.413 110.792 112.786 110.887 113.151C110.993 113.559 111.39 113.837 111.802 113.928C112.213 114.018 112.641 113.955 113.058 113.892ZM105.703 118.785C105.586 118.223 104.832 118.092 104.267 118.197C103.702 118.302 103.07 118.506 102.59 118.191C102.62 118.784 102.759 119.372 102.997 119.916C103.047 120.03 103.108 120.15 103.217 120.211C103.34 120.28 103.492 120.258 103.631 120.234C104.188 120.138 104.745 120.042 105.302 119.946C105.578 119.899 105.942 119.68 105.797 119.441C105.681 119.25 105.748 119.004 105.703 118.785M102.26 121.093C101.805 121.169 101.35 121.246 100.895 121.323C100.648 121.365 100.344 121.464 100.318 121.712C100.252 122.339 100.878 122.846 101.497 122.97C102.117 123.095 102.76 122.973 103.389 123.035C103.363 122.502 103.251 121.973 103.059 121.474C103.013 121.356 102.959 121.233 102.858 121.156C102.695 121.03 102.464 121.058 102.26 121.093ZM114.259 119.875C113.655 119.811 113.041 119.843 112.446 119.97C112.775 120.75 113.008 121.571 113.139 122.408C113.199 122.791 113.748 122.799 114.125 122.703C114.265 122.667 114.419 122.622 114.499 122.502C114.568 122.398 114.565 122.264 114.559 122.139C114.527 121.45 114.494 120.761 114.462 120.072C114.46 120.029 114.457 119.983 114.432 119.947C114.395 119.894 114.323 119.882 114.259 119.875M104.393 126.047C104.963 125.48 104.671 124.334 103.899 124.107C103.127 123.88 102.259 124.685 102.43 125.471C102.607 126.282 103.804 126.634 104.393 126.047M108.871 119.393C109.234 118.92 108.691 118.223 108.104 118.121C107.517 118.018 106.922 118.243 106.326 118.234C106.107 118.231 106.098 118.56 106.169 118.768C106.261 119.036 106.354 119.304 106.446 119.572C106.484 119.682 106.552 119.813 106.668 119.806C107.093 119.78 107.518 119.753 107.943 119.727C108.282 119.705 108.665 119.662 108.871 119.393ZM114.744 123.952C114.7 123.833 114.636 123.718 114.533 123.643C114.441 123.576 114.327 123.548 114.214 123.535C113.322 123.427 112.456 124.315 112.588 125.202C112.968 125.653 113.682 125.777 114.192 125.481C114.702 125.186 114.948 124.504 114.744 123.952M109.24 118.589C109.22 118.979 109.564 119.313 109.94 119.418C110.317 119.523 110.718 119.455 111.103 119.387C111.3 119.351 111.521 119.301 111.624 119.129C111.845 118.764 111.408 118.094 111.811 117.954C111.54 117.917 111.27 117.879 110.999 117.842C110.641 117.793 110.272 117.745 109.925 117.844C109.578 117.943 109.258 118.23 109.24 118.589M112.475 119.089C112.886 119.445 113.572 119.396 113.953 119.009C114.335 118.622 114.384 117.966 114.097 117.506C113.379 117.639 112.661 117.772 111.943 117.904C112.034 118.336 112.142 118.799 112.475 119.089M167.947 112.239C167.388 112.445 166.829 112.652 166.27 112.859C165.993 112.962 165.711 113.066 165.471 113.239C166.385 113.595 167.538 113.129 167.947 112.239M115.988 67.946C115.973 67.699 115.712 67.4973 115.469 67.5455C115.485 67.7967 115.736 68.008 115.986 67.9809L115.988 67.946Z" fill="#00160A"/>
</svg>
