<svg width="132" height="72" viewBox="0 0 132 72" fill="none" xmlns="http://www.w3.org/2000/svg">
<path fill-rule="evenodd" clip-rule="evenodd" d="M45.5698 0.808566C34.2309 -1.54993 23.7259 1.2483 18.0797 9.24092C12.4335 17.2335 13.9105 29.9162 15.1336 35.5144C16.3567 41.1126 19.4593 46.2402 23.3101 50.6917C30.4625 58.9599 40.128 65.287 50.9333 68.7025C61.7385 72.1179 73.4701 72.8183 84.7305 71.0904C91.0472 70.1211 110.806 65.3728 115.072 51.0433C119.337 36.7138 122.036 24.4667 112.8 19.4917C103.563 14.5168 97.1654 18.2586 92.5929 20.0986C71.2307 28.6951 56.9086 3.16706 45.5698 0.808566Z" fill="#4C90F6"/>
<path fill-rule="evenodd" clip-rule="evenodd" d="M29.5439 11.0208C27.7238 10.883 25.7619 10.9721 24.2786 12.0152C22.7954 13.0584 22.1216 15.3489 23.3395 16.6819C21.9626 16.1542 20.3443 17.0491 19.6545 18.3309C18.9648 19.6126 19.0008 21.1483 19.2084 22.5831C19.7223 26.1363 21.2001 29.5513 23.4494 32.3831C23.5528 32.6816 23.6561 32.9801 23.7595 33.2786C21.1009 33.9504 10.7192 37.9022 13.5243 47.6444C16.3294 57.3865 28.5797 61.0945 29.8337 62.2605C32.0193 64.2928 35.3552 64.4317 38.3664 64.3381C45.77 64.1078 53.151 63.1856 60.3768 61.5879C60.9911 61.4521 61.7693 61.3694 62.1234 61.8798C64.6866 65.5736 70.0467 65.9038 74.5925 65.5823C80.4317 65.1693 86.2373 64.3013 91.9366 62.9891C95.1693 62.2448 98.6022 61.2085 100.616 58.6205C102.964 55.6035 102.693 51.4204 102.312 47.6444C103.855 48.4853 106.414 48.9408 109.99 49.0107C112.095 48.5899 113.408 47.8419 113.93 46.7668C116.313 41.8503 117.13 35.5148 114.162 30.6688C113.806 30.0867 113.394 29.513 112.814 29.1426C112.198 28.7498 111.448 28.6207 110.717 28.5572C107.831 28.3067 104.871 28.9668 102.38 30.4161C102.402 22.4812 102.425 14.5464 102.447 6.61155C102.448 6.15715 102.442 5.67498 102.195 5.29054C101.837 4.7345 101.105 4.56215 100.446 4.44155C94.4496 3.34444 88.3856 2.60452 82.2982 2.22723C80.3092 2.10396 77.5872 2.64653 77.5781 4.59997C77.5434 12.0809 77.5087 19.5618 77.4741 27.0427C77.4658 28.8233 77.3491 28.6744 76.498 28.1584C77.033 28.2128 76.9136 27.3233 76.5082 26.9769C74.9946 25.6836 72.7889 25.636 70.7811 25.6561C66.2899 25.7012 61.7988 25.7463 57.3076 25.7913C52.9561 25.835 47.7376 26.3758 45.7675 30.1792C45.8247 29.0489 44.7794 27.9822 43.6249 27.9926C42.3657 28.0039 41.3126 26.9332 40.9451 25.7528C40.5776 24.5723 40.7397 23.3039 40.9051 22.0803C42.9354 20.1534 43.4669 16.8778 42.1467 14.4285C40.8264 11.9793 37.7663 10.5636 34.998 11.1216C33.2099 11.482 31.364 11.1585 29.5439 11.0208ZM81.6574 47.7166C81.7172 49.2916 81.7804 50.8879 82.2533 52.3942L81.6574 47.7166ZM83.5181 28.3869C83.1001 28.5068 82.583 28.8701 82.8024 29.2388C80.9865 29.4167 81.5287 29.3343 81.447 27.2369C81.3642 25.1086 81.3572 22.7553 82.7788 21.1445C84.0366 19.7191 86.088 19.2733 88.0038 19.113C90.2399 18.9259 92.5 19.0158 94.7133 19.3799C95.7932 19.5576 96.9629 19.8637 97.5896 20.7439C97.9404 21.2364 98.0694 21.8448 98.1725 22.4369C98.5778 24.7661 98.7043 27.1418 98.5488 29.4997C93.8933 27.3767 88.4462 26.9734 83.5181 28.3869ZM43.1153 44.0237C43.0016 43.9111 42.829 43.8837 42.6688 43.8621C42.0291 43.7758 41.3893 43.6896 40.7495 43.6033C42.2178 42.9533 43.1077 41.4093 43.3736 39.8519C43.6394 38.2944 43.3798 36.702 43.1176 35.1439C44.0568 36.1684 43.9891 37.7141 43.866 39.0861C43.5968 42.089 43.2291 44.1364 43.1153 44.0237ZM55.1948 58.8149C55.069 58.4138 54.6406 58.1984 54.327 57.9127C53.7624 57.3984 53.5528 56.621 53.3686 55.8874C52.7322 53.3525 52.0919 50.7867 52.0999 48.1762C52.1016 47.6232 52.1303 47.055 51.9435 46.5331C51.7566 46.0113 51.2885 45.5394 50.7242 45.5367C50.1293 45.5338 49.9872 44.7249 50.0404 44.144C50.2238 42.1413 50.4072 40.1385 50.5906 38.1357C50.6492 37.4961 50.7089 36.8504 50.907 36.2382C51.6392 33.9748 54.4609 32.6063 56.7409 33.4087C57.02 33.507 57.0946 33.8525 57.1263 34.1416C57.4772 37.3451 57.8282 40.5486 58.1791 43.7521C58.2415 44.3212 57.4916 44.6844 56.9256 44.5435C56.3596 44.4026 55.9274 43.9691 55.438 43.6567C54.9485 43.3444 54.2586 43.1646 53.8092 43.5302C53.3012 43.9434 52.5493 43.4844 52.1081 43.0032C51.6669 42.522 51.0923 41.9419 50.4647 42.1426C51.2008 42.8328 51.9369 43.5229 52.673 44.2131C52.9171 44.442 53.1324 44.8991 52.8239 45.0342C51.9781 44.7402 51.2136 44.2249 50.6306 43.5562C50.3611 43.5477 50.3484 43.9627 50.4988 44.182C51.0655 45.0086 52.3994 45.1927 52.7428 46.13C53.5443 48.3178 56.0442 49.771 58.3873 49.4112C58.8679 49.3374 59.1075 49.957 59.1654 50.4305C59.396 52.3182 59.6267 54.206 59.8573 56.0937C59.9104 56.528 59.9599 56.9874 59.7775 57.3865C59.4731 58.0526 58.6589 58.3046 57.9372 58.4838C56.9832 58.7207 56.0182 58.9588 55.043 59.0622C54.6324 59.1058 54.634 58.9584 55.1948 58.8149ZM93.2034 55.3538C91.8402 55.8013 90.3974 55.9529 88.9678 56.1018C88.3616 56.1649 87.716 56.2215 87.1721 55.9515C86.5319 55.6336 86.1908 54.9448 85.9155 54.2953C84.38 50.6729 83.5034 46.7833 83.3391 42.864C83.3157 42.3071 84.0431 42.0612 84.6105 42.0239C89.1401 41.7259 93.472 43.6775 97.5743 45.5834C97.7709 45.6748 97.9813 45.779 98.0785 45.9698C98.1509 46.1121 98.1471 46.2786 98.1417 46.4376C98.0682 48.6028 97.9755 50.8456 96.9876 52.7835C96.7208 53.3069 96.3814 53.8106 95.9009 54.1577C95.6098 54.368 95.2766 54.514 94.9463 54.6581C94.373 54.9083 93.7985 55.1585 93.2034 55.3538ZM63.9012 47.3404C63.2974 44.1578 62.8719 40.9428 62.6272 37.7145C62.5435 36.6101 62.4821 35.4874 62.7257 34.406C62.9693 33.3246 63.5569 32.2734 64.5177 31.6906C65.1096 31.3314 65.8026 31.1703 66.4879 31.0504C67.7387 30.8317 69.0111 30.7325 70.2813 30.7546C71.4023 30.7741 72.5788 30.908 73.4939 31.5429C73.7965 31.7528 74.0713 32.0276 74.1819 32.3745C74.2924 32.7213 74.1993 33.1475 73.8924 33.3513C73.1165 33.8662 72.8002 34.8298 72.6548 35.7371C72.5095 36.6444 72.4745 37.5945 72.0527 38.4146C71.8352 38.8375 71.5232 39.2065 71.1961 39.5551C69.4225 41.4453 67.1091 42.8436 64.5896 43.5482C64.1467 43.6721 63.5832 43.9403 63.6768 44.3824C62.2835 45.2438 63.9243 47.4625 63.9012 47.3404ZM67.7411 56.7272C67.2281 56.4217 66.8803 55.9132 66.5741 55.4072C65.2748 53.26 64.4228 50.854 64.0856 48.3795C68.759 48.3588 73.4046 46.6304 76.915 43.6064C77.0351 44.0791 77.0122 44.5737 76.9958 45.0605C76.8933 48.0997 77.0773 51.1481 77.5446 54.1542C77.656 54.8708 77.2192 55.5873 76.6188 56.0105C76.0184 56.4337 75.2787 56.6155 74.5525 56.7526C72.9154 57.0617 71.2425 57.1884 69.5764 57.1296C68.9428 57.1072 68.283 57.0499 67.7411 56.7272ZM38.2504 30.5124C38.5228 29.8689 38.7272 29.1434 39.2924 28.721C39.8576 28.2985 40.9218 28.5052 40.9549 29.2011C40.3956 29.1002 39.9681 29.7769 40.0634 30.3265C40.1587 30.8761 40.5663 31.313 40.8901 31.7713C41.3376 32.4044 41.6437 33.1212 41.9464 33.832C42.6667 35.5231 42.9471 37.3923 42.7539 39.2151C42.6401 40.2882 42.3401 41.3906 41.5997 42.189C40.8594 42.9875 39.5904 43.3868 38.6149 42.887C37.777 42.4578 37.359 41.5114 37.1668 40.6041C36.9747 39.6968 36.9405 38.747 36.5775 37.8914C35.9077 36.3128 34.2562 35.3592 32.6225 34.7605C35.0784 34.4335 37.3005 32.7562 38.2504 30.5124ZM45.0418 32.22C44.9326 32.6337 44.7814 33.0369 44.5911 33.4214C44.4769 32.8795 44.2935 32.3516 44.0466 31.854C44.2964 31.826 44.5478 31.8127 44.7992 31.8142C44.8602 31.8145 44.9248 31.8167 44.9763 31.8488C45.0924 31.921 45.0762 32.0895 45.0418 32.22ZM74.6446 31.794C74.7993 31.916 74.89 32.1786 74.7267 32.2892C74.4767 32.0438 74.2267 31.7985 73.9767 31.5532C74.0284 31.4904 74.1035 31.4466 74.1845 31.432C74.2836 31.6005 74.49 31.6721 74.6446 31.794Z" fill="white"/>
<path d="M31.3519 30.0363C30.8179 30.0363 30.3849 29.6119 30.3849 29.0884C30.3849 28.5649 30.8179 28.1406 31.3519 28.1406C31.886 28.1406 32.319 28.5649 32.319 29.0884C32.319 29.6119 31.886 30.0363 31.3519 30.0363Z" fill="#FFD951"/>
<path d="M36.8904 29.0884C36.5991 29.0884 36.3629 28.857 36.3629 28.5714C36.3629 28.2859 36.5991 28.0544 36.8904 28.0544C37.1817 28.0544 37.4178 28.2859 37.4178 28.5714C37.4178 28.857 37.1817 29.0884 36.8904 29.0884Z" fill="#FFD951"/>
<path fill-rule="evenodd" clip-rule="evenodd" d="M86.8374 15.4871C85.255 15.497 83.6727 15.5068 82.0903 15.5167C82.0162 15.5171 81.9366 15.5193 81.8769 15.5622C81.7548 15.6501 81.8035 15.8558 81.9292 15.9385C82.0549 16.0213 82.2178 16.0178 82.3691 16.0127C83.7617 15.9653 85.1584 16.0362 86.5385 16.2243C86.7484 16.2529 86.9698 16.2829 87.1661 16.2047C87.3624 16.1265 87.5126 15.8962 87.4222 15.7083C87.3278 15.512 87.0588 15.4857 86.8374 15.4871ZM92.129 15.3348C92.0287 15.4328 92.0768 15.6126 92.1882 15.6983C92.2996 15.7839 92.4488 15.8011 92.5896 15.8151C93.9925 15.9543 95.3953 16.0935 96.7982 16.2327C96.9641 16.2492 97.1356 16.2651 97.2944 16.2151C97.4531 16.165 97.5967 16.0305 97.6005 15.8671C97.6043 15.6985 97.4583 15.5553 97.2952 15.5015C97.1322 15.4477 96.9551 15.4628 96.7836 15.476C95.3462 15.5869 93.8948 15.5229 92.4733 15.2862C92.3543 15.2664 92.2145 15.2512 92.129 15.3348ZM92.3255 12.6954C92.2207 12.7783 92.258 12.956 92.3632 13.0385C92.4683 13.121 92.6115 13.1346 92.7458 13.145L97.251 13.4934C97.4196 13.5065 97.5943 13.5188 97.7534 13.4623C97.9125 13.4059 98.0521 13.2607 98.0429 13.0951C98.0337 12.9273 97.8756 12.7972 97.7091 12.7576C97.5425 12.718 97.3681 12.7476 97.1986 12.7721C95.6695 12.9937 94.1147 12.7917 92.5754 12.6545C92.489 12.6468 92.393 12.642 92.3255 12.6954ZM86.0336 11.8205C85.0935 11.9382 84.1405 11.9561 83.1965 11.8738C82.8213 11.8411 82.3676 11.8257 82.1544 12.1302C82.4075 12.3307 82.7553 12.3592 83.0801 12.3792C84.1566 12.4457 85.233 12.5122 86.3094 12.5787C86.555 12.5939 86.861 12.5757 86.9622 12.3558C87.0529 12.1585 86.8932 11.9213 86.688 11.8414C86.4828 11.7615 86.2526 11.7931 86.0336 11.8205ZM94.1547 10.6924C94.1536 10.8518 94.3573 10.9206 94.5182 10.9437L96.884 11.2836C97.0529 11.3078 97.2273 11.3318 97.3922 11.2887C97.5571 11.2455 97.7113 11.1169 97.7267 10.9503C97.7456 10.7464 97.5502 10.5742 97.3463 10.5298C97.1423 10.4854 96.931 10.5318 96.7238 10.558C96.0092 10.6482 95.2883 10.4943 94.5682 10.4701C94.392 10.4641 94.1559 10.5196 94.1547 10.6924ZM82.7392 10.1374C82.5562 10.1574 82.3683 10.2645 82.3194 10.4385C82.6444 10.6795 83.0741 10.7234 83.4801 10.7586C84.1751 10.819 84.87 10.8794 85.565 10.9398C85.8098 10.961 86.0546 10.9823 86.2994 11.0036C86.4784 11.0191 86.6646 11.0338 86.8327 10.9715C87.0008 10.9092 87.1445 10.7457 87.1194 10.5713C87.08 10.2964 86.7119 10.2251 86.4288 10.231C85.3783 10.2532 84.3146 10.4086 83.2853 10.2013C83.1049 10.1649 82.9223 10.1173 82.7392 10.1374ZM81.8164 7.53725C86.9658 8.21781 92.2452 7.8654 97.3237 8.94204C97.6249 9.00589 98.0453 9.00904 98.1232 8.71681C98.1162 8.37247 97.6618 8.24819 97.3113 8.22369C92.371 7.87834 87.4306 7.53299 82.4902 7.18765C82.2004 7.16739 81.7936 7.25331 81.8164 7.53725Z" fill="#E7EAEE"/>
<path fill-rule="evenodd" clip-rule="evenodd" d="M99.9298 59.8551C99.876 60.4657 100.735 60.6726 101.36 60.675C104.61 60.6876 107.856 61.2785 110.894 62.4101C111.358 62.5828 111.854 62.8003 112.08 63.2332C112.378 63.8065 112.052 64.5401 111.524 64.9221C110.995 65.3041 110.32 65.4205 109.672 65.524C92.8235 68.2131 75.7242 69.3919 58.6574 69.0408L58.383 69.0349C56.4147 68.9903 54.4058 68.8866 52.6025 68.1227C54.0954 67.0972 55.5882 66.0716 57.081 65.0461C54.4968 64.5402 51.8305 64.9006 49.208 65.1543C43.2059 65.735 37.1466 65.7469 31.1421 65.1897C31.5648 65.8518 32.4942 65.9436 33.2908 65.9604C40.8437 66.1198 48.4059 65.8568 55.9284 65.1731C54.9469 65.8062 53.9654 66.4393 52.984 67.0723C52.6284 67.3017 52.2349 67.5929 52.2143 68.0097C52.1835 68.6361 52.9686 68.9487 53.5999 69.0509C55.6947 69.3902 57.8256 69.4443 59.9486 69.4747C76.5285 69.7122 93.1291 68.5494 109.506 66.0033C110.305 65.879 111.133 65.7403 111.799 65.2904C112.466 64.8405 112.92 63.9851 112.64 63.241C112.361 62.5009 111.514 62.1534 110.749 61.9085C107.248 60.7877 103.604 60.0962 99.9298 59.8551ZM77.578 4.59997C77.5433 12.0809 77.5087 19.5618 77.474 27.0427C77.4657 28.8233 77.1078 31.0764 75.3511 31.5298C72.9236 30.4314 70.1874 29.9975 67.5304 30.2896C66.0094 30.4568 64.4299 30.9075 63.4002 32.0174C61.9877 33.54 61.9855 35.8329 62.1372 37.8854C62.4446 42.0459 63.0501 46.1851 63.9477 50.2626C63.2345 50.2185 62.5072 50.4989 62.0158 51.0075C62.7726 51.3467 63.6741 51.3609 64.4415 51.0456C63.9144 53.8461 66.2421 56.6091 69.0298 57.4114C71.8175 58.2136 74.8426 57.4572 77.464 56.2292C77.7098 57.1676 76.4291 57.719 75.4512 57.8607C72.969 58.2203 70.4868 58.5798 68.0046 58.9394C71.07 59.0297 74.1456 58.7838 77.1556 58.2077C77.7098 58.977 76.4547 59.7538 75.5061 59.9043C72.9902 60.3034 70.4742 60.7025 67.9582 61.1016C70.8 61.083 73.6406 60.8973 76.4597 60.5458C74.6668 62.131 72.2195 62.9833 69.8081 62.8622C71.1683 63.3007 72.6796 63.2744 74.023 62.7886C72.3423 64.9947 68.9038 65.4034 66.3927 64.1695C63.8816 62.9356 62.2421 60.4112 61.44 57.7725C60.638 55.1339 60.56 52.3451 60.4179 49.5954C60.1556 44.5197 59.6542 39.4508 58.7471 34.4469C58.1362 31.0773 56.6357 27.0595 53.178 26.5834C59.338 26.3051 65.5041 26.1551 71.6707 26.1333C73.5445 26.1267 75.8721 26.4272 76.4979 28.1584C77.0329 28.2128 76.9135 27.3233 76.5081 26.9769C74.9945 25.6836 72.7889 25.636 70.781 25.6561L57.3076 25.7913C52.956 25.835 47.7375 26.3758 45.7674 30.1792C45.8246 29.0489 44.7794 27.9822 43.6248 27.9926C42.3656 28.0039 41.3125 26.9332 40.945 25.7528C40.5775 24.5723 40.7396 23.3039 40.905 22.0803C42.9353 20.1534 43.4668 16.8778 42.1466 14.4285C41.7732 13.7358 41.2214 12.084 38.14 11.0208C36.0858 10.312 34.0553 10.3899 32.0483 11.2546C28.2795 10.5402 25.6895 10.7938 24.2786 12.0152C22.1621 13.8474 22.1215 15.3489 23.3394 16.6819C21.9625 16.1542 20.3442 17.0491 19.6544 18.3309C18.9647 19.6126 19.0007 21.1483 19.2083 22.5831C19.7222 26.1363 21.2 29.5513 23.4493 32.383L23.7594 33.2786C18.3182 34.6536 13.9166 39.3675 13 44.8013C14.8089 40.8047 17.2579 36.5722 21.4772 35.1532C22.4292 36.1321 23.4082 37.1536 23.8553 38.433C24.3024 39.7124 24.0609 41.329 22.9271 42.0997C23.6392 42.2615 24.3513 42.4233 25.0634 42.585C24.8264 42.9971 24.5893 43.4092 24.3523 43.8213C27.043 45.8263 27.3526 49.6184 27.3362 52.9313C27.3199 56.2442 27.3815 59.9804 29.8336 62.2605C32.0192 64.2928 35.3552 64.4317 38.3663 64.3381C45.7699 64.1078 53.1509 63.1856 60.3767 61.5879C60.9911 61.4521 61.7692 61.3694 62.1234 61.8798C64.6865 65.5736 70.0466 65.9038 74.5924 65.5823C80.4316 65.1693 86.2372 64.3013 91.9365 62.9891C95.1692 62.2448 98.6021 61.2085 100.616 58.6205C102.964 55.6035 102.693 51.4204 102.312 47.6444C104.626 48.9058 107.37 49.3941 109.99 49.0107C107.229 47.2414 105.89 43.8566 105.865 40.6233C105.84 37.39 106.941 34.256 108.166 31.2538C110.865 32.7883 112.285 36.0227 112.074 39.074C111.862 42.1254 110.211 44.9575 107.995 47.1105C110.726 45.4206 112.534 42.3762 112.684 39.2133C112.833 36.0504 111.321 32.8551 108.76 30.9247C109.169 29.5532 111.28 29.3856 112.387 30.3161C113.493 31.2467 113.84 32.757 114.125 34.1585C114.651 36.7481 115.179 39.398 114.797 42.0117C114.415 44.6254 112.942 47.2416 110.474 48.2992C111.627 49.1142 113.163 47.9409 113.929 46.7668C117.036 42.0051 117.13 35.5148 114.162 30.6688C113.806 30.0867 113.394 29.513 112.814 29.1426C112.198 28.7498 111.448 28.6207 110.717 28.5572C107.831 28.3067 104.871 28.9668 102.38 30.4161C102.402 22.4812 102.425 14.5464 102.447 6.61155C102.448 6.15714 102.442 5.67497 102.194 5.29054C101.837 4.7345 101.105 4.56215 100.446 4.44155C94.4496 3.34444 88.3856 2.60452 82.2981 2.22723C80.3091 2.10396 77.5871 2.64653 77.578 4.59997ZM81.6437 2.70531C88.0977 3.00309 94.5285 3.7851 100.861 5.04224C101.131 5.09574 101.416 5.15822 101.612 5.34736C101.879 5.60501 101.899 6.01326 101.903 6.38039C101.979 14.2813 101.947 22.1833 101.807 30.0834C101.032 29.894 100.257 29.7046 99.4821 29.5152C99.785 27.8941 100.089 26.2511 99.9597 24.6079C99.8302 22.9648 99.215 21.2937 97.9496 20.2084C96.5801 19.0337 94.669 18.7018 92.8536 18.5769C91.1079 18.4568 89.3517 18.4846 87.6108 18.66C85.8338 18.839 83.9618 19.2258 82.6798 20.4451C80.8279 22.2065 80.7979 25.0601 80.8938 27.5876C81.1483 34.2973 81.4028 41.007 81.6573 47.7166C81.7171 49.2916 81.7803 50.8878 82.2533 52.3942C82.7262 53.9006 83.6648 55.3323 85.085 56.0716C86.4785 56.797 88.146 56.7764 89.7139 56.6018C91.2107 56.435 92.6931 56.1442 94.1401 55.7333C95.0191 55.4837 95.8985 55.1832 96.6455 54.6651C99.1173 52.9506 99.4095 49.5294 99.4696 46.5619C100.419 46.394 101.347 47.102 101.738 47.9658C102.13 48.8295 102.113 49.811 102.089 50.756C102.028 53.1133 101.934 55.5883 100.706 57.6162C98.8121 60.745 94.8333 61.9009 91.2005 62.648C84.7525 63.9741 78.2058 64.8389 71.6297 65.2333C74.5645 63.7682 77.1666 61.2607 77.7856 58.09C77.9537 57.2287 77.9718 56.3469 77.9893 55.4701C78.3319 38.3264 78.6746 21.1827 79.0172 4.039C79.0389 2.95482 80.5385 2.65432 81.6437 2.70531ZM56.6244 30.852C56.7877 31.2423 56.9063 31.6752 56.7976 32.0833C56.6889 32.4914 56.2843 32.8477 55.8599 32.7784C53.9588 32.4681 51.9094 33.3859 50.9044 34.9979C50.0752 36.3279 49.96 37.9551 49.8667 39.5111L49.0164 53.6849C48.9255 55.1996 48.8806 56.8664 49.8411 58.0562C51.0872 59.6001 53.427 59.6516 55.4259 59.4599C57.0752 59.3018 58.8103 59.0329 60.0908 58.0018C60.0454 58.6019 60.2239 59.2159 60.5851 59.7025C61.031 60.3031 60.3112 61.0935 59.6109 61.3774C58.7557 61.7243 57.8256 61.8451 56.9077 61.9619C52.7035 62.4968 48.4967 63.0125 44.2877 63.5092C41.0479 63.8915 37.7563 64.2616 34.5354 63.7486C36.5731 63.1881 38.5228 62.322 40.296 61.1895C41.1806 60.6245 42.036 59.979 42.6394 59.1297C43.6243 57.7433 43.8318 55.9816 43.9956 54.2999C44.483 49.299 44.8457 44.2865 45.0833 39.2683C45.2586 35.567 46.4695 31.9178 48.5491 28.8236C48.921 28.2703 49.3758 27.6961 50.0333 27.5421C52.6473 26.9297 55.6045 28.4147 56.6244 30.852ZM68.6104 62.8822C68.3886 62.9191 68.1611 62.9678 67.9783 63.0963C67.7955 63.2248 67.668 63.453 67.7243 63.6664C67.7806 63.8799 68.068 64.0203 68.2496 63.8902C68.4499 63.7466 68.7164 63.7416 68.9552 63.6754C69.194 63.6092 69.4444 63.4149 69.4015 63.1753C69.3471 62.8716 68.9205 62.8305 68.6104 62.8822ZM77.8161 62.9724C77.541 63.0284 77.219 63.2206 77.2753 63.4904C77.3251 63.7284 77.6254 63.8076 77.871 63.8398C78.1463 63.8758 78.4401 63.9092 78.69 63.7906C78.94 63.6719 79.1021 63.3373 78.9381 63.1176C78.8275 62.9695 78.6206 62.93 78.4334 62.9226C78.2266 62.9143 78.0188 62.9311 77.8161 62.9724ZM61.3576 59.9735C61.6187 60.1581 61.798 60.4302 61.9823 60.6889C62.8222 61.8684 63.8867 62.8937 65.1046 63.6961C65.0741 63.8227 64.8806 63.7907 64.7658 63.7255C63.3556 62.9246 62.3493 61.6016 61.3834 60.3149C61.3044 60.2097 61.2392 60.0335 61.3576 59.9735ZM48.7481 28.1096C47.9957 28.9804 47.2375 29.8594 46.6871 30.8649C46.0904 31.955 45.7552 33.163 45.4853 34.3714C43.9755 41.1317 44.3785 48.1602 43.4 55.0137C43.2234 56.2504 42.99 57.5134 42.3335 58.5836C41.5644 59.8373 40.2881 60.7064 38.9878 61.4245C37.9361 62.0053 36.8384 62.5154 35.6835 62.8594C33.8468 63.4064 31.6405 63.4447 30.2327 62.1658C29.442 61.4476 29.0262 60.4229 28.7014 59.4154C27.3091 55.0974 27.156 50.4026 28.2641 46.0062C28.2362 48.6356 27.8879 51.2588 27.9676 53.8871C28.0473 56.5155 28.5978 59.222 30.1741 61.3498C30.4864 61.7712 30.8482 62.1757 31.3201 62.4153C31.9416 62.7309 32.68 62.7248 33.3747 62.6416C34.5882 62.4964 35.7747 62.137 36.8602 61.5859C37.6848 61.1673 38.4477 60.6413 39.1868 60.0903C40.046 59.4499 40.8896 58.7601 41.4916 57.8819C42.0883 57.0115 42.4209 55.9947 42.6847 54.9785C44.6108 47.5582 43.2335 39.554 45.5191 32.2324C46.0578 30.5069 46.9933 28.6555 48.7481 28.1096ZM94.6991 60.7537C90.2526 61.4264 85.806 62.0991 81.3595 62.7718C81.4722 63.0601 81.8787 63.0702 82.1909 63.0293C85.9937 62.5314 89.7964 62.0335 93.5991 61.5355C94.029 61.4792 94.4589 61.423 94.8888 61.3667C95.0929 61.34 95.3462 61.2675 95.372 61.0673C95.4084 60.7852 94.9858 60.7103 94.6991 60.7537ZM43.1175 35.1439C44.0567 36.1684 43.989 37.7141 43.866 39.0861C43.5967 42.089 43.3275 45.092 43.0582 48.0949C43.0456 48.2354 43.0303 48.3834 42.9462 48.4979C42.8088 48.6852 42.5427 48.7177 42.3079 48.7339C39.1111 48.9547 35.9143 49.1755 32.7174 49.3962C32.9564 49.7666 33.4953 49.7721 33.941 49.7384C36.9507 49.5107 39.9725 49.4369 42.99 49.5174C43.042 51.0342 42.8139 52.5597 42.3202 53.9981C42.1061 54.6215 41.282 54.7543 40.6115 54.7809C38.0545 54.8824 35.4974 54.9838 32.9403 55.0853C32.8227 55.3449 33.2359 55.5071 33.5257 55.5039C36.1541 55.4742 38.7824 55.4446 41.4108 55.415C41.7708 55.4109 41.901 55.9109 41.7654 56.2377C41.4108 57.092 40.282 57.276 39.3429 57.3336L33.4665 57.6943C33.3324 57.7025 33.3044 57.9092 33.4024 57.9994C33.5003 58.0895 33.6496 58.0921 33.784 58.0893L40.6642 57.9462C38.8852 60.0215 36.3901 61.4961 33.6873 62.0696C33.1049 62.1931 32.4875 62.2743 31.9217 62.0912C31.2446 61.8721 30.7453 61.3086 30.3545 60.7241C28.2815 57.6242 28.4193 53.6355 28.6312 49.9349L28.8713 45.7403C28.7874 45.6273 28.6151 45.5881 28.4891 45.6535C28.4405 45.4479 28.7134 45.3258 28.9251 45.2877C33.6018 44.4457 38.4006 43.6025 43.0808 44.4248C43.2305 44.3646 43.229 44.1364 43.1152 44.0237C43.0015 43.9111 42.8289 43.8837 42.6687 43.8621C42.029 43.7758 41.3892 43.6895 40.7494 43.6033C42.2177 42.9533 43.1076 41.4093 43.3735 39.8519C43.6394 38.2944 43.3797 36.702 43.1175 35.1439ZM66.1023 60.6435C65.6858 60.7195 65.2048 60.8443 65.0422 61.2278C65.506 61.5376 66.115 61.5058 66.6745 61.462C66.8284 61.4499 66.9966 61.4316 67.1047 61.3236C67.296 61.1324 67.1533 60.7802 66.9071 60.664C66.661 60.5479 66.3709 60.5945 66.1023 60.6435ZM97.8265 57.8415C93.0359 59.3169 88.0716 60.2497 83.0639 60.6154C82.6755 60.6438 82.1534 60.8252 82.2279 61.2C87.524 60.6129 92.7877 59.7452 97.9884 58.602C98.3203 58.5291 98.7461 58.2974 98.6225 57.9868C98.5139 57.7139 98.1116 57.7537 97.8265 57.8415ZM80.2798 60.1188C80.0352 60.1182 79.799 60.2003 79.5704 60.2856C79.4541 60.329 79.3261 60.3849 79.281 60.4986C79.1849 60.7408 79.5258 60.914 79.7867 60.9604C79.9623 60.9917 80.138 61.0229 80.3136 61.0541C80.4617 61.0805 80.6212 61.1055 80.7576 61.0429C80.9791 60.9412 81.0366 60.6279 80.9095 60.423C80.7825 60.2181 80.5244 60.1194 80.2798 60.1188ZM57.721 59.6011C55.602 59.9961 53.4314 60.0185 51.2745 60.0397C51.1075 60.0413 51.0625 60.2987 51.1818 60.4132C51.301 60.5278 51.4871 60.5328 51.654 60.5296C53.6675 60.4908 55.6837 60.2828 57.6913 60.4379C57.9098 60.4548 58.1368 60.4749 58.3421 60.3996C58.5473 60.3242 58.7224 60.1208 58.6834 59.9094C58.6497 59.7272 58.4685 59.5994 58.283 59.5642C58.0975 59.529 57.9067 59.5665 57.721 59.6011ZM52.9338 27.0405C55.3331 27.3916 57.3488 29.4847 57.5681 31.8528C57.773 34.0644 58.3959 36.2152 58.8392 38.393C60.2629 45.3867 59.831 52.6347 61.0898 59.6588C60.63 58.8382 60.506 57.8831 60.3902 56.9538L57.338 32.453C57.2568 31.8011 57.1737 31.1416 56.9348 30.5281C56.2818 28.8511 54.5941 27.7977 52.9338 27.0405ZM63.8429 58.7729C63.7122 58.8137 63.5783 58.8671 63.4911 58.9709C63.404 59.0747 63.3821 59.2424 63.4774 59.3391C63.5492 59.4121 63.6617 59.4253 63.7648 59.4342C64.102 59.4634 64.4393 59.4926 64.7765 59.5217C64.9585 59.5375 65.1466 59.5526 65.3201 59.4963C65.4936 59.44 65.6501 59.2926 65.6551 59.1136C65.6636 58.8103 65.2818 58.6579 64.9729 58.6381C64.592 58.6136 64.2066 58.6596 63.8429 58.7729ZM56.7408 33.4087C57.02 33.5069 57.0946 33.8525 57.1262 34.1416L58.179 43.7521C58.2414 44.3212 57.4915 44.6844 56.9255 44.5435C56.3595 44.4025 55.9273 43.9691 55.4379 43.6567C54.9485 43.3444 54.2585 43.1646 53.8091 43.5302C53.3011 43.9434 52.5493 43.4844 52.108 43.0032C51.6668 42.522 51.0922 41.9419 50.4646 42.1426C51.2007 42.8328 51.9368 43.5229 52.6729 44.213C52.9171 44.442 53.1323 44.8991 52.8238 45.0342C51.978 44.7402 51.2135 44.2249 50.6306 43.5562C50.361 43.5477 50.3483 43.9626 50.4987 44.182C51.0654 45.0086 52.3993 45.1927 52.7427 46.13C53.5443 48.3178 56.0441 49.771 58.3872 49.4112C58.8678 49.3374 59.1074 49.957 59.1653 50.4305C59.3959 52.3182 59.6266 54.206 59.8572 56.0937C59.9103 56.528 59.9598 56.9874 59.7774 57.3865C59.473 58.0526 58.6589 58.3046 57.9371 58.4838C56.5813 58.8204 55.2033 59.1595 53.8056 59.1111C52.408 59.0627 50.9627 58.5729 50.0777 57.5115C50.3227 57.1995 50.8687 57.5995 51.2257 57.419C51.5749 57.2424 51.3894 56.6545 51.0145 56.5389C50.6396 56.4234 50.2438 56.607 49.8957 56.7856C49.6769 56.3674 49.452 55.9197 49.497 55.4517C49.542 54.9838 49.9802 54.521 50.4475 54.6263C50.7547 54.6954 50.8799 54.1736 50.6322 53.9826C50.3846 53.7915 50.0289 53.8535 49.7223 53.9249C49.7053 52.7955 49.6882 51.6662 49.6712 50.5369C49.6677 50.3064 49.667 50.0644 49.7785 49.8614C49.8899 49.6584 50.1543 49.5163 50.3661 49.6164C50.6548 49.7528 50.9052 49.2708 50.712 49.0202C50.5188 48.7695 50.154 48.7371 49.8337 48.7262C49.8089 47.7232 49.875 46.718 50.0311 45.7264C51.2371 46.3187 51.448 47.8817 51.5696 49.1985C51.8029 51.7239 52.2722 54.2283 52.9697 56.6701C53.126 57.2171 53.3018 57.7765 53.667 58.2176C54.0322 58.6587 54.6339 58.9584 55.1947 58.8149C55.0689 58.4138 54.6406 58.1984 54.3269 57.9127C53.7624 57.3984 53.5527 56.621 53.3685 55.8874C52.7322 53.3525 52.0918 50.7867 52.0999 48.1762L52.101 48.0012C52.1052 47.5041 52.1105 47 51.9434 46.5331C51.7565 46.0113 51.2884 45.5394 50.7241 45.5367C50.1292 45.5338 49.9871 44.7249 50.0403 44.144C50.2237 42.1413 50.4071 40.1385 50.5905 38.1357C50.6491 37.4961 50.7089 36.8504 50.9069 36.2382C51.6391 33.9748 54.4608 32.6062 56.7408 33.4087ZM47.7629 57.8347C47.4833 57.9083 47.2118 58.1901 47.3281 58.45C47.4391 58.6983 47.7875 58.712 48.0628 58.6865C48.1976 58.6739 48.341 58.6581 48.4462 58.5747C48.6306 58.4286 48.6045 58.1186 48.4318 57.9593C48.2591 57.8001 47.9919 57.7744 47.7629 57.8347ZM81.3682 57.5571C81.1842 57.5961 80.9926 57.6487 80.8603 57.7799C80.7281 57.9112 80.6843 58.1452 80.8158 58.2773C80.9231 58.3852 81.0965 58.3871 81.2502 58.3819C81.4712 58.3742 81.6921 58.3666 81.9131 58.359C82.0411 58.3546 82.1779 58.3473 82.2807 58.2724C82.5003 58.1124 82.4039 57.7374 82.1681 57.6013C81.9323 57.4652 81.6356 57.5003 81.3682 57.5571ZM98.3966 55.5919C97.1594 56.1558 95.8002 56.4017 94.456 56.6312C91.7349 57.0959 89.0057 57.5144 86.2698 57.8865C85.887 57.9386 85.463 58.0123 85.2297 58.3143C86.2892 58.3853 87.348 58.2123 88.3953 58.0399C91.8475 57.4717 95.2998 56.9035 98.752 56.3353C99.1139 56.2758 99.5811 56.0787 99.5106 55.7258C99.4271 55.3074 98.791 55.4121 98.3966 55.5919ZM76.9149 43.6064C77.0351 44.0791 77.0121 44.5737 76.9957 45.0605C76.8932 48.0997 77.0772 51.1481 77.5445 54.1542C77.6559 54.8708 77.2191 55.5873 76.6187 56.0105C76.0183 56.4337 75.2786 56.6155 74.5524 56.7526C72.9153 57.0617 71.2425 57.1884 69.5763 57.1296C68.9427 57.1072 68.2829 57.0499 67.741 56.7272C67.2281 56.4217 66.8802 55.9132 66.574 55.4072C65.2747 53.26 64.4227 50.854 64.0855 48.3794C68.7589 48.3588 73.4045 46.6304 76.9149 43.6064ZM64.6917 55.6561C64.3726 55.7593 64.0536 55.8625 63.7345 55.9657C63.6281 56.0001 63.514 56.04 63.4509 56.1307C63.3442 56.2841 63.4478 56.5085 63.6128 56.5995C63.7778 56.6905 63.9782 56.6856 64.1674 56.6782C64.5119 56.6648 64.8924 56.6363 65.1328 56.3942C65.3733 56.1521 65.2908 55.6298 64.9468 55.6077C64.8598 55.6022 64.7745 55.6293 64.6917 55.6561ZM47.9658 55.7014C47.776 55.7311 47.5758 55.7654 47.4295 55.8876C47.2832 56.0098 47.2233 56.2517 47.3581 56.386C47.4124 56.4402 47.4877 56.468 47.5608 56.493C47.8433 56.5893 48.157 56.6663 48.4363 56.5613C48.7156 56.4564 48.906 56.0945 48.7304 55.8572C48.5691 55.639 48.2372 55.6589 47.9658 55.7014ZM97.5742 45.5834C97.7708 45.6748 97.9812 45.779 98.0784 45.9698C98.1508 46.1121 98.147 46.2786 98.1416 46.4375C98.0681 48.6028 97.9755 50.8455 96.9875 52.7835C96.7207 53.3069 96.3813 53.8106 95.9008 54.1577C95.6097 54.368 95.2766 54.5139 94.9462 54.6581C94.373 54.9083 93.7984 55.1585 93.2033 55.3538C91.8402 55.8013 90.3973 55.9529 88.9677 56.1018C88.3615 56.1649 87.7159 56.2215 87.172 55.9515C86.5319 55.6336 86.1908 54.9448 85.9154 54.2953C84.3799 50.6729 83.5033 46.7833 83.339 42.864C83.3156 42.3071 84.043 42.0612 84.6105 42.0239C89.1401 41.7259 93.4719 43.6775 97.5742 45.5834ZM82.6356 42.7069C82.7518 42.8567 82.7663 43.0571 82.7778 43.245C83.0488 47.6774 84.1743 52.0581 86.0773 56.0876C84.2642 55.1883 82.9133 53.4418 82.5194 51.4879C82.384 50.8161 82.3563 50.1285 82.329 49.4443C82.2428 47.2867 82.1566 45.1292 82.0704 42.9716C82.0659 42.8579 82.065 42.7328 82.1389 42.6449C82.261 42.4997 82.5194 42.557 82.6356 42.7069ZM81.8847 53.5025C81.6546 53.5148 81.4384 53.6085 81.2148 53.663C81.0145 53.7118 80.9541 53.9913 81.0658 54.1613C81.1776 54.3314 81.3932 54.4053 81.5976 54.4334C81.8109 54.4628 82.0403 54.4517 82.2238 54.341C82.4072 54.2303 82.5263 53.9993 82.453 53.8007C82.3746 53.5883 82.1147 53.4903 81.8847 53.5025ZM47.8339 52.9166C47.6188 52.9602 47.4343 53.0909 47.2572 53.2182C47.1611 53.2873 47.0589 53.3649 47.0274 53.4775C46.9873 53.6214 47.0841 53.7764 47.2175 53.8481C47.3509 53.9198 47.5109 53.9249 47.6626 53.913C47.8781 53.8962 48.1008 53.8438 48.2634 53.7041C48.4261 53.5645 48.5088 53.3193 48.4074 53.1321C48.3044 52.9419 48.049 52.873 47.8339 52.9166ZM99.0078 46.2138C99.0667 46.3166 99.0548 46.4427 99.0412 46.5598L98.7216 49.3181C98.5482 50.8149 98.321 52.4281 97.2536 53.5119C97.0756 53.4292 97.1761 53.167 97.2883 53.0083C98.1529 51.7853 98.3194 50.2302 98.4596 48.7487C98.5418 47.8802 98.624 47.0118 98.7062 46.1434C98.7889 46.0578 98.949 46.111 99.0078 46.2138ZM42.0891 51.864C39.1566 51.9349 36.224 52.0059 33.2915 52.0769C32.8426 52.0877 32.3924 52.0987 31.9484 52.164C32.041 52.4783 32.4626 52.5375 32.7965 52.5344C35.7372 52.5072 38.6878 52.3288 41.6128 52.6284C41.8628 52.6541 42.1328 52.6793 42.3498 52.5548C42.5668 52.4304 42.664 52.0889 42.4645 51.9389C42.3611 51.8611 42.2195 51.8608 42.0891 51.864ZM50.1463 51.2992C50.0817 51.3199 50.0157 51.3419 49.963 51.3839C49.7877 51.5238 49.853 51.8226 50.0322 51.9575C50.2115 52.0924 50.4532 52.108 50.6792 52.1134C50.9144 52.1191 51.1887 52.1009 51.3227 51.9114C51.4909 51.6734 51.291 51.3214 51.0125 51.2249C50.734 51.1284 50.427 51.2092 50.1463 51.2992ZM48.0022 50.7184C47.7287 50.7473 47.4626 50.8413 47.2331 50.9899C47.0577 51.1035 47.0927 51.3888 47.2523 51.5229C47.4119 51.657 47.6397 51.6758 47.8498 51.6684C48.0622 51.6609 48.2839 51.6292 48.4558 51.5066C48.6276 51.384 48.73 51.147 48.6379 50.9593C48.5328 50.745 48.2434 50.6928 48.0022 50.7184ZM77.5445 44.1587C77.7043 46.4147 77.7759 48.6766 77.7591 50.938C77.7584 51.0335 77.692 51.1693 77.6087 51.1196C77.4321 49.2188 77.3455 47.31 77.3491 45.4013C77.3499 44.9786 77.3586 44.5402 77.5445 44.1587ZM80.6795 49.9461C80.4279 49.9646 80.206 50.1081 80.0009 50.2522C79.9378 50.2965 79.8727 50.3439 79.8375 50.4117C79.7643 50.5522 79.852 50.7331 79.9894 50.8153C80.1267 50.8975 80.2968 50.9039 80.4575 50.8966C80.8232 50.8799 81.283 50.6848 81.2421 50.3282C81.2139 50.0825 80.9311 49.9275 80.6795 49.9461ZM47.393 48.4264C47.1481 48.525 46.8961 48.7822 47.0226 49.0101C47.1083 49.1644 47.317 49.1978 47.4962 49.1995C47.7042 49.2016 47.9124 49.1849 48.1174 49.1499C48.4057 49.1006 48.4499 48.6561 48.2261 48.4713C48.0023 48.2865 47.6637 48.3175 47.393 48.4264ZM18.8567 44.0122C18.7557 44.1778 18.754 44.3816 18.7552 44.5745C18.7638 45.9397 18.7723 47.3048 18.7809 48.6699C18.7819 48.8357 18.8047 49.0366 18.9582 49.1062C19.0909 49.1664 19.2544 49.0819 19.3282 48.9582C19.402 48.8346 19.4087 48.6845 19.4113 48.5412C19.4327 47.3224 19.2941 46.0746 19.6462 44.9056C19.7509 44.5582 19.8761 44.1243 19.6024 43.881C19.3885 43.6908 19.0048 43.7692 18.8567 44.0122ZM54.6641 43.8541C55.7199 44.4962 56.8304 45.1564 58.0697 45.2438C58.2951 45.2597 58.3966 45.5237 58.4411 45.7409C58.6413 46.7182 58.7517 47.713 58.7707 48.7096C58.7718 48.7705 58.7713 48.836 58.7354 48.8857C58.6782 48.9648 58.5617 48.9681 58.4629 48.9631C57.4962 48.9134 56.5162 48.8145 55.6183 48.4597C54.7204 48.1049 53.9036 47.4623 53.5377 46.5838C53.1719 45.7052 53.3478 44.5848 54.095 43.9815C54.2557 43.8517 54.4872 43.7465 54.6641 43.8541ZM62.7466 47.6967C62.4074 47.784 62.0682 47.8713 61.729 47.9586C61.6023 47.9912 61.4613 48.0345 61.4007 48.1485C61.3293 48.2826 61.4124 48.4556 61.5416 48.5384C61.6707 48.6213 61.8315 48.637 61.9852 48.6504C62.229 48.6716 62.4801 48.6922 62.714 48.6216C62.948 48.551 63.1634 48.366 63.1902 48.1276C63.217 47.8891 62.9833 47.6357 62.7466 47.6967ZM109.8 29.5048C108.53 30.0088 107.575 31.0989 106.982 32.3092C106.389 33.5195 106.119 34.8539 105.884 36.1765C105.495 38.3654 105.185 40.5997 105.469 42.8042C105.753 45.0087 106.693 47.2068 108.436 48.6276C107.166 48.6941 105.65 48.6448 104.961 47.5976C104.652 47.1277 103.986 46.9197 103.456 47.1275C103.789 46.8453 103.538 46.3199 103.291 45.9628C102.278 44.4998 101.583 42.8183 101.335 41.0672C100.853 37.6718 102.064 34.2306 103.86 31.289C105.025 29.3806 107.743 28.564 109.8 29.5048ZM79.6991 47.0937C79.4371 47.1947 79.4982 47.6191 79.743 47.7553C79.9878 47.8916 80.293 47.8304 80.5658 47.7623C80.6931 47.7306 80.8281 47.6935 80.9145 47.5966C81.1162 47.3704 80.8848 46.9879 80.5861 46.9204C80.2874 46.853 79.9843 46.9836 79.6991 47.0937ZM70.2813 30.7546C71.4022 30.7741 72.5787 30.908 73.4938 31.5429C73.7964 31.7528 74.0712 32.0276 74.1818 32.3745C74.2923 32.7213 74.1992 33.1475 73.8923 33.3512C73.1164 33.8662 72.8001 34.8298 72.6548 35.7371C72.5094 36.6444 72.4744 37.5945 72.0526 38.4146C71.8351 38.8375 71.5232 39.2065 71.196 39.5551C69.4224 41.4453 67.109 42.8435 64.5896 43.5482C64.1466 43.6721 63.5831 43.9403 63.6767 44.3824C67.3014 43.6373 70.6067 41.4933 72.7232 38.5144C73.3663 40.4504 74.635 42.1818 76.3012 43.3976C73.0509 46.1087 68.8447 47.697 64.5788 47.8243C64.3855 47.8301 64.1668 47.8229 64.0365 47.683C63.951 47.5913 63.9243 47.4625 63.9011 47.3404C63.2973 44.1578 62.8718 40.9427 62.6271 37.7145C62.5434 36.6101 62.4821 35.4874 62.7256 34.406C62.9692 33.3246 63.5569 32.2734 64.5176 31.6906C65.1095 31.3314 65.8025 31.1703 66.4879 31.0504C67.7386 30.8317 69.011 30.7325 70.2813 30.7546ZM48.0097 46.2433C47.7159 46.2435 47.3451 46.3277 47.2935 46.6113C47.2422 46.8939 47.5706 47.1044 47.8612 47.1408C48.0737 47.1674 48.3046 47.1421 48.4733 47.0125C48.6419 46.8829 48.7203 46.6291 48.6032 46.4532C48.4831 46.2729 48.2294 46.2431 48.0097 46.2433ZM26.2947 40.568C26.8342 42.6162 27.149 44.7137 27.4628 46.8066C27.4785 46.9107 27.4875 47.0339 27.4073 47.1039C26.5665 46.08 25.7951 45.0012 25.1 43.8772C25.0314 43.7662 24.964 43.6211 25.041 43.5156C25.2151 43.2769 25.3893 43.0382 25.5634 42.7996C25.6927 42.6224 25.8259 42.389 25.7123 42.2019C25.6198 42.0498 25.413 42.0177 25.233 42.0015L23.7558 41.8681C23.7717 41.7784 23.8274 41.7011 23.8817 41.6272C24.2772 41.0877 24.7086 40.5203 25.3419 40.2837C25.6929 40.1525 26.2007 40.2115 26.2947 40.568ZM94.7132 19.3799C95.7931 19.5576 96.9629 19.8637 97.5896 20.7439C97.9403 21.2364 98.0693 21.8448 98.1724 22.4369C98.5777 24.7661 98.7043 27.1418 98.5487 29.4997C93.8932 27.3767 88.4461 26.9734 83.5181 28.3869C83.1 28.5068 82.5829 28.8701 82.8023 29.2388C86.499 27.8986 90.6165 27.6987 94.4303 28.6744C95.6643 28.9901 96.8635 29.4242 98.0905 29.7652C99.914 30.272 101.797 30.5716 103.691 30.6562C100.242 35.2453 99.7962 41.8166 102.594 46.8132C100.853 46.4903 99.2177 45.7735 97.6128 45.0384C95.2168 43.9409 92.831 42.7835 90.2858 42.079C87.7405 41.3744 84.9886 41.144 82.464 41.9164C82.1686 42.0068 82.0059 41.589 81.9941 41.286L81.447 27.2369C81.3641 25.1086 81.3571 22.7553 82.7787 21.1445C84.0365 19.7191 86.088 19.2733 88.0037 19.113C90.2398 18.9259 92.4999 19.0158 94.7132 19.3799ZM61.3595 45.4558C61.2888 45.501 61.2159 45.558 61.1994 45.6391C61.1659 45.8038 61.3702 45.9086 61.535 45.9544C61.7744 46.021 62.021 46.0876 62.2684 46.0621C62.5158 46.0366 62.7676 45.8973 62.8489 45.6668C62.9302 45.4364 62.7667 45.1339 62.518 45.1294C62.1102 45.122 61.701 45.2373 61.3595 45.4558ZM26.2441 36.6153C27.1445 37.1103 28.2205 37.2911 29.2378 37.1185C29.1077 37.4742 28.5371 37.5983 28.5343 37.9761C28.5326 38.2062 28.7537 38.3682 28.8794 38.5625C28.9762 38.712 29.0181 38.8884 29.0566 39.0614C29.4191 40.6882 29.6272 42.348 29.6773 44.0123C29.686 44.2992 29.6133 44.6779 29.3222 44.7092C28.7195 44.7739 28.1519 45.1052 27.8065 45.5937C27.5236 43.8485 27.2407 42.1034 26.9578 40.3583C26.8922 39.9534 26.8369 39.5011 27.079 39.1667C27.4121 38.7067 27.1222 38.0765 26.83 37.5904L26.2441 36.6153ZM79.8645 44.1583C79.5572 44.2184 79.2075 44.4786 79.3239 44.7638C79.3956 44.9395 79.6123 45.0105 79.8051 45.0206C79.998 45.0307 80.1986 45.0027 80.3792 45.0698C80.5917 45.1487 80.8419 44.9643 80.8679 44.7429C80.8938 44.5216 80.7369 44.3067 80.5323 44.2095C80.3278 44.1123 80.0874 44.1146 79.8645 44.1583ZM48.0135 43.8887C47.8197 43.915 47.6153 43.9568 47.4743 44.0897C47.3333 44.2226 47.2945 44.4755 47.4446 44.5984C47.4942 44.639 47.5569 44.6605 47.618 44.681C47.8842 44.7701 48.1691 44.8573 48.4422 44.7912C48.7152 44.7251 48.9526 44.441 48.8582 44.1813C48.7492 43.8818 48.3348 43.8452 48.0135 43.8887ZM30.3744 40.3012C30.5796 40.3496 30.7291 40.5174 30.8644 40.6762L31.6793 41.6327C31.8385 41.8196 31.5583 42.0802 31.3107 42.1005C31.0631 42.1208 30.7739 42.0637 30.5978 42.2354C30.4132 42.4153 30.4893 42.729 30.6404 42.9367C30.7916 43.1444 31.0059 43.314 31.0973 43.5529C31.2339 43.91 31.0079 44.3576 30.6353 44.4676C30.4329 44.5274 30.149 44.4355 30.1472 44.2283C30.1367 43.0175 30.0645 41.8072 29.9309 40.6035C29.9081 40.3978 30.1692 40.2527 30.3744 40.3012ZM71.7219 40.9025C71.5658 41.0041 71.4648 41.1669 71.3607 41.3196C70.4667 42.6317 68.9715 43.5334 67.3736 43.7241C67.004 43.7682 66.5679 43.8122 66.3826 44.1288C66.7308 44.4667 67.2981 44.4255 67.7753 44.3167C69.4671 43.9309 71.0173 42.9729 72.1017 41.643C72.2746 41.4309 72.4326 41.1083 72.2397 40.9134C72.1092 40.7816 71.878 40.8008 71.7219 40.9025ZM31.253 35.1047C32.4477 35.3924 33.6408 35.7985 34.6091 36.5423C35.5774 37.2861 36.2975 38.4163 36.2899 39.6221C36.2803 41.1513 37.0469 42.6667 38.2945 43.5849L36.1938 43.8272C35.948 43.8556 35.6722 43.8761 35.4796 43.7235C35.198 43.5003 35.27 43.0716 35.3412 42.7235C35.4124 42.3753 35.3966 41.9152 35.0587 41.7871C34.6391 41.6281 34.2919 42.1987 34.3554 42.6353C34.4189 43.0718 34.6775 43.492 34.5965 43.9257C33.6017 44.064 32.6037 44.1806 31.6036 44.2753C31.8026 44.1152 31.8243 43.8119 31.7237 43.5796C31.623 43.3474 31.4275 43.1697 31.2376 42.9994C31.0352 42.8181 31.327 42.4985 31.5996 42.4697C31.8722 42.4409 32.1929 42.5052 32.3851 42.3135C32.6242 42.0751 32.4449 41.6755 32.241 41.4076C31.8453 40.8876 31.3548 40.261 31.6095 39.6623C32.2306 38.2025 32.0939 36.4546 31.253 35.1047ZM77.0695 31.1158C77.236 35.1121 77.2132 39.116 77.0012 43.1103C75.4437 42.282 74.3057 40.8244 73.6 39.2313C73.1694 38.2594 72.8812 37.1881 73.0533 36.1419C73.1817 35.3618 73.5585 34.6412 73.9966 33.9779C74.7739 32.8012 75.7884 31.739 77.0695 31.1158ZM40.9549 29.2011C40.3955 29.1002 39.968 29.7769 40.0633 30.3265C40.1586 30.8761 40.5662 31.313 40.8901 31.7713C41.3375 32.4044 41.6436 33.1212 41.9463 33.832C42.6667 35.5231 42.947 37.3923 42.7538 39.2151C42.6401 40.2882 42.34 41.3906 41.5997 42.189C40.8593 42.9875 39.5903 43.3868 38.6148 42.887C37.7769 42.4578 37.3589 41.5114 37.1668 40.6041C36.9746 39.6968 36.9404 38.747 36.5774 37.8914C35.9077 36.3128 34.2561 35.3592 32.6224 34.7605C35.0783 34.4335 37.3004 32.7562 38.2503 30.5124C38.5228 29.8689 38.7272 29.1434 39.2923 28.721C39.8575 28.2985 40.9217 28.5052 40.9549 29.2011ZM61.7142 42.0748C61.5415 42.1073 61.372 42.1565 61.2091 42.2214C60.9403 42.3286 60.6515 42.625 60.8244 42.8535C60.9189 42.9783 61.1003 42.9933 61.2589 42.9973C61.5479 43.0045 61.8595 43.0054 62.0956 42.8418C62.3317 42.6782 62.4134 42.2824 62.1753 42.1216C62.0445 42.0333 61.8702 42.0454 61.7142 42.0748ZM48.694 41.4002C48.4602 41.4196 48.2274 41.4514 47.997 41.4954C47.883 41.5172 47.7602 41.5475 47.6885 41.6371C47.5798 41.7728 47.6482 41.9857 47.7856 42.0936C47.923 42.2015 48.1056 42.2318 48.2795 42.2585C48.5451 42.2992 48.8285 42.3379 49.0736 42.2295C49.3186 42.1211 49.4859 41.8035 49.3361 41.5847C49.2055 41.3938 48.9277 41.3808 48.694 41.4002ZM115.537 40.1674C115.735 40.1653 115.803 40.4245 115.797 40.6185C115.78 41.1761 115.665 41.7307 115.458 42.2506C115.401 42.308 115.334 42.1881 115.342 42.108L115.537 40.1674ZM77.4812 41.6031C77.6048 41.6688 77.6518 41.8429 77.5777 41.9599L77.5747 41.9642L77.5773 41.9671C77.5807 41.9709 77.5842 41.9756 77.588 41.9811C77.6377 42.0548 77.568 42.1719 77.478 42.1657C77.4172 41.9844 77.4183 41.7837 77.4812 41.6031ZM80.0553 40.8139C79.7873 40.872 79.4964 41.09 79.563 41.3509C79.6072 41.5238 79.7928 41.6253 79.9704 41.664C80.1479 41.7026 80.3355 41.7 80.505 41.7646C80.7207 41.8467 80.9803 41.6763 81.0247 41.4538C81.0692 41.2313 80.9301 40.999 80.7294 40.8862C80.5288 40.7734 80.2811 40.7649 80.0553 40.8139ZM78.5044 4.00304C78.4888 16.0334 78.2068 28.0634 77.6587 40.0817L77.6011 41.3243L77.5924 40.9246C77.5766 39.9905 77.5905 39.0559 77.6045 38.1217C77.7681 27.1711 77.9318 16.2205 78.0954 5.26985C78.1022 4.81135 78.1391 4.28948 78.5044 4.00304ZM60.949 39.0547C60.7987 39.0988 60.6479 39.1657 60.5503 39.2862C60.4528 39.4067 60.4249 39.5919 60.5213 39.7132C60.6147 39.8307 60.784 39.853 60.9353 39.8661L61.581 39.9223C61.6866 39.9315 61.8 39.9391 61.8918 39.8871C61.9659 39.8451 62.015 39.7685 62.0375 39.6875C62.1053 39.4438 61.9372 39.1793 61.7045 39.0707C61.4718 38.9621 61.1959 38.9823 60.949 39.0547ZM112.964 29.6375C113.635 30.2841 113.984 31.1779 114.307 32.0446C115.206 34.4595 116.061 37.0228 115.617 39.5565C115.48 39.5811 115.414 39.3982 115.404 39.2619C115.222 36.8176 114.724 34.3961 113.925 32.0736C113.62 31.1874 113.254 30.2875 112.577 29.6285C112.586 29.468 112.847 29.5249 112.964 29.6375ZM30.4271 34.9204C30.5442 34.9486 30.62 35.0569 30.6812 35.1587C31.2589 36.1196 31.5309 37.2542 31.4502 38.3668C31.4169 38.8261 31.2661 39.3553 30.8284 39.5228C30.4726 39.1879 30.1168 38.853 29.7609 38.5181C29.7044 38.465 29.6465 38.4098 29.6153 38.3394C29.5373 38.1632 29.6488 37.9667 29.7514 37.803C30.2584 36.9941 30.6394 35.969 30.217 35.1148C30.1644 35.0084 30.31 34.8922 30.4271 34.9204ZM23.033 33.8836C23.0898 33.9127 23.1336 33.9607 23.1761 34.0077C24.2265 35.1722 25.241 36.3678 26.2178 37.5923C26.4217 37.848 26.6346 38.1365 26.6145 38.4605C26.5967 38.7485 26.3901 38.9995 26.1395 39.151C25.8889 39.3025 25.597 39.3716 25.3106 39.4384C25.2339 39.4563 25.1507 39.4737 25.0787 39.4424C25.0124 39.4137 24.9703 39.3499 24.9321 39.2895C24.3341 38.3445 23.7277 37.3807 23.4453 36.3036C23.385 36.0739 23.1818 35.9136 23.0195 35.7377C22.7004 35.3924 22.5135 34.9324 22.5028 34.4667C22.4992 34.309 22.5181 34.1426 22.6112 34.0139C22.7043 33.8852 22.8903 33.8107 23.033 33.8836ZM48.6164 38.4931C48.4716 38.5283 48.3121 38.5821 48.2471 38.7137C48.1327 38.9455 48.4012 39.1873 48.6522 39.2634C48.8469 39.3224 49.0638 39.3429 49.2505 39.2629C49.4372 39.183 49.5788 38.9812 49.5364 38.7859C49.4612 38.4391 48.9674 38.4078 48.6164 38.4931ZM79.8157 37.9868C79.7473 38.0468 79.684 38.1174 79.6581 38.2037C79.606 38.3772 79.7296 38.5686 79.8992 38.6399C80.0688 38.7113 80.2669 38.6837 80.4378 38.6154C80.6178 38.5435 80.7931 38.4059 80.816 38.2167C80.8422 38.0004 80.6422 37.8013 80.4222 37.77C80.2022 37.7387 79.9812 37.8415 79.8157 37.9868ZM60.3474 36.0846C60.1719 36.1547 60.1536 36.415 60.2747 36.558C60.3957 36.7009 60.5976 36.7485 60.7865 36.7641C60.9754 36.7797 61.1708 36.7729 61.3473 36.8406C61.6184 36.9447 61.9134 36.6235 61.8488 36.3452C61.7843 36.0669 61.4793 35.8939 61.1884 35.8806C60.8975 35.8673 60.6171 35.9769 60.3474 36.0846ZM48.9173 35.666C48.6684 35.678 48.4223 35.742 48.2001 35.8526C48.1038 35.9006 48.0042 35.967 47.9768 36.0694C47.9202 36.2805 48.1904 36.4254 48.409 36.4666C48.6028 36.503 48.7995 36.5247 48.9967 36.5314C49.2401 36.5397 49.5338 36.4937 49.6308 36.2747C49.7061 36.1046 49.6143 35.896 49.4601 35.7885C49.3059 35.681 49.1063 35.6569 48.9173 35.666ZM32.8719 20.0853C34.3239 20.315 35.7824 20.5053 37.2452 20.656C38.3047 20.7652 39.3027 21.3544 39.8966 22.2214C40.0186 22.3996 40.1026 22.6838 39.9142 22.793C39.381 22.1901 38.6573 21.7515 37.8689 21.5533C37.587 21.4824 37.2785 21.4438 37.0128 21.5598C36.747 21.6759 36.5571 21.9954 36.6773 22.2551C36.862 22.6538 37.451 22.5423 37.8969 22.5156C39.137 22.4415 40.2095 23.8326 39.7981 24.9817C39.5094 23.8848 37.9116 23.4085 37.0161 24.1247C36.1206 24.8408 36.2301 26.4135 37.1879 27.0474C37.5044 27.2569 37.9108 27.403 38.0553 27.7495C38.1791 28.0467 38.0599 28.3822 37.9411 28.6813C37.7547 29.1506 37.5682 29.62 37.3818 30.0894C36.9908 31.0735 36.5755 32.0936 35.7843 32.8104C35.1759 33.3616 34.3868 33.6896 33.5819 33.8819C30.6797 34.5752 27.4125 33.4718 25.562 31.1734C25.4137 30.9892 25.0753 31.1639 25.0489 31.3971C25.0224 31.6303 25.185 31.84 25.346 32.0137C26.1745 32.9076 27.2189 33.6081 28.3691 34.0413C28.9128 34.246 29.5589 34.4675 29.7261 35.0144C29.8645 35.4673 29.5733 35.9677 29.1552 36.2034C28.7371 36.4391 28.2274 36.459 27.7479 36.4076C26.7917 36.3051 25.8665 35.9383 25.1065 35.3603C24.8761 35.1851 24.6531 34.9804 24.5507 34.7128C24.4537 34.4593 24.4759 34.1791 24.4994 33.9094L24.5197 33.6776C24.6095 32.6721 24.7256 31.6548 25.1438 30.7354C25.345 30.2931 25.6141 29.8787 25.7622 29.4167C25.9449 28.8469 25.9339 28.2357 26.0567 27.6507C26.1794 27.0658 26.4902 26.4582 27.0584 26.2426C26.9084 25.8688 26.5339 25.6336 26.2914 25.3098C26.049 24.986 26.0134 24.4203 26.395 24.2741C26.5776 24.2041 26.7854 24.2644 26.9594 24.3529C27.6924 24.7261 28.0879 25.6393 27.8526 26.4153C27.699 26.9218 28.5153 27.2616 28.9549 26.9557C29.3944 26.6498 29.5027 26.0672 29.5894 25.5457C29.9253 23.5241 30.5997 21.3447 32.3611 20.2427C32.5151 20.1464 32.6916 20.0568 32.8719 20.0853ZM79.9696 34.4254C79.7381 34.499 79.5071 34.7029 79.5553 34.9368C79.6008 35.158 79.8605 35.2615 80.0874 35.2996C80.4092 35.3535 80.8288 35.2917 80.9193 34.9842C81.0054 34.6916 80.6929 34.4112 80.3839 34.3792C80.2447 34.3647 80.1028 34.383 79.9696 34.4254ZM42.8291 30.2146C43.045 30.4152 43.1502 30.7016 43.2483 30.9768C43.4697 31.5978 43.6939 32.2369 43.6684 32.8942C43.652 33.3173 43.9025 33.6985 44.0813 34.084C44.26 34.4695 44.357 34.9632 44.0768 35.2855C43.4074 34.7338 43.2467 33.8051 43.0995 32.9602C42.9236 31.95 42.6843 30.9028 42.0177 30.1132C42.251 29.9323 42.6133 30.0141 42.8291 30.2146ZM60.4675 33.03C60.2952 33.0843 60.1002 33.1928 60.0981 33.3702C60.0956 33.586 60.3665 33.6852 60.583 33.7241C60.6916 33.7435 60.8001 33.763 60.9087 33.7825C61.1853 33.8321 61.4818 33.8797 61.7389 33.7681C61.996 33.6565 62.1673 33.3162 61.9994 33.095C61.8909 32.952 61.6911 32.9131 61.5096 32.9021C61.1582 32.8807 60.8028 32.9244 60.4675 33.03ZM85.6223 29.914C85.3197 30.0559 84.9811 30.3355 85.0932 30.6454C88.2114 29.979 91.5428 30.3086 94.4623 31.5723C95.776 32.1409 97.0092 32.8928 98.3688 33.346C98.8339 33.5011 99.3417 33.6201 99.8116 33.4795C100.282 33.3389 100.673 32.8502 100.536 32.3878C100.407 31.9538 99.9139 31.7476 99.477 31.6026C97.324 30.8882 95.1335 30.2824 92.9171 29.7882C90.4987 29.249 87.8597 28.8651 85.6223 29.914ZM40.848 29.8774C41.0706 29.8765 41.2579 30.0366 41.4043 30.201C41.7594 30.5998 42.0119 31.0782 42.1996 31.5746C42.4329 32.1912 42.5709 32.8424 42.6073 33.4991C41.9626 32.4119 41.2732 31.3501 40.5414 30.3172C40.4144 30.138 40.6253 29.8783 40.848 29.8774ZM44.7991 31.8142C44.8602 31.8145 44.9247 31.8167 44.9762 31.8488C45.0923 31.9209 45.0762 32.0895 45.0417 32.22C44.9325 32.6337 44.7813 33.0369 44.591 33.4214C44.4768 32.8795 44.2934 32.3516 44.0465 31.854C44.2963 31.826 44.5477 31.8127 44.7991 31.8142ZM93.6619 30.4171C95.5076 30.9731 97.3534 31.5292 99.1991 32.0852C99.4196 32.1516 99.6754 32.2542 99.7224 32.4755C99.5723 32.6902 99.2865 32.7812 99.0213 32.7686C98.7562 32.7561 98.5045 32.6563 98.2588 32.5579C96.3862 31.808 94.5137 31.0581 92.6412 30.3082C92.9756 30.2166 93.3299 30.3171 93.6619 30.4171ZM74.1844 31.432C74.2835 31.6005 74.4899 31.6721 74.6445 31.794C74.7992 31.916 74.8899 32.1785 74.7266 32.2892C74.4766 32.0438 74.2266 31.7985 73.9766 31.5532C74.0283 31.4904 74.1034 31.4466 74.1844 31.432ZM54.7099 31.3014C53.3683 31.4384 52.0144 31.5084 50.6705 31.3949C50.3228 31.3655 49.907 31.3518 49.7007 31.6276C49.9611 31.8876 50.3706 31.9191 50.742 31.9347C52.137 31.9932 53.5319 32.0518 54.9269 32.1103C55.199 32.1217 55.5437 32.0878 55.632 31.8352C55.7015 31.6364 55.5435 31.4171 55.3451 31.3373C55.1468 31.2575 54.9231 31.2797 54.7099 31.3014ZM33.9678 29.8646C33.6432 30.2516 33.5247 30.7961 33.6599 31.2793C33.6932 31.3986 33.7419 31.5156 33.8197 31.6129C34.0238 31.8683 34.4006 31.9438 34.7224 31.8682C35.0442 31.7926 35.3199 31.5917 35.5655 31.3743C35.8186 31.1502 36.0561 30.8949 36.1777 30.5825C36.2992 30.2701 36.285 29.8901 36.0695 29.631C35.8918 29.4174 35.6048 29.315 35.3244 29.2949C34.8146 29.2583 34.2925 29.4776 33.9678 29.8646ZM79.1956 30.7644C79.0674 30.8659 79.0889 31.0768 79.1983 31.1976C79.3078 31.3183 79.4747 31.3699 79.6346 31.4089C79.8234 31.4551 80.022 31.4912 80.2113 31.4471C80.4006 31.403 80.5782 31.259 80.6015 31.0696C80.6353 30.7949 80.3419 30.58 80.063 30.5368C79.7585 30.4898 79.4353 30.5746 79.1956 30.7644ZM35.4533 29.9558C35.5954 30.1361 35.502 30.4616 35.2716 30.4924C35.0055 30.5281 34.7985 30.8021 34.8413 31.062C34.875 31.2661 34.6211 31.4366 34.4197 31.3753C34.2183 31.3141 34.1018 31.0928 34.1063 30.8861C34.1108 30.6795 34.2113 30.4869 34.3254 30.313C34.4512 30.1214 34.605 29.9352 34.8172 29.8419C35.0293 29.7486 35.3112 29.7754 35.4533 29.9558ZM36.1619 11.4304C38.0961 11.7777 40.0122 12.6057 41.2597 14.0955C42.5072 15.5853 42.9387 17.815 41.9634 19.4885C41.6187 20.08 41.0926 20.5957 40.4309 20.8039C39.7693 21.012 38.9692 20.8588 38.5277 20.3328C38.027 19.7362 37.0161 20.3084 36.2626 20.082C35.2202 19.7687 34.1367 19.5869 33.0474 19.5425C32.7891 19.532 32.5228 19.5304 32.2817 19.622C32.02 19.7215 31.8133 19.9208 31.6145 20.115C30.9249 20.7883 30.2213 21.4811 29.8131 22.3472C29.1657 23.7207 29.326 25.3953 28.5082 26.6784C28.4126 25.8738 28.317 25.0692 28.2215 24.2646C28.186 23.966 28.1465 23.6559 27.9818 23.4024C27.8172 23.1488 27.4881 22.9708 27.1998 23.0734C26.6914 23.2545 26.162 23.4489 25.7971 23.8403C25.4321 24.2318 25.2971 24.8842 25.6479 25.2878C25.9869 25.6778 25.6023 26.2416 25.4223 26.7226C25.1104 27.556 25.4771 28.5083 25.2319 29.3629C25.0288 30.0708 24.4421 30.5994 23.8815 31.0881C23.7176 31.2311 23.5264 31.3834 23.3079 31.3639C23.125 31.3476 22.978 31.2139 22.8531 31.0819C22.1081 30.2949 21.5979 29.2969 21.4006 28.2408C21.321 27.8147 21.4721 27.1939 21.9101 27.2521C21.7904 26.2298 20.8316 25.5333 20.2685 24.6648C19.6612 23.7281 19.5178 22.5763 19.49 21.4668C19.4621 20.3517 19.5732 19.1398 20.3314 18.3079C21.2422 17.3085 23.0121 17.2339 24.0072 18.1528C24.2553 18.3819 24.5821 18.6847 24.8781 18.5189C24.6461 18.1111 24.4142 17.7033 24.1823 17.2955C23.8043 16.6309 23.4184 15.9422 23.3415 15.185C23.1899 13.6912 24.3502 12.2767 25.785 11.7514C27.2198 11.226 28.8396 11.4439 30.2788 11.9577C30.6395 12.0864 31.0657 12.363 30.9678 12.7269C30.9112 12.9376 30.6934 13.0648 30.5817 13.2532C30.5121 13.3707 30.519 13.4083 30.5978 13.5034C30.6453 13.5608 30.7311 13.727 30.808 13.6946C31.624 12.7683 32.5064 11.7986 33.7027 11.4483C34.4957 11.2161 35.3479 11.2843 36.1619 11.4304ZM45.429 30.5334C45.531 30.4741 45.7262 30.4352 45.7072 30.5499C45.652 30.8305 45.3943 31.0392 45.1162 31.1249C44.8382 31.2107 44.5397 31.1962 44.2486 31.1809C44.1348 31.1749 44.0133 31.1663 43.9227 31.0985C43.8467 31.0416 43.8051 30.9522 43.7664 30.8666C43.7001 30.7198 43.6339 30.573 43.5676 30.4262C44.1086 30.0812 44.8737 30.8559 45.429 30.5334ZM61.0512 29.575C60.8236 29.5917 60.5978 29.6306 60.378 29.691C60.1877 29.7433 59.969 29.8525 59.9595 30.0461C59.9471 30.3009 60.2853 30.405 60.5446 30.4269C60.8085 30.4493 61.0724 30.4716 61.3363 30.494C61.5286 30.5103 61.746 30.5186 61.8874 30.3898C62.0772 30.2169 62.0006 29.8814 61.795 29.7267C61.5895 29.572 61.3096 29.556 61.0512 29.575ZM54.8797 29.5196C53.6176 29.6852 52.3383 29.7251 51.068 29.6386C50.919 29.6284 50.7566 29.6199 50.6339 29.7034C50.5112 29.7869 50.4807 30.0022 50.6147 30.067C50.6553 30.0866 50.7021 30.0887 50.7473 30.0904C52.2831 30.1472 53.8188 30.204 55.3546 30.2608C55.4946 30.266 55.6488 30.2667 55.7565 30.1788C55.9493 30.0215 55.8387 29.685 55.6176 29.5688C55.3965 29.4526 55.1284 29.487 54.8797 29.5196ZM42.6253 28.2936C43.1156 28.3194 43.6145 28.364 44.0673 28.5504C44.52 28.7367 44.9261 29.0874 45.0613 29.5501C45.0887 29.644 45.0989 29.7596 45.0254 29.8255C44.9682 29.8769 44.8821 29.8777 44.8046 29.8747C43.99 29.8433 43.1791 29.7244 42.3909 29.5208C41.999 29.4196 41.5266 29.1755 41.5796 28.7817C41.6075 28.5743 41.79 28.4123 41.9915 28.3436C42.1931 28.275 42.4122 28.2823 42.6253 28.2936ZM99.1903 28.2356C99.2685 28.6412 99.2876 29.0576 99.2469 29.4684C99.1456 29.5756 99.0123 29.3663 99.0209 29.2205C99.0404 28.8874 99.0974 28.5565 99.1903 28.2356ZM72.9641 27.7396C70.1409 27.8646 67.3176 27.9897 64.4944 28.1148C64.2309 28.1264 63.8808 28.2254 63.8964 28.4835C64.2333 28.6955 64.668 28.6517 65.0658 28.6062C67.5824 28.3188 70.1284 28.2791 72.6531 28.4879C72.8711 28.5059 73.1025 28.5234 73.2971 28.4254C73.4916 28.3273 73.617 28.0661 73.4907 27.891C73.3803 27.7379 73.1552 27.7311 72.9641 27.7396ZM79.81 27.4493C79.6858 27.4677 79.5564 27.4996 79.4662 27.5852C79.2599 27.7812 79.3873 28.1536 79.6354 28.2955C79.8835 28.4375 80.1907 28.4175 80.4769 28.3933C80.791 28.3667 80.8929 27.9049 80.6866 27.6713C80.4803 27.4377 80.1217 27.4032 79.81 27.4493ZM69.8804 26.4258C65.2792 26.6598 60.678 26.8937 56.0768 27.1277C55.8304 27.1402 55.5042 27.2331 55.5172 27.4747C56.2759 27.6086 57.0617 27.5937 57.8146 27.4311L57.146 27.995C57.4647 28.1919 57.8043 28.3953 58.181 28.4035C58.5576 28.4117 58.9677 28.1395 58.9571 27.7703C58.7665 27.6841 58.5759 27.5979 58.3852 27.5117C62.1022 27.1995 65.8364 27.0857 69.566 27.1707C69.7812 27.1756 70.0108 27.1774 70.1926 27.0644C70.3744 26.9513 70.4663 26.6763 70.3159 26.5254C70.2083 26.4175 70.0341 26.418 69.8804 26.4258ZM40.087 27.0289C40.2528 27.0378 40.3935 27.1457 40.522 27.2488C40.6743 27.3709 40.8267 27.4931 40.979 27.6153C41.1386 27.7433 41.3115 27.896 41.3208 28.0979C41.3259 28.2075 41.2408 28.3376 41.1318 28.3129C41.1013 28.306 41.0749 28.288 41.0494 28.2703C40.6865 28.0194 40.3236 27.7686 39.9607 27.5177C39.8867 27.4665 39.8076 27.4086 39.7837 27.323C39.7397 27.166 39.9212 27.02 40.087 27.0289ZM34.4428 25.7148C34.4284 26.0807 34.6137 26.4235 34.6796 26.7838C34.7455 27.1442 34.6199 27.6031 34.2564 27.6874C34.1492 27.7123 34.1182 27.8627 34.1787 27.9529C34.2392 28.0431 34.3536 28.082 34.462 28.1013C34.7988 28.1613 35.1975 28.0554 35.3523 27.7561C35.4298 27.6064 35.4357 27.4321 35.4401 27.2642C35.4519 26.8147 35.4637 26.3652 35.4755 25.9158C35.4835 25.6084 35.4484 25.23 35.1615 25.106C34.8197 24.9582 34.4572 25.349 34.4428 25.7148ZM39.4478 27.7539C39.5142 27.7842 39.5594 27.8545 39.5587 27.9263L39.5752 27.9305C39.5384 28.0106 39.4059 28.0231 39.3541 27.9513C39.3023 27.8796 39.3584 27.7613 39.4478 27.7539ZM40.0826 25.4046C40.2348 25.4084 40.4051 25.4355 40.4951 25.5559C40.5914 25.6846 40.5524 25.8735 40.4535 26.0003C40.3546 26.1272 40.209 26.2087 40.073 26.2966C39.5006 26.6668 39.0435 27.2059 38.7771 27.8254C38.5959 27.5916 38.4147 27.3579 38.2336 27.1242C38.0983 26.9496 37.9556 26.7499 37.9842 26.5325C38.0048 26.3755 38.1124 26.2434 38.2266 26.1314C38.7108 25.6566 39.398 25.3876 40.0826 25.4046ZM98.4386 21.7885C98.6514 21.8055 98.7617 22.0397 98.8286 22.2385C98.9305 22.5413 99.0325 22.8441 99.1344 23.1469C99.2458 23.4777 99.3579 23.8122 99.3885 24.1593C99.4087 24.3893 99.3927 24.6207 99.3766 24.851C99.3266 25.5703 99.2765 26.2896 99.2264 27.009C99.2168 27.148 99.1088 27.34 98.9915 27.2613C99.0402 25.4239 98.854 23.5807 98.4386 21.7885ZM38.251 24.4333C38.4441 24.5055 38.6493 24.6322 38.6773 24.833C38.7053 25.0337 38.4037 25.22 38.2868 25.053C38.1375 24.8398 37.7644 24.9511 37.641 25.1796C37.5176 25.4081 37.5538 25.683 37.5557 25.9416C37.5575 26.2001 37.4969 26.4968 37.2669 26.6234C37.2284 26.2775 37.1898 25.9317 37.1513 25.5858C37.1037 25.1588 37.1065 24.6292 37.4893 24.4203C37.7185 24.2952 38.0058 24.3418 38.251 24.4333ZM32.0483 24.238C31.7348 24.2517 31.4001 24.3588 31.2286 24.6164C31.0571 24.874 31.1481 25.296 31.4503 25.379C31.8814 25.4974 32.2847 24.9018 32.7062 25.0497C32.9699 25.1422 33.1326 25.5056 33.4076 25.4534C33.578 25.4211 33.6725 25.2209 33.6385 25.054C33.6046 24.8871 33.4775 24.7535 33.3414 24.6478C32.9787 24.3661 32.5106 24.2178 32.0483 24.238ZM80.0585 23.9337C79.7563 23.9816 79.4604 24.3059 79.6197 24.5622C79.6644 24.6341 79.7371 24.6852 79.8132 24.7245C80.0017 24.8217 80.2342 24.8547 80.4288 24.7699C80.6234 24.6851 80.7603 24.4651 80.7076 24.2628C80.6414 24.0086 80.3227 23.8919 80.0585 23.9337ZM31.5568 22.2472C31.3488 22.4411 31.1867 22.8061 31.4196 22.9706C31.6659 23.1445 31.9609 22.8509 32.1966 22.6633C32.46 22.4536 32.8167 22.3611 33.1514 22.4157C33.3654 22.4506 33.567 22.5417 33.7817 22.5723C33.9964 22.6028 34.2463 22.5545 34.3634 22.3755C34.4863 22.1878 34.4082 21.922 34.2391 21.7727C34.0701 21.6233 33.8352 21.5687 33.6086 21.5484C32.8653 21.4817 32.0977 21.7432 31.5568 22.2472ZM80.0689 21.6531C79.8834 21.7598 79.7834 22.0113 79.8867 22.1962C80.0231 22.4406 80.3809 22.4373 80.6567 22.3701C80.7561 22.3459 80.8606 22.314 80.9264 22.2371C81.0834 22.0536 80.9074 21.7657 80.6882 21.6597C80.4953 21.5664 80.2545 21.5465 80.0689 21.6531Z" fill="#00160A"/>
<path fill-rule="evenodd" clip-rule="evenodd" d="M104.978 46.233C104.952 46.302 104.929 46.3793 104.958 46.4469C105.01 46.5682 105.179 46.5729 105.314 46.5719C106.258 46.5645 107.136 47.3595 107.203 48.2829C107.21 48.3804 107.347 48.425 107.435 48.3799C107.524 48.3347 107.569 48.2372 107.6 48.1441C107.773 47.6194 107.661 47.0312 107.386 46.5504C107.111 46.0695 106.686 45.6859 106.223 45.372C106.044 45.2502 105.821 45.1333 105.618 45.2119C105.484 45.2639 105.396 45.3892 105.323 45.5111C105.186 45.7406 105.07 45.9826 104.978 46.233ZM105.526 46.1279C105.609 45.8787 105.947 45.7892 106.199 45.8773C106.451 45.9654 106.634 46.1753 106.806 46.3766C106.968 46.5674 107.139 46.7756 107.158 47.0235C106.723 46.5724 106.146 46.2554 105.526 46.1279Z" fill="#FFD951"/>
</svg>
